{
.appVersion = "3091";
.formatVersion = 3;
DisplayStrings = (
y,
u,
f
);
customParameters = (
{
name = vendorID;
value = ADBO;
},
{
name = panose;
value = (
2,
11,
5,
9,
3,
4,
3,
2,
2,
4
);
},
{
name = unicodeRanges;
value = (
0,
1,
2,
4,
5,
6,
7,
9,
29,
32,
33,
43,
44,
45,
57
);
},
{
name = codePageRanges;
value = (
"1252",
"1250",
"1251",
"1253",
"1254",
"1257",
"1258",
"bit 29",
"bit 30"
);
},
{
name = fsType;
value = (
);
},
{
name = glyphOrder;
value = (
.notdef,
space,
A,
B,
C,
D,
E,
F,
G,
H,
I,
J,
K,
L,
M,
N,
O,
P,
Q,
R,
S,
T,
U,
V,
W,
X,
Y,
Z,
a,
b,
c,
d,
e,
f,
g,
h,
i,
j,
k,
l,
m,
n,
o,
p,
q,
r,
s,
t,
u,
v,
w,
x,
y,
z,
Agrave,
Aacute,
Acircumflex,
Atilde,
Adieresis,
Amacron,
Abreve,
Aring,
Aringacute,
uni01CD,
Aogonek,
uni1EA0,
uni1EA2,
uni1EA4,
uni1EA6,
uni1EA8,
uni1EAA,
uni1EAC,
uni1EAE,
uni1EB0,
uni1EB2,
uni1EB4,
uni1EB6,
AE,
AEacute,
uni01E2,
uni0243,
uni1E06,
Ccedilla,
Cacute,
Ccircumflex,
Ccaron,
Cdotaccent,
Dcaron,
uni1E0C,
uni1E0E,
uni1E10,
Dcroat,
uni018A,
Egrave,
Eacute,
Ecircumflex,
Ecaron,
Edieresis,
Emacron,
Ebreve,
Edotaccent,
Eogonek,
uni1EB8,
uni1EBA,
uni1EBC,
uni1EBE,
uni1EC0,
uni1EC2,
uni1EC4,
uni1EC6,
uni1E16,
uni01F4,
Gcircumflex,
Gbreve,
Gdotaccent,
uni0122,
Gcaron,
uni1E20,
uni00470303,
uni0193,
Hcircumflex,
uni1E26,
uni1E24,
uni1E28,
uni1E2A,
Hbar,
Igrave,
Iacute,
Icircumflex,
Itilde,
Idieresis,
Imacron,
Idotaccent,
uni01CF,
Iogonek,
uni1EC8,
uni1ECA,
Ibreve,
Jcircumflex,
uni0136,
uni1E32,
uni1E34,
Lacute,
Lcaron,
uni013B,
uni1E36,
uni1E38,
uni1E3A,
Lslash,
Ldot,
uni1E3E,
uni1E40,
uni1E42,
Nacute,
uni01F8,
Ncaron,
Ntilde,
uni0145,
uni1E44,
uni1E46,
uni1E48,
Ograve,
Oacute,
Ocircumflex,
Otilde,
Odieresis,
Omacron,
Ohungarumlaut,
Obreve,
uni01D1,
uni01EA,
uni1ECC,
uni1ECE,
uni1ED0,
uni1ED2,
uni1ED4,
uni1ED6,
uni1ED8,
Ohorn,
uni1EDA,
uni1EDC,
uni1EDE,
uni1EE0,
uni1EE2,
uni1E52,
Oslash,
Oslashacute,
OE,
Racute,
Rcaron,
uni1E58,
uni0156,
uni1E5A,
uni1E5C,
uni1E5E,
Sacute,
Scircumflex,
Scaron,
uni015E,
uni0218,
uni1E60,
uni1E62,
uni1E9E,

glyphs = (
{
glyphname = .notdef;
layers = (
{
layerId = m01;
shapes = (
{
closed = 1;
nodes = (
(538,660,l),
(62,660,l),
(62,0,l),
(538,0,l)
);
},
{
closed = 1;
nodes = (
(298,293,l),
(302,293,l),
(354,190,l),
(427,58,l),
(170,58,l),
(244,190,l)
);
},
{
closed = 1;
nodes = (
(255,340,l),
(127,110,l),
(127,572,l)
);
},
{
closed = 1;
nodes = (
(182,600,l),
(417,600,l),
(351,481,l),
(302,387,l),
(298,387,l),
(248,481,l)
);
},
{
closed = 1;
nodes = (
(472,110,l),
(345,340,l),
(472,572,l)
);
}
);
userData = {
assembly = "SVTCA[0]	/* SetFreedomAndProjectionVectorToAxis */
PUSHW[ ]	/* 1 value pushed */
0 
RCVT[ ]	/* ReadCVT */
IF[ ]	/* If */
PUSHW[ ]	/* 1 value pushed */
1 
MDAP[1]	/* MoveDirectAbsPt */
ELSE[ ]	/* Else */
PUSHW[ ]	/* 2 values pushed */
1 13 
MIAP[0]	/* MoveIndirectAbsPt */
EIF[ ]	/* EndIf */
PUSHW[ ]	/* 1 value pushed */
0 
RCVT[ ]	/* ReadCVT */
IF[ ]	/* If */
PUSHW[ ]	/* 1 value pushed */
3 
MDAP[1]	/* MoveDirectAbsPt */
ELSE[ ]	/* Else */
PUSHW[ ]	/* 2 values pushed */
3 3 
MIAP[0]	/* MoveIndirectAbsPt */
EIF[ ]	/* EndIf */
PUSHW[ ]	/* 2 values pushed */
5 1 
MIRP[10100]	/* MoveIndirectRelPt */
PUSHW[ ]	/* 1 value pushed */
7 
MDRP[11100]	/* MoveDirectRelPt */
PUSHW[ ]	/* 1 value pushed */
1 
SRP0[ ]	/* SetRefPoint0 */
PUSHW[ ]	/* 2 values pushed */
16 1 
MIRP[10100]	/* MoveIndirectRelPt */
PUSHW[ ]	/* 1 value pushed */
14 
MDRP[11100]	/* MoveDirectRelPt */
IUP[0]	/* InterpolateUntPts */
IUP[1]	/* InterpolateUntPts */";
};
width = 600;
}
);
note = .notdef;
},
{
glyphname = A;
layers = (
{
layerId = m01;
shapes = (
{
closed = 1;
nodes = (
(281,531,o),
(297,588,q),
(301,588,l),
(316,531,o),
(349,422,o),
(366,367,qs),
(397,267,l),
(201,267,l),
(232,367,ls),
(249,422,o)
);
},
{
closed = 1;
nodes = (
(180,200,l),
(418,200,l),
(480,0,l),
(568,0,l),
(347,656,l),
(253,656,l),
(32,0,l),
(117,0,l)
);
}
);
userData = {
assembly = "SVTCA[0]	/* SetFreedomAndProjectionVectorToAxis */
PUSHW[ ]	/* 1 value pushed */
0 
RCVT[ ]	/* ReadCVT */
IF[ ]	/* If */
PUSHW[ ]	/* 1 value pushed */
11 
MDAP[1]	/* MoveDirectAbsPt */
ELSE[ ]	/* Else */
PUSHW[ ]	/* 2 values pushed */
11 13 
MIAP[0]	/* MoveIndirectAbsPt */
EIF[ ]	/* EndIf */
PUSHW[ ]	/* 1 value pushed */
0 
RCVT[ ]	/* ReadCVT */
IF[ ]	/* If */
PUSHW[ ]	/* 1 value pushed */
10 
MDAP[1]	/* MoveDirectAbsPt */
ELSE[ ]	/* Else */
PUSHW[ ]	/* 2 values pushed */
10 3 
MIAP[0]	/* MoveIndirectAbsPt */
EIF[ ]	/* EndIf */
PUSHW[ ]	/* 3 values pushed */
2 11 10 
SRP1[ ]	/* SetRefPoint1 */
SRP2[ ]	/* SetRefPoint2 */
IP[ ]	/* InterpolatePts */
PUSHW[ ]	/* 1 value pushed */
2 
MDAP[1]	/* MoveDirectAbsPt */
PUSHW[ ]	/* 3 values pushed */
7 11 10 
SRP1[ ]	/* SetRefPoint1 */
SRP2[ ]	/* SetRefPoint2 */
IP[ ]	/* InterpolatePts */
PUSHW[ ]	/* 1 value pushed */
10 
SRP0[ ]	/* SetRefPoint0 */
PUSHW[ ]	/* 1 value pushed */
14 
MDRP[10000]	/* MoveDirectRelPt */
PUSHW[ ]	/* 1 value pushed */
2 
SRP0[ ]	/* SetRefPoint0 */
PUSHW[ ]	/* 2 values pushed */
16 1 
MIRP[10100]	/* MoveIndirectRelPt */
IUP[0]	/* InterpolateUntPts */
IUP[1]	/* InterpolateUntPts */";
};
width = 600;
}
);
note = A;
unicode = 65;
},
{
glyphname = B;
layers = (
{
layerId = m01;
shapes = (
{
closed = 1;
nodes = (
(355,0,o),
(446,24,o),
(511,72,o),
(547,144,o),
(547,192,qs),
(547,260,o),
(467,338,o),
(395,349,q),
(395,353,l),
(454,368,o),
(510,447,o),
(510,496,qs),
(510,539,o),
(477,600,o),
(418,638,o),
(335,656,o),
(285,656,qs),
(99,656,l),
(99,0,l),
(300,0,ls)
);
},
{
closed = 1;
nodes = (
(275,586,ls),
(351,586,o),
(428,543,o),
(428,489,qs),
(428,434,o),
(355,380,o),
(271,380,qs),
(182,380,l),
(182,586,l)
);
},
{
closed = 1;
nodes = (
(288,310,ls),
(375,310,o),
(465,257,o),
(465,196,qs),
(465,129,o),
(373,70,o),
(288,70,qs),
(182,70,l),
(182,310,l)
);
}
);
userData = {
assembly = "SVTCA[0]	/* SetFreedomAndProjectionVectorToAxis */
PUSHW[ ]	/* 1 value pushed */
0 
RCVT[ ]	/* ReadCVT */
IF[ ]	/* If */
PUSHW[ ]	/* 1 value pushed */
1 
MDAP[1]	/* MoveDirectAbsPt */
ELSE[ ]	/* Else */
PUSHW[ ]	/* 2 values pushed */
1 13 
MIAP[0]	/* MoveIndirectAbsPt */
EIF[ ]	/* EndIf */
PUSHW[ ]	/* 1 value pushed */
0 
RCVT[ ]	/* ReadCVT */
IF[ ]	/* If */
PUSHW[ ]	/* 1 value pushed */
0 
MDAP[1]	/* MoveDirectAbsPt */
ELSE[ ]	/* Else */
PUSHW[ ]	/* 2 values pushed */
0 3 
MIAP[0]	/* MoveIndirectAbsPt */
EIF[ ]	/* EndIf */
PUSHW[ ]	/* 3 values pushed */
36 1 0 
SRP1[ ]	/* SetRefPoint1 */
SRP2[ ]	/* SetRefPoint2 */
IP[ ]	/* InterpolatePts */
PUSHW[ ]	/* 1 value pushed */
36 
MDAP[1]	/* MoveDirectAbsPt */
PUSHW[ ]	/* 2 values pushed */
20 1 
MIRP[10100]	/* MoveIndirectRelPt */
PUSHW[ ]	/* 3 values pushed */
10 20 36 
SRP1[ ]	/* SetRefPoint1 */
SRP2[ ]	/* SetRefPoint2 */
IP[ ]	/* InterpolatePts */
PUSHW[ ]	/* 1 value pushed */
1 
SRP0[ ]	/* SetRefPoint0 */
PUSHW[ ]	/* 2 values pushed */
27 1 
MIRP[10100]	/* MoveIndirectRelPt */
PUSHW[ ]	/* 1 value pushed */
0 
SRP0[ ]	/* SetRefPoint0 */
PUSHW[ ]	/* 2 values pushed */
30 1 
MIRP[10100]	/* MoveIndirectRelPt */
IUP[0]	/* InterpolateUntPts */
IUP[1]	/* InterpolateUntPts */";
};
width = 600;
}
);
note = B;
unicode = 66;
},
{
glyphname = C;
layers = (
{
layerId = m01;
shapes = (
{
closed = 1;
nodes = (
(515,38,o),
(554,83,q),
(507,134,l),
(475,99,o),
(404,61,o),
(359,61,qs),
(312,61,o),
(235,99,o),
(181,169,o),
(151,268,o),
(151,330,qs),
(151,391,o),
(181,489,o),
(235,558,o),
(312,595,o),
(359,595,qs),
(401,595,o),
(465,562,o),
(491,535,q),
(538,588,l),
(509,620,o),
(418,668,o),
(359,668,qs),
(295,668,o),
(187,621,o),
(109,533,o),
(65,407,o),
(65,328,qs),
(65,248,o),
(109,121,o),
(186,34,o),
(290,-12,o),
(351,-12,qs),
(417,-12,o)
);
}
);
userData = {
assembly = "SVTCA[0]	/* SetFreedomAndProjectionVectorToAxis */
PUSHW[ ]	/* 1 value pushed */
0 
RCVT[ ]	/* ReadCVT */
IF[ ]	/* If */
PUSHW[ ]	/* 1 value pushed */
10 
MDAP[1]	/* MoveDirectAbsPt */
ELSE[ ]	/* Else */
PUSHW[ ]	/* 2 values pushed */
10 13 
MIAP[0]	/* MoveIndirectAbsPt */
EIF[ ]	/* EndIf */
PUSHW[ ]	/* 1 value pushed */
0 
RCVT[ ]	/* ReadCVT */
IF[ ]	/* If */
PUSHW[ ]	/* 1 value pushed */
0 
MDAP[1]	/* MoveDirectAbsPt */
ELSE[ ]	/* Else */
PUSHW[ ]	/* 2 values pushed */
0 3 
MIAP[0]	/* MoveIndirectAbsPt */
EIF[ ]	/* EndIf */
PUSHW[ ]	/* 1 value pushed */
10 
SRP0[ ]	/* SetRefPoint0 */
PUSHW[ ]	/* 2 values pushed */
17 1 
MIRP[10100]	/* MoveIndirectRelPt */
PUSHW[ ]	/* 1 value pushed */
0 
SRP0[ ]	/* SetRefPoint0 */
PUSHW[ ]	/* 2 values pushed */
27 1 
MIRP[10100]	/* MoveIndirectRelPt */
IUP[0]	/* InterpolateUntPts */
IUP[1]	/* InterpolateUntPts */";
};
width = 600;
}
);
note = C;
unicode = 67;
},
{
glyphname = D;
layers = (
{
layerId = m01;
shapes = (
{
closed = 1;
nodes = (
(398,0,o),
(553,174,o),
(553,331,qs),
(553,488,o),
(398,656,o),
(249,656,qs),
(87,656,l),
(87,0,l),
(253,0,ls)
);
},
{
closed = 1;
nodes = (
(243,588,ls),
(356,588,o),
(467,456,o),
(467,331,qs),
(467,206,o),
(356,68,o),
(243,68,qs),
(170,68,l),
(170,588,l)
);
}
);
userData = {
assembly = "SVTCA[0]	/* SetFreedomAndProjectionVectorToAxis */
PUSHW[ ]	/* 1 value pushed */
0 
RCVT[ ]	/* ReadCVT */
IF[ ]	/* If */
PUSHW[ ]	/* 1 value pushed */
1 
MDAP[1]	/* MoveDirectAbsPt */
ELSE[ ]	/* Else */
PUSHW[ ]	/* 2 values pushed */
1 13 
MIAP[0]	/* MoveIndirectAbsPt */
EIF[ ]	/* EndIf */
PUSHW[ ]	/* 1 value pushed */
0 
RCVT[ ]	/* ReadCVT */
IF[ ]	/* If */
PUSHW[ ]	/* 1 value pushed */
0 
MDAP[1]	/* MoveDirectAbsPt */
ELSE[ ]	/* Else */
PUSHW[ ]	/* 2 values pushed */
0 3 
MIAP[0]	/* MoveIndirectAbsPt */
EIF[ ]	/* EndIf */
PUSHW[ ]	/* 2 values pushed */
10 1 
MIRP[10100]	/* MoveIndirectRelPt */
PUSHW[ ]	/* 1 value pushed */
1 
SRP0[ ]	/* SetRefPoint0 */
PUSHW[ ]	/* 2 values pushed */
16 1 
MIRP[10100]	/* MoveIndirectRelPt */
IUP[0]	/* InterpolateUntPts */
IUP[1]	/* InterpolateUntPts */";
};
width = 600;
}
);
note = D;
unicode = 68;
},
{
glyphname = E;
layers = (
{
layerId = m01;
shapes = (
{
closed = 1;
nodes = (
(530,71,l),
(198,71,l),
(198,309,l),
(470,309,l),
(470,380,l),
(198,380,l),
(198,586,l),
(520,586,l),
(520,656,l),
(114,656,l),
(114,0,l),
(530,0,l)
);
}
);
userData = {
assembly = "SVTCA[0]	/* SetFreedomAndProjectionVectorToAxis */
PUSHW[ ]	/* 1 value pushed */
0 
RCVT[ ]	/* ReadCVT */
IF[ ]	/* If */
PUSHW[ ]	/* 1 value pushed */
1 
MDAP[1]	/* MoveDirectAbsPt */
ELSE[ ]	/* Else */
PUSHW[ ]	/* 2 values pushed */
1 13 
MIAP[0]	/* MoveIndirectAbsPt */
EIF[ ]	/* EndIf */
PUSHW[ ]	/* 1 value pushed */
0 
RCVT[ ]	/* ReadCVT */
IF[ ]	/* If */
PUSHW[ ]	/* 1 value pushed */
0 
MDAP[1]	/* MoveDirectAbsPt */
ELSE[ ]	/* Else */
PUSHW[ ]	/* 2 values pushed */
0 3 
MIAP[0]	/* MoveIndirectAbsPt */
EIF[ ]	/* EndIf */
PUSHW[ ]	/* 1 value pushed */
1 
SRP0[ ]	/* SetRefPoint0 */
PUSHW[ ]	/* 2 values pushed */
3 1 
MIRP[10100]	/* MoveIndirectRelPt */
PUSHW[ ]	/* 3 values pushed */
7 1 0 
SRP1[ ]	/* SetRefPoint1 */
SRP2[ ]	/* SetRefPoint2 */
IP[ ]	/* InterpolatePts */
PUSHW[ ]	/* 1 value pushed */
7 
MDAP[1]	/* MoveDirectAbsPt */
PUSHW[ ]	/* 2 values pushed */
5 1 
MIRP[10100]	/* MoveIndirectRelPt */
PUSHW[ ]	/* 1 value pushed */
0 
SRP0[ ]	/* SetRefPoint0 */
PUSHW[ ]	/* 2 values pushed */
10 1 
MIRP[10100]	/* MoveIndirectRelPt */
IUP[0]	/* InterpolateUntPts */
IUP[1]	/* InterpolateUntPts */";
};
width = 600;
}
);
note = E;
unicode = 69;
},
{
glyphname = F;
layers = (
{
layerId = m01;
shapes = (
{
closed = 1;
nodes = (
(217,294,l),
(487,294,l),
(487,364,l),
(217,364,l),
(217,586,l),
(536,586,l),
(536,656,l),
(133,656,l),
(133,0,l),
(217,0,l)
);
}
);
userData = {
assembly = "SVTCA[0]	/* SetFreedomAndProjectionVectorToAxis */
PUSHW[ ]	/* 1 value pushed */
0 
RCVT[ ]	/* ReadCVT */
IF[ ]	/* If */
PUSHW[ ]	/* 1 value pushed */
1 
MDAP[1]	/* MoveDirectAbsPt */
ELSE[ ]	/* Else */
PUSHW[ ]	/* 2 values pushed */
1 13 
MIAP[0]	/* MoveIndirectAbsPt */
EIF[ ]	/* EndIf */
PUSHW[ ]	/* 1 value pushed */
0 
RCVT[ ]	/* ReadCVT */
IF[ ]	/* If */
PUSHW[ ]	/* 1 value pushed */
0 
MDAP[1]	/* MoveDirectAbsPt */
ELSE[ ]	/* Else */
PUSHW[ ]	/* 2 values pushed */
0 3 
MIAP[0]	/* MoveIndirectAbsPt */
EIF[ ]	/* EndIf */
PUSHW[ ]	/* 1 value pushed */
1 
SRP0[ ]	/* SetRefPoint0 */
PUSHW[ ]	/* 2 values pushed */
3 1 
MIRP[10100]	/* MoveIndirectRelPt */
PUSHW[ ]	/* 3 values pushed */
7 1 0 
SRP1[ ]	/* SetRefPoint1 */
SRP2[ ]	/* SetRefPoint2 */
IP[ ]	/* InterpolatePts */
PUSHW[ ]	/* 1 value pushed */
7 
MDAP[1]	/* MoveDirectAbsPt */
PUSHW[ ]	/* 2 values pushed */
5 1 
MIRP[10100]	/* MoveIndirectRelPt */
IUP[0]	/* InterpolateUntPts */
IUP[1]	/* InterpolateUntPts */";
};
width = 600;
}
);
note = F;
unicode = 70;
},
{
glyphname = G;
layers = (
{
layerId = m01;
shapes = (
{
closed = 1;
nodes = (
(502,32,o),
(533,64,q),
(533,340,l),
(325,340,l),
(325,271,l),
(456,271,l),
(456,100,l),
(437,82,o),
(377,61,o),
(342,61,qs),
(294,61,o),
(218,99,o),
(167,169,o),
(140,268,o),
(140,330,qs),
(140,391,o),
(169,489,o),
(223,558,o),
(298,595,o),
(344,595,qs),
(392,595,o),
(454,561,o),
(478,535,q),
(525,588,l),
(511,603,o),
(476,631,o),
(431,654,o),
(377,668,o),
(344,668,qs),
(280,668,o),
(173,621,o),
(96,534,o),
(53,407,o),
(53,328,qs),
(53,248,o),
(95,121,o),
(171,34,o),
(275,-12,o),
(337,-12,qs),
(401,-12,o)
);
}
);
userData = {
assembly = "SVTCA[0]	/* SetFreedomAndProjectionVectorToAxis */
PUSHW[ ]	/* 1 value pushed */
0 
RCVT[ ]	/* ReadCVT */
IF[ ]	/* If */
PUSHW[ ]	/* 1 value pushed */
10 
MDAP[1]	/* MoveDirectAbsPt */
ELSE[ ]	/* Else */
PUSHW[ ]	/* 2 values pushed */
10 13 
MIAP[0]	/* MoveIndirectAbsPt */
EIF[ ]	/* EndIf */
PUSHW[ ]	/* 1 value pushed */
0 
RCVT[ ]	/* ReadCVT */
IF[ ]	/* If */
PUSHW[ ]	/* 1 value pushed */
0 
MDAP[1]	/* MoveDirectAbsPt */
ELSE[ ]	/* Else */
PUSHW[ ]	/* 2 values pushed */
0 3 
MIAP[0]	/* MoveIndirectAbsPt */
EIF[ ]	/* EndIf */
PUSHW[ ]	/* 1 value pushed */
10 
SRP0[ ]	/* SetRefPoint0 */
PUSHW[ ]	/* 2 values pushed */
19 1 
MIRP[10100]	/* MoveIndirectRelPt */
PUSHW[ ]	/* 1 value pushed */
0 
SRP0[ ]	/* SetRefPoint0 */
PUSHW[ ]	/* 2 values pushed */
29 1 
MIRP[10100]	/* MoveIndirectRelPt */
PUSHW[ ]	/* 3 values pushed */
34 0 10 
SRP1[ ]	/* SetRefPoint1 */
SRP2[ ]	/* SetRefPoint2 */
IP[ ]	/* InterpolatePts */
PUSHW[ ]	/* 1 value pushed */
34 
MDAP[1]	/* MoveDirectAbsPt */
PUSHW[ ]	/* 2 values pushed */
35 1 
MIRP[10100]	/* MoveIndirectRelPt */
IUP[0]	/* InterpolateUntPts */
IUP[1]	/* InterpolateUntPts */";
};
width = 600;
}
);
note = G;
unicode = 71;
},
{
glyphname = H;
layers = (
{
layerId = m01;
shapes = (
{
closed = 1;
nodes = (
(163,309,l),
(437,309,l),
(437,0,l),
(521,0,l),
(521,656,l),
(437,656,l),
(437,381,l),
(163,381,l),
(163,656,l),
(79,656,l),
(79,0,l),
(163,0,l)
);
}
);
userData = {
assembly = "SVTCA[0]	/* SetFreedomAndProjectionVectorToAxis */
PUSHW[ ]	/* 1 value pushed */
0 
RCVT[ ]	/* ReadCVT */
IF[ ]	/* If */
PUSHW[ ]	/* 1 value pushed */
1 
MDAP[1]	/* MoveDirectAbsPt */
ELSE[ ]	/* Else */
PUSHW[ ]	/* 2 values pushed */
1 13 
MIAP[0]	/* MoveIndirectAbsPt */
EIF[ ]	/* EndIf */
PUSHW[ ]	/* 1 value pushed */
0 
RCVT[ ]	/* ReadCVT */
IF[ ]	/* If */
PUSHW[ ]	/* 1 value pushed */
0 
MDAP[1]	/* MoveDirectAbsPt */
ELSE[ ]	/* Else */
PUSHW[ ]	/* 2 values pushed */
0 3 
MIAP[0]	/* MoveIndirectAbsPt */
EIF[ ]	/* EndIf */
PUSHW[ ]	/* 3 values pushed */
10 0 1 
SRP1[ ]	/* SetRefPoint1 */
SRP2[ ]	/* SetRefPoint2 */
IP[ ]	/* InterpolatePts */
PUSHW[ ]	/* 1 value pushed */
10 
MDAP[1]	/* MoveDirectAbsPt */
PUSHW[ ]	/* 2 values pushed */
3 1 
MIRP[10100]	/* MoveIndirectRelPt */
PUSHW[ ]	/* 1 value pushed */
1 
SRP0[ ]	/* SetRefPoint0 */
PUSHW[ ]	/* 1 value pushed */
5 
MDRP[10000]	/* MoveDirectRelPt */
PUSHW[ ]	/* 1 value pushed */
0 
SRP0[ ]	/* SetRefPoint0 */
PUSHW[ ]	/* 1 value pushed */
8 
MDRP[10000]	/* MoveDirectRelPt */
IUP[0]	/* InterpolateUntPts */
IUP[1]	/* InterpolateUntPts */";
};
width = 600;
}
);
note = H;
unicode = 72;
},
{
glyphname = I;
layers = (
{
layerId = m01;
shapes = (
{
closed = 1;
nodes = (
(505,71,l),
(342,71,l),
(342,586,l),
(505,586,l),
(505,656,l),
(95,656,l),
(95,586,l),
(258,586,l),
(258,71,l),
(95,71,l),
(95,0,l),
(505,0,l)
);
}
);
userData = {
assembly = "SVTCA[0]	/* SetFreedomAndProjectionVectorToAxis */
PUSHW[ ]	/* 1 value pushed */
0 
RCVT[ ]	/* ReadCVT */
IF[ ]	/* If */
PUSHW[ ]	/* 1 value pushed */
5 
MDAP[1]	/* MoveDirectAbsPt */
ELSE[ ]	/* Else */
PUSHW[ ]	/* 2 values pushed */
5 13 
MIAP[0]	/* MoveIndirectAbsPt */
EIF[ ]	/* EndIf */
PUSHW[ ]	/* 1 value pushed */
0 
RCVT[ ]	/* ReadCVT */
IF[ ]	/* If */
PUSHW[ ]	/* 1 value pushed */
0 
MDAP[1]	/* MoveDirectAbsPt */
ELSE[ ]	/* Else */
PUSHW[ ]	/* 2 values pushed */
0 3 
MIAP[0]	/* MoveIndirectAbsPt */
EIF[ ]	/* EndIf */
PUSHW[ ]	/* 2 values pushed */
1 1 
MIRP[10100]	/* MoveIndirectRelPt */
PUSHW[ ]	/* 1 value pushed */
5 
SRP0[ ]	/* SetRefPoint0 */
PUSHW[ ]	/* 2 values pushed */
4 1 
MIRP[10100]	/* MoveIndirectRelPt */
PUSHW[ ]	/* 1 value pushed */
7 
MDRP[10000]	/* MoveDirectRelPt */
PUSHW[ ]	/* 1 value pushed */
1 
SRP0[ ]	/* SetRefPoint0 */
PUSHW[ ]	/* 1 value pushed */
10 
MDRP[10000]	/* MoveDirectRelPt */
IUP[0]	/* InterpolateUntPts */
IUP[1]	/* InterpolateUntPts */";
};
width = 600;
}
);
note = I;
unicode = 73;
},
{
glyphname = J;
layers = (
{
layerId = m01;
shapes = (
{
closed = 1;
nodes = (
(420,23,o),
(471,83,o),
(493,164,o),
(493,210,qs),
(493,657,l),
(135,657,l),
(135,587,l),
(410,587,l),
(410,217,ls),
(410,136,o),
(345,61,o),
(274,61,qs),
(236,61,o),
(161,103,o),
(133,148,q),
(81,97,l),
(115,40,o),
(221,-12,o),
(276,-12,qs),
(337,-12,o)
);
}
);
userData = {
assembly = "SVTCA[0]	/* SetFreedomAndProjectionVectorToAxis */
PUSHW[ ]	/* 1 value pushed */
0 
RCVT[ ]	/* ReadCVT */
IF[ ]	/* If */
PUSHW[ ]	/* 1 value pushed */
13 
MDAP[1]	/* MoveDirectAbsPt */
ELSE[ ]	/* Else */
PUSHW[ ]	/* 2 values pushed */
13 13 
MIAP[0]	/* MoveIndirectAbsPt */
EIF[ ]	/* EndIf */
PUSHW[ ]	/* 1 value pushed */
0 
RCVT[ ]	/* ReadCVT */
IF[ ]	/* If */
PUSHW[ ]	/* 1 value pushed */
0 
MDAP[1]	/* MoveDirectAbsPt */
ELSE[ ]	/* Else */
PUSHW[ ]	/* 2 values pushed */
0 3 
MIAP[0]	/* MoveIndirectAbsPt */
EIF[ ]	/* EndIf */
PUSHW[ ]	/* 2 values pushed */
7 1 
MIRP[10100]	/* MoveIndirectRelPt */
PUSHW[ ]	/* 1 value pushed */
13 
SRP0[ ]	/* SetRefPoint0 */
PUSHW[ ]	/* 2 values pushed */
11 1 
MIRP[10100]	/* MoveIndirectRelPt */
IUP[0]	/* InterpolateUntPts */
IUP[1]	/* InterpolateUntPts */";
};
width = 600;
}
);
note = J;
unicode = 74;
},
{
glyphname = K;
layers = (
{
layerId = m01;
shapes = (
{
closed = 1;
nodes = (
(182,209,l),
(295,344,l),
(486,0,l),
(580,0,l),
(348,407,l),
(556,656,l),
(461,656,l),
(185,327,l),
(182,327,l),
(182,656,l),
(98,656,l),
(98,0,l),
(182,0,l)
);
}
);
userData = {
assembly = "SVTCA[0]	/* SetFreedomAndProjectionVectorToAxis */
PUSHW[ ]	/* 1 value pushed */
0 
RCVT[ ]	/* ReadCVT */
IF[ ]	/* If */
PUSHW[ ]	/* 1 value pushed */
1 
MDAP[1]	/* MoveDirectAbsPt */
ELSE[ ]	/* Else */
PUSHW[ ]	/* 2 values pushed */
1 13 
MIAP[0]	/* MoveIndirectAbsPt */
EIF[ ]	/* EndIf */
PUSHW[ ]	/* 1 value pushed */
0 
RCVT[ ]	/* ReadCVT */
IF[ ]	/* If */
PUSHW[ ]	/* 1 value pushed */
0 
MDAP[1]	/* MoveDirectAbsPt */
ELSE[ ]	/* Else */
PUSHW[ ]	/* 2 values pushed */
0 3 
MIAP[0]	/* MoveIndirectAbsPt */
EIF[ ]	/* EndIf */
PUSHW[ ]	/* 3 values pushed */
3 1 0 
SRP1[ ]	/* SetRefPoint1 */
SRP2[ ]	/* SetRefPoint2 */
IP[ ]	/* InterpolatePts */
PUSHW[ ]	/* 1 value pushed */
1 
SRP0[ ]	/* SetRefPoint0 */
PUSHW[ ]	/* 1 value pushed */
6 
MDRP[10000]	/* MoveDirectRelPt */
PUSHW[ ]	/* 3 values pushed */
7 1 0 
SRP1[ ]	/* SetRefPoint1 */
SRP2[ ]	/* SetRefPoint2 */
IP[ ]	/* InterpolatePts */
PUSHW[ ]	/* 1 value pushed */
0 
SRP0[ ]	/* SetRefPoint0 */
PUSHW[ ]	/* 1 value pushed */
8 
MDRP[10000]	/* MoveDirectRelPt */
PUSHW[ ]	/* 3 values pushed */
10 0 1 
SRP1[ ]	/* SetRefPoint1 */
SRP2[ ]	/* SetRefPoint2 */
IP[ ]	/* InterpolatePts */
IUP[0]	/* InterpolateUntPts */
IUP[1]	/* InterpolateUntPts */";
};
width = 600;
}
);
note = K;
unicode = 75;
},
{
glyphname = L;
layers = (
{
layerId = m01;
shapes = (
{
closed = 1;
nodes = (
(541,71,l),
(216,71,l),
(216,656,l),
(134,656,l),
(134,0,l),
(541,0,l)
);
}
);
userData = {
assembly = "SVTCA[0]	/* SetFreedomAndProjectionVectorToAxis */
PUSHW[ ]	/* 1 value pushed */
0 
RCVT[ ]	/* ReadCVT */
IF[ ]	/* If */
PUSHW[ ]	/* 1 value pushed */
1 
MDAP[1]	/* MoveDirectAbsPt */
ELSE[ ]	/* Else */
PUSHW[ ]	/* 2 values pushed */
1 13 
MIAP[0]	/* MoveIndirectAbsPt */
EIF[ ]	/* EndIf */
PUSHW[ ]	/* 1 value pushed */
0 
RCVT[ ]	/* ReadCVT */
IF[ ]	/* If */
PUSHW[ ]	/* 1 value pushed */
0 
MDAP[1]	/* MoveDirectAbsPt */
ELSE[ ]	/* Else */
PUSHW[ ]	/* 2 values pushed */
0 3 
MIAP[0]	/* MoveIndirectAbsPt */
EIF[ ]	/* EndIf */
PUSHW[ ]	/* 2 values pushed */
3 1 
MIRP[10100]	/* MoveIndirectRelPt */
IUP[0]	/* InterpolateUntPts */
IUP[1]	/* InterpolateUntPts */";
};
width = 600;
}
);
note = L;
unicode = 76;
},
{
glyphname = M;
layers = (
{
layerId = m01;
shapes = (
{
closed = 1;
nodes = (
(150,328,ls),
(150,352,o),
(147,415,o),
(143,479,o),
(138,539,o),
(136,560,q),
(138,560,l),
(176,432,l),
(268,174,l),
(328,174,l),
(422,432,l),
(459,560,l),
(462,560,l),
(460,539,o),
(456,479,o),
(451,415,o),
(448,352,o),
(448,328,qs),
(448,0,l),
(528,0,l),
(528,656,l),
(426,656,l),
(333,376,l),
(302,270,l),
(298,270,l),
(266,376,l),
(174,656,l),
(72,656,l),
(72,0,l),
(150,0,l)
);
}
);
userData = {
assembly = "SVTCA[0]	/* SetFreedomAndProjectionVectorToAxis */
PUSHW[ ]	/* 1 value pushed */
0 
RCVT[ ]	/* ReadCVT */
IF[ ]	/* If */
PUSHW[ ]	/* 1 value pushed */
1 
MDAP[1]	/* MoveDirectAbsPt */
ELSE[ ]	/* Else */
PUSHW[ ]	/* 2 values pushed */
1 13 
MIAP[0]	/* MoveIndirectAbsPt */
EIF[ ]	/* EndIf */
PUSHW[ ]	/* 1 value pushed */
0 
RCVT[ ]	/* ReadCVT */
IF[ ]	/* If */
PUSHW[ ]	/* 1 value pushed */
0 
MDAP[1]	/* MoveDirectAbsPt */
ELSE[ ]	/* Else */
PUSHW[ ]	/* 2 values pushed */
0 3 
MIAP[0]	/* MoveIndirectAbsPt */
EIF[ ]	/* EndIf */
PUSHW[ ]	/* 3 values pushed */
5 0 1 
SRP1[ ]	/* SetRefPoint1 */
SRP2[ ]	/* SetRefPoint2 */
IP[ ]	/* InterpolatePts */
PUSHW[ ]	/* 1 value pushed */
1 
SRP0[ ]	/* SetRefPoint0 */
PUSHW[ ]	/* 1 value pushed */
7 
MDRP[10000]	/* MoveDirectRelPt */
PUSHW[ ]	/* 1 value pushed */
0 
SRP0[ ]	/* SetRefPoint0 */
PUSHW[ ]	/* 1 value pushed */
10 
MDRP[10000]	/* MoveDirectRelPt */
PUSHW[ ]	/* 3 values pushed */
16 0 1 
SRP1[ ]	/* SetRefPoint1 */
SRP2[ ]	/* SetRefPoint2 */
IP[ ]	/* InterpolatePts */
PUSHW[ ]	/* 3 values pushed */
20 1 0 
SRP1[ ]	/* SetRefPoint1 */
SRP2[ ]	/* SetRefPoint2 */
IP[ ]	/* InterpolatePts */
PUSHW[ ]	/* 3 values pushed */
23 1 0 
SRP1[ ]	/* SetRefPoint1 */
SRP2[ ]	/* SetRefPoint2 */
IP[ ]	/* InterpolatePts */
IUP[0]	/* InterpolateUntPts */
IUP[1]	/* InterpolateUntPts */";
};
width = 600;
}
);
note = M;
unicode = 77;
},
{
glyphname = N;
layers = (
{
layerId = m01;
shapes = (
{
closed = 1;
nodes = (
(162,343,ls),
(162,394,o),
(153,497,o),
(151,548,q),
(153,548,l),
(216,412,l),
(426,0,l),
(518,0,l),
(518,656,l),
(438,656,l),
(438,316,ls),
(438,264,o),
(447,157,o),
(449,108,q),
(447,108,l),
(384,244,l),
(174,656,l),
(82,656,l),
(82,0,l),
(162,0,l)
);
}
);
userData = {
assembly = "SVTCA[0]	/* SetFreedomAndProjectionVectorToAxis */
PUSHW[ ]	/* 1 value pushed */
0 
RCVT[ ]	/* ReadCVT */
IF[ ]	/* If */
PUSHW[ ]	/* 1 value pushed */
1 
MDAP[1]	/* MoveDirectAbsPt */
ELSE[ ]	/* Else */
PUSHW[ ]	/* 2 values pushed */
1 13 
MIAP[0]	/* MoveIndirectAbsPt */
EIF[ ]	/* EndIf */
PUSHW[ ]	/* 1 value pushed */
0 
RCVT[ ]	/* ReadCVT */
IF[ ]	/* If */
PUSHW[ ]	/* 1 value pushed */
0 
MDAP[1]	/* MoveDirectAbsPt */
ELSE[ ]	/* Else */
PUSHW[ ]	/* 2 values pushed */
0 3 
MIAP[0]	/* MoveIndirectAbsPt */
EIF[ ]	/* EndIf */
PUSHW[ ]	/* 3 values pushed */
5 0 1 
SRP1[ ]	/* SetRefPoint1 */
SRP2[ ]	/* SetRefPoint2 */
IP[ ]	/* InterpolatePts */
PUSHW[ ]	/* 1 value pushed */
1 
SRP0[ ]	/* SetRefPoint0 */
PUSHW[ ]	/* 1 value pushed */
9 
MDRP[10000]	/* MoveDirectRelPt */
PUSHW[ ]	/* 1 value pushed */
0 
SRP0[ ]	/* SetRefPoint0 */
PUSHW[ ]	/* 1 value pushed */
12 
MDRP[10000]	/* MoveDirectRelPt */
PUSHW[ ]	/* 3 values pushed */
15 1 0 
SRP1[ ]	/* SetRefPoint1 */
SRP2[ ]	/* SetRefPoint2 */
IP[ ]	/* InterpolatePts */
IUP[0]	/* InterpolateUntPts */
IUP[1]	/* InterpolateUntPts */";
};
width = 600;
}
);
note = N;
unicode = 78;
},
{
glyphname = O;
layers = (
{
layerId = m01;
shapes = (
{
closed = 1;
nodes = (
(448,35,o),
(515,123,o),
(552,250,o),
(552,331,qs),
(552,410,o),
(515,536,o),
(448,622,o),
(355,668,o),
(300,668,qs),
(244,668,o),
(152,622,o),
(85,536,o),
(48,410,o),
(48,331,qs),
(48,250,o),
(85,123,o),
(152,35,o),
(244,-12,o),
(300,-12,qs),
(355,-12,o)
);
},
{
closed = 1;
nodes = (
(201,98,o),
(158,168,o),
(134,268,o),
(134,331,qs),
(134,393,o),
(158,491,o),
(201,559,o),
(262,595,o),
(300,595,qs),
(337,595,o),
(399,559,o),
(442,491,o),
(466,393,o),
(466,331,qs),
(466,268,o),
(442,168,o),
(399,98,o),
(337,61,o),
(300,61,qs),
(262,61,o)
);
}
);
userData = {
assembly = "SVTCA[0]	/* SetFreedomAndProjectionVectorToAxis */
PUSHW[ ]	/* 1 value pushed */
0 
RCVT[ ]	/* ReadCVT */
IF[ ]	/* If */
PUSHW[ ]	/* 1 value pushed */
10 
MDAP[1]	/* MoveDirectAbsPt */
ELSE[ ]	/* Else */
PUSHW[ ]	/* 2 values pushed */
10 13 
MIAP[0]	/* MoveIndirectAbsPt */
EIF[ ]	/* EndIf */
PUSHW[ ]	/* 1 value pushed */
0 
RCVT[ ]	/* ReadCVT */
IF[ ]	/* If */
PUSHW[ ]	/* 1 value pushed */
0 
MDAP[1]	/* MoveDirectAbsPt */
ELSE[ ]	/* Else */
PUSHW[ ]	/* 2 values pushed */
0 3 
MIAP[0]	/* MoveIndirectAbsPt */
EIF[ ]	/* EndIf */
PUSHW[ ]	/* 2 values pushed */
20 1 
MIRP[10100]	/* MoveIndirectRelPt */
PUSHW[ ]	/* 1 value pushed */
10 
SRP0[ ]	/* SetRefPoint0 */
PUSHW[ ]	/* 2 values pushed */
30 1 
MIRP[10100]	/* MoveIndirectRelPt */
IUP[0]	/* InterpolateUntPts */
IUP[1]	/* InterpolateUntPts */";
};
width = 600;
}
);
note = O;
unicode = 79;
},
{
glyphname = P;
layers = (
{
layerId = m01;
shapes = (
{
closed = 1;
nodes = (
(185,260,l),
(300,260,ls),
(354,260,o),
(443,285,o),
(508,335,o),
(543,411,o),
(543,463,qs),
(543,517,o),
(508,591,o),
(444,636,o),
(354,656,o),
(300,656,qs),
(102,656,l),
(102,0,l),
(185,0,l)
);
},
{
closed = 1;
nodes = (
(290,589,ls),
(375,589,o),
(459,534,o),
(459,463,qs),
(459,393,o),
(377,328,o),
(290,328,qs),
(185,328,l),
(185,589,l)
);
}
);
userData = {
assembly = "SVTCA[0]	/* SetFreedomAndProjectionVectorToAxis */
PUSHW[ ]	/* 1 value pushed */
0 
RCVT[ ]	/* ReadCVT */
IF[ ]	/* If */
PUSHW[ ]	/* 1 value pushed */
1 
MDAP[1]	/* MoveDirectAbsPt */
ELSE[ ]	/* Else */
PUSHW[ ]	/* 2 values pushed */
1 13 
MIAP[0]	/* MoveIndirectAbsPt */
EIF[ ]	/* EndIf */
PUSHW[ ]	/* 1 value pushed */
0 
RCVT[ ]	/* ReadCVT */
IF[ ]	/* If */
PUSHW[ ]	/* 1 value pushed */
0 
MDAP[1]	/* MoveDirectAbsPt */
ELSE[ ]	/* Else */
PUSHW[ ]	/* 2 values pushed */
0 3 
MIAP[0]	/* MoveIndirectAbsPt */
EIF[ ]	/* EndIf */
PUSHW[ ]	/* 3 values pushed */
13 0 1 
SRP1[ ]	/* SetRefPoint1 */
SRP2[ ]	/* SetRefPoint2 */
IP[ ]	/* InterpolatePts */
PUSHW[ ]	/* 1 value pushed */
13 
MDAP[1]	/* MoveDirectAbsPt */
PUSHW[ ]	/* 2 values pushed */
15 1 
MIRP[10100]	/* MoveIndirectRelPt */
PUSHW[ ]	/* 1 value pushed */
1 
SRP0[ ]	/* SetRefPoint0 */
PUSHW[ ]	/* 2 values pushed */
23 1 
MIRP[10100]	/* MoveIndirectRelPt */
IUP[0]	/* InterpolateUntPts */
IUP[1]	/* InterpolateUntPts */";
};
width = 600;
}
);
note = P;
unicode = 80;
},
{
glyphname = Q;
layers = (
{
layerId = m01;
shapes = (
{
closed = 1;
nodes = (
(135,201,o),
(135,331,qs),
(135,455,o),
(224,597,o),
(300,597,qs),
(376,597,o),
(465,455,o),
(465,331,qs),
(465,201,o),
(376,57,o),
(300,57,qs),
(224,57,o)
);
},
{
closed = 1;
nodes = (
(538,-155,o),
(555,-149,q),
(539,-82,l),
(530,-86,o),
(505,-92,o),
(490,-92,qs),
(439,-92,o),
(365,-50,o),
(348,-7,q),
(394,2,o),
(468,57,o),
(521,143,o),
(550,260,o),
(550,331,qs),
(550,410,o),
(514,536,o),
(448,623,o),
(356,669,o),
(300,669,qs),
(244,669,o),
(152,623,o),
(86,536,o),
(50,410,o),
(50,331,qs),
(50,258,o),
(80,140,o),
(135,53,o),
(212,-1,o),
(260,-9,q),
(284,-75,o),
(394,-163,o),
(481,-163,qs),
(502,-163,o)
);
}
);
userData = {
assembly = "SVTCA[0]	/* SetFreedomAndProjectionVectorToAxis */
PUSHW[ ]	/* 1 value pushed */
0 
RCVT[ ]	/* ReadCVT */
IF[ ]	/* If */
PUSHW[ ]	/* 1 value pushed */
25 
MDAP[1]	/* MoveDirectAbsPt */
ELSE[ ]	/* Else */
PUSHW[ ]	/* 2 values pushed */
25 13 
MIAP[0]	/* MoveIndirectAbsPt */
EIF[ ]	/* EndIf */
PUSHW[ ]	/* 1 value pushed */
0 
RCVT[ ]	/* ReadCVT */
IF[ ]	/* If */
PUSHW[ ]	/* 1 value pushed */
15 
MDAP[1]	/* MoveDirectAbsPt */
ELSE[ ]	/* Else */
PUSHW[ ]	/* 2 values pushed */
15 3 
MIAP[0]	/* MoveIndirectAbsPt */
EIF[ ]	/* EndIf */
PUSHW[ ]	/* 4 values pushed */
38 1 12 4 
CALL[ ]	/* CallFunction */
PUSHW[ ]	/* 1 value pushed */
15 
SRP0[ ]	/* SetRefPoint0 */
PUSHW[ ]	/* 2 values pushed */
0 1 
MIRP[10100]	/* MoveIndirectRelPt */
PUSHW[ ]	/* 1 value pushed */
25 
SRP0[ ]	/* SetRefPoint0 */
PUSHW[ ]	/* 2 values pushed */
6 1 
MIRP[10100]	/* MoveIndirectRelPt */
PUSHW[ ]	/* 1 value pushed */
15 
SRP0[ ]	/* SetRefPoint0 */
PUSHW[ ]	/* 1 value pushed */
35 
MDRP[10000]	/* MoveDirectRelPt */
IUP[0]	/* InterpolateUntPts */
IUP[1]	/* InterpolateUntPts */";
};
width = 600;
}
);
note = Q;
unicode = 81;
},
{
glyphname = R;
layers = (
{
layerId = m01;
shapes = (
{
closed = 1;
nodes = (
(183,277,l),
(300,277,l),
(458,0,l),
(553,0,l),
(386,286,l),
(453,303,o),
(533,395,o),
(533,472,qs),
(533,523,o),
(499,593,o),
(438,637,o),
(354,656,o),
(304,656,qs),
(100,656,l),
(100,0,l),
(183,0,l)
);
},
{
closed = 1;
nodes = (
(292,589,ls),
(369,589,o),
(450,537,o),
(450,472,qs),
(450,408,o),
(369,345,o),
(292,345,qs),
(183,345,l),
(183,589,l)
);
}
);
userData = {
assembly = "SVTCA[0]	/* SetFreedomAndProjectionVectorToAxis */
PUSHW[ ]	/* 1 value pushed */
0 
RCVT[ ]	/* ReadCVT */
IF[ ]	/* If */
PUSHW[ ]	/* 1 value pushed */
1 
MDAP[1]	/* MoveDirectAbsPt */
ELSE[ ]	/* Else */
PUSHW[ ]	/* 2 values pushed */
1 13 
MIAP[0]	/* MoveIndirectAbsPt */
EIF[ ]	/* EndIf */
PUSHW[ ]	/* 1 value pushed */
0 
RCVT[ ]	/* ReadCVT */
IF[ ]	/* If */
PUSHW[ ]	/* 1 value pushed */
0 
MDAP[1]	/* MoveDirectAbsPt */
ELSE[ ]	/* Else */
PUSHW[ ]	/* 2 values pushed */
0 3 
MIAP[0]	/* MoveIndirectAbsPt */
EIF[ ]	/* EndIf */
PUSHW[ ]	/* 3 values pushed */
14 0 1 
SRP1[ ]	/* SetRefPoint1 */
SRP2[ ]	/* SetRefPoint2 */
IP[ ]	/* InterpolatePts */
PUSHW[ ]	/* 1 value pushed */
14 
MDAP[1]	/* MoveDirectAbsPt */
PUSHW[ ]	/* 2 values pushed */
16 1 
MIRP[10100]	/* MoveIndirectRelPt */
PUSHW[ ]	/* 3 values pushed */
10 14 16 
SRP1[ ]	/* SetRefPoint1 */
SRP2[ ]	/* SetRefPoint2 */
IP[ ]	/* InterpolatePts */
PUSHW[ ]	/* 1 value pushed */
0 
SRP0[ ]	/* SetRefPoint0 */
PUSHW[ ]	/* 1 value pushed */
12 
MDRP[10000]	/* MoveDirectRelPt */
PUSHW[ ]	/* 1 value pushed */
1 
SRP0[ ]	/* SetRefPoint0 */
PUSHW[ ]	/* 2 values pushed */
24 1 
MIRP[10100]	/* MoveIndirectRelPt */
IUP[0]	/* InterpolateUntPts */
IUP[1]	/* InterpolateUntPts */";
};
width = 600;
}
);
note = R;
unicode = 82;
},
{
glyphname = S;
layers = (
{
layerId = m01;
shapes = (
{
closed = 1;
nodes = (
(445,17,o),
(505,68,o),
(537,136,o),
(537,175,qs),
(537,211,o),
(514,266,o),
(475,307,o),
(422,338,o),
(392,350,qs),
(300,390,ls),
(279,399,o),
(237,417,o),
(204,442,o),
(183,475,o),
(183,499,qs),
(183,544,o),
(253,595,o),
(310,595,qs),
(361,595,o),
(439,562,o),
(471,533,q),
(515,587,l),
(479,623,o),
(375,668,o),
(313,668,qs),
(266,668,o),
(187,642,o),
(130,595,o),
(98,531,o),
(98,494,qs),
(98,458,o),
(124,403,o),
(165,363,o),
(215,335,o),
(240,325,qs),
(334,284,ls),
(359,273,o),
(402,253,o),
(434,227,o),
(452,191,o),
(452,165,qs),
(452,119,o),
(377,61,o),
(309,61,qs),
(252,61,o),
(154,106,o),
(117,143,q),
(67,85,l),
(112,40,o),
(233,-12,o),
(305,-12,qs),
(359,-12,o)
);
}
);
userData = {
assembly = "SVTCA[0]	/* SetFreedomAndProjectionVectorToAxis */
PUSHW[ ]	/* 1 value pushed */
0 
RCVT[ ]	/* ReadCVT */
IF[ ]	/* If */
PUSHW[ ]	/* 1 value pushed */
26 
MDAP[1]	/* MoveDirectAbsPt */
ELSE[ ]	/* Else */
PUSHW[ ]	/* 2 values pushed */
26 13 
MIAP[0]	/* MoveIndirectAbsPt */
EIF[ ]	/* EndIf */
PUSHW[ ]	/* 1 value pushed */
0 
RCVT[ ]	/* ReadCVT */
IF[ ]	/* If */
PUSHW[ ]	/* 1 value pushed */
0 
MDAP[1]	/* MoveDirectAbsPt */
ELSE[ ]	/* Else */
PUSHW[ ]	/* 2 values pushed */
0 3 
MIAP[0]	/* MoveIndirectAbsPt */
EIF[ ]	/* EndIf */
PUSHW[ ]	/* 2 values pushed */
7 1 
MIRP[10100]	/* MoveIndirectRelPt */
PUSHW[ ]	/* 3 values pushed */
15 26 0 
SRP1[ ]	/* SetRefPoint1 */
SRP2[ ]	/* SetRefPoint2 */
IP[ ]	/* InterpolatePts */
PUSHW[ ]	/* 1 value pushed */
26 
SRP0[ ]	/* SetRefPoint0 */
PUSHW[ ]	/* 2 values pushed */
33 1 
MIRP[10100]	/* MoveIndirectRelPt */
PUSHW[ ]	/* 3 values pushed */
41 0 26 
SRP1[ ]	/* SetRefPoint1 */
SRP2[ ]	/* SetRefPoint2 */
IP[ ]	/* InterpolatePts */
IUP[0]	/* InterpolateUntPts */
IUP[1]	/* InterpolateUntPts */";
};
width = 600;
}
);
note = S;
unicode = 83;
},
{
glyphname = T;
layers = (
{
layerId = m01;
shapes = (
{
closed = 1;
nodes = (
(342,586,l),
(558,586,l),
(558,656,l),
(42,656,l),
(42,586,l),
(258,586,l),
(258,0,l),
(342,0,l)
);
}
);
userData = {
assembly = "SVTCA[0]	/* SetFreedomAndProjectionVectorToAxis */
PUSHW[ ]	/* 1 value pushed */
0 
RCVT[ ]	/* ReadCVT */
IF[ ]	/* If */
PUSHW[ ]	/* 1 value pushed */
3 
MDAP[1]	/* MoveDirectAbsPt */
ELSE[ ]	/* Else */
PUSHW[ ]	/* 2 values pushed */
3 13 
MIAP[0]	/* MoveIndirectAbsPt */
EIF[ ]	/* EndIf */
PUSHW[ ]	/* 1 value pushed */
0 
RCVT[ ]	/* ReadCVT */
IF[ ]	/* If */
PUSHW[ ]	/* 1 value pushed */
0 
MDAP[1]	/* MoveDirectAbsPt */
ELSE[ ]	/* Else */
PUSHW[ ]	/* 2 values pushed */
0 3 
MIAP[0]	/* MoveIndirectAbsPt */
EIF[ ]	/* EndIf */
PUSHW[ ]	/* 1 value pushed */
3 
SRP0[ ]	/* SetRefPoint0 */
PUSHW[ ]	/* 2 values pushed */
2 1 
MIRP[10100]	/* MoveIndirectRelPt */
PUSHW[ ]	/* 1 value pushed */
6 
MDRP[10000]	/* MoveDirectRelPt */
IUP[0]	/* InterpolateUntPts */
IUP[1]	/* InterpolateUntPts */";
};
width = 600;
}
);
note = T;
unicode = 84;
},
{
glyphname = U;
layers = (
{
layerId = m01;
shapes = (
{
closed = 1;
nodes = (
(430,16,o),
(488,79,o),
(521,177,o),
(521,248,qs),
(521,656,l),
(440,656,l),
(440,246,ls),
(440,195,o),
(419,124,o),
(381,81,o),
(331,61,o),
(301,61,qs),
(271,61,o),
(221,81,o),
(184,124,o),
(163,195,o),
(163,246,qs),
(163,656,l),
(79,656,l),
(79,248,ls),
(79,177,o),
(112,79,o),
(171,16,o),
(253,-12,o),
(301,-12,qs),
(349,-12,o)
);
}
);
userData = {
assembly = "SVTCA[0]	/* SetFreedomAndProjectionVectorToAxis */
PUSHW[ ]	/* 1 value pushed */
0 
RCVT[ ]	/* ReadCVT */
IF[ ]	/* If */
PUSHW[ ]	/* 1 value pushed */
6 
MDAP[1]	/* MoveDirectAbsPt */
ELSE[ ]	/* Else */
PUSHW[ ]	/* 2 values pushed */
6 13 
MIAP[0]	/* MoveIndirectAbsPt */
EIF[ ]	/* EndIf */
PUSHW[ ]	/* 1 value pushed */
0 
RCVT[ ]	/* ReadCVT */
IF[ ]	/* If */
PUSHW[ ]	/* 1 value pushed */
0 
MDAP[1]	/* MoveDirectAbsPt */
ELSE[ ]	/* Else */
PUSHW[ ]	/* 2 values pushed */
0 3 
MIAP[0]	/* MoveIndirectAbsPt */
EIF[ ]	/* EndIf */
PUSHW[ ]	/* 2 values pushed */
13 1 
MIRP[10100]	/* MoveIndirectRelPt */
PUSHW[ ]	/* 1 value pushed */
6 
SRP0[ ]	/* SetRefPoint0 */
PUSHW[ ]	/* 1 value pushed */
19 
MDRP[10000]	/* MoveDirectRelPt */
IUP[0]	/* InterpolateUntPts */
IUP[1]	/* InterpolateUntPts */";
};
width = 600;
}
);
note = U;
unicode = 85;
},
{
glyphname = V;
layers = (
{
layerId = m01;
shapes = (
{
closed = 1;
nodes = (
(557,656,l),
(472,656,l),
(367,302,ls),
(359,273,o),
(344,219,o),
(329,167,o),
(313,114,o),
(304,85,q),
(300,85,l),
(282,143,o),
(254,243,o),
(237,302,qs),
(131,656,l),
(43,656,l),
(252,0,l),
(349,0,l)
);
}
);
userData = {
assembly = "SVTCA[0]	/* SetFreedomAndProjectionVectorToAxis */
PUSHW[ ]	/* 1 value pushed */
0 
RCVT[ ]	/* ReadCVT */
IF[ ]	/* If */
PUSHW[ ]	/* 1 value pushed */
1 
MDAP[1]	/* MoveDirectAbsPt */
ELSE[ ]	/* Else */
PUSHW[ ]	/* 2 values pushed */
1 13 
MIAP[0]	/* MoveIndirectAbsPt */
EIF[ ]	/* EndIf */
PUSHW[ ]	/* 1 value pushed */
0 
RCVT[ ]	/* ReadCVT */
IF[ ]	/* If */
PUSHW[ ]	/* 1 value pushed */
0 
MDAP[1]	/* MoveDirectAbsPt */
ELSE[ ]	/* Else */
PUSHW[ ]	/* 2 values pushed */
0 3 
MIAP[0]	/* MoveIndirectAbsPt */
EIF[ ]	/* EndIf */
PUSHW[ ]	/* 3 values pushed */
6 0 1 
SRP1[ ]	/* SetRefPoint1 */
SRP2[ ]	/* SetRefPoint2 */
IP[ ]	/* InterpolatePts */
PUSHW[ ]	/* 1 value pushed */
6 
MDAP[1]	/* MoveDirectAbsPt */
PUSHW[ ]	/* 1 value pushed */
1 
SRP0[ ]	/* SetRefPoint0 */
PUSHW[ ]	/* 1 value pushed */
13 
MDRP[10000]	/* MoveDirectRelPt */
IUP[0]	/* InterpolateUntPts */
IUP[1]	/* InterpolateUntPts */";
};
width = 600;
}
);
note = V;
unicode = 86;
},
{
glyphname = W;
layers = (
{
layerId = m01;
shapes = (
{
closed = 1;
nodes = (
(276,264,ls),
(284,294,o),
(294,352,o),
(299,382,q),
(302,382,l),
(307,352,o),
(318,294,o),
(326,264,qs),
(390,0,l),
(494,0,l),
(590,657,l),
(500,657,l),
(454,244,ls),
(452,224,o),
(449,190,o),
(446,155,o),
(443,117,o),
(442,93,q),
(438,93,l),
(433,117,o),
(426,155,o),
(419,190,o),
(411,224,o),
(406,244,qs),
(344,488,l),
(264,488,l),
(200,244,ls),
(195,224,o),
(187,190,o),
(180,155,o),
(172,117,o),
(168,93,q),
(165,93,l),
(164,117,o),
(161,155,o),
(158,190,o),
(154,224,o),
(152,245,qs),
(104,657,l),
(10,657,l),
(110,0,l),
(212,0,l)
);
}
);
userData = {
assembly = "SVTCA[0]	/* SetFreedomAndProjectionVectorToAxis */
PUSHW[ ]	/* 1 value pushed */
0 
RCVT[ ]	/* ReadCVT */
IF[ ]	/* If */
PUSHW[ ]	/* 1 value pushed */
1 
MDAP[1]	/* MoveDirectAbsPt */
ELSE[ ]	/* Else */
PUSHW[ ]	/* 2 values pushed */
1 13 
MIAP[0]	/* MoveIndirectAbsPt */
EIF[ ]	/* EndIf */
PUSHW[ ]	/* 1 value pushed */
0 
RCVT[ ]	/* ReadCVT */
IF[ ]	/* If */
PUSHW[ ]	/* 1 value pushed */
0 
MDAP[1]	/* MoveDirectAbsPt */
ELSE[ ]	/* Else */
PUSHW[ ]	/* 2 values pushed */
0 3 
MIAP[0]	/* MoveIndirectAbsPt */
EIF[ ]	/* EndIf */
PUSHW[ ]	/* 3 values pushed */
8 1 0 
SRP1[ ]	/* SetRefPoint1 */
SRP2[ ]	/* SetRefPoint2 */
IP[ ]	/* InterpolatePts */
PUSHW[ ]	/* 3 values pushed */
16 1 0 
SRP1[ ]	/* SetRefPoint1 */
SRP2[ ]	/* SetRefPoint2 */
IP[ ]	/* InterpolatePts */
PUSHW[ ]	/* 3 values pushed */
22 0 1 
SRP1[ ]	/* SetRefPoint1 */
SRP2[ ]	/* SetRefPoint2 */
IP[ ]	/* InterpolatePts */
PUSHW[ ]	/* 1 value pushed */
1 
SRP0[ ]	/* SetRefPoint0 */
PUSHW[ ]	/* 1 value pushed */
29 
MDRP[10000]	/* MoveDirectRelPt */
PUSHW[ ]	/* 1 value pushed */
0 
SRP0[ ]	/* SetRefPoint0 */
PUSHW[ ]	/* 1 value pushed */
32 
MDRP[10000]	/* MoveDirectRelPt */
PUSHW[ ]	/* 3 values pushed */
37 0 1 
SRP1[ ]	/* SetRefPoint1 */
SRP2[ ]	/* SetRefPoint2 */
IP[ ]	/* InterpolatePts */
IUP[0]	/* InterpolateUntPts */
IUP[1]	/* InterpolateUntPts */";
};
width = 600;
}
);
note = W;
unicode = 87;
},
{
glyphname = X;
layers = (
{
layerId = m01;
shapes = (
{
closed = 1;
nodes = (
(240,177,ls),
(253,201,o),
(279,252,o),
(293,282,q),
(297,282,l),
(314,252,o),
(341,201,o),
(355,177,qs),
(454,0,l),
(546,0,l),
(350,335,l),
(533,656,l),
(445,656,l),
(355,488,ls),
(343,465,o),
(322,422,o),
(308,393,q),
(304,393,l),
(288,422,o),
(264,465,o),
(251,488,qs),
(159,656,l),
(67,656,l),
(250,339,l),
(54,0,l),
(142,0,l)
);
}
);
userData = {
assembly = "SVTCA[0]	/* SetFreedomAndProjectionVectorToAxis */
PUSHW[ ]	/* 1 value pushed */
0 
RCVT[ ]	/* ReadCVT */
IF[ ]	/* If */
PUSHW[ ]	/* 1 value pushed */
3 
MDAP[1]	/* MoveDirectAbsPt */
ELSE[ ]	/* Else */
PUSHW[ ]	/* 2 values pushed */
3 13 
MIAP[0]	/* MoveIndirectAbsPt */
EIF[ ]	/* EndIf */
PUSHW[ ]	/* 1 value pushed */
0 
RCVT[ ]	/* ReadCVT */
IF[ ]	/* If */
PUSHW[ ]	/* 1 value pushed */
25 
MDAP[1]	/* MoveDirectAbsPt */
ELSE[ ]	/* Else */
PUSHW[ ]	/* 2 values pushed */
25 3 
MIAP[0]	/* MoveIndirectAbsPt */
EIF[ ]	/* EndIf */
PUSHW[ ]	/* 3 values pushed */
1 25 3 
SRP1[ ]	/* SetRefPoint1 */
SRP2[ ]	/* SetRefPoint2 */
IP[ ]	/* InterpolatePts */
PUSHW[ ]	/* 3 values pushed */
7 25 3 
SRP1[ ]	/* SetRefPoint1 */
SRP2[ ]	/* SetRefPoint2 */
IP[ ]	/* InterpolatePts */
PUSHW[ ]	/* 1 value pushed */
3 
SRP0[ ]	/* SetRefPoint0 */
PUSHW[ ]	/* 1 value pushed */
12 
MDRP[10000]	/* MoveDirectRelPt */
PUSHW[ ]	/* 3 values pushed */
14 25 3 
SRP1[ ]	/* SetRefPoint1 */
SRP2[ ]	/* SetRefPoint2 */
IP[ ]	/* InterpolatePts */
PUSHW[ ]	/* 1 value pushed */
25 
SRP0[ ]	/* SetRefPoint0 */
PUSHW[ ]	/* 1 value pushed */
16 
MDRP[10000]	/* MoveDirectRelPt */
PUSHW[ ]	/* 3 values pushed */
21 25 3 
SRP1[ ]	/* SetRefPoint1 */
SRP2[ ]	/* SetRefPoint2 */
IP[ ]	/* InterpolatePts */
IUP[0]	/* InterpolateUntPts */
IUP[1]	/* InterpolateUntPts */";
};
width = 600;
}
);
note = X;
unicode = 88;
},
{
glyphname = Y;
layers = (
{
layerId = m01;
shapes = (
{
closed = 1;
nodes = (
(342,234,l),
(562,656,l),
(476,656,l),
(381,462,ls),
(362,424,o),
(324,348,o),
(304,308,q),
(300,308,l),
(280,348,o),
(244,423,o),
(225,461,qs),
(126,656,l),
(38,656,l),
(258,234,l),
(258,0,l),
(342,0,l)
);
}
);
userData = {
assembly = "SVTCA[0]	/* SetFreedomAndProjectionVectorToAxis */
PUSHW[ ]	/* 1 value pushed */
0 
RCVT[ ]	/* ReadCVT */
IF[ ]	/* If */
PUSHW[ ]	/* 1 value pushed */
2 
MDAP[1]	/* MoveDirectAbsPt */
ELSE[ ]	/* Else */
PUSHW[ ]	/* 2 values pushed */
2 13 
MIAP[0]	/* MoveIndirectAbsPt */
EIF[ ]	/* EndIf */
PUSHW[ ]	/* 1 value pushed */
0 
RCVT[ ]	/* ReadCVT */
IF[ ]	/* If */
PUSHW[ ]	/* 1 value pushed */
15 
MDAP[1]	/* MoveDirectAbsPt */
ELSE[ ]	/* Else */
PUSHW[ ]	/* 2 values pushed */
15 3 
MIAP[0]	/* MoveIndirectAbsPt */
EIF[ ]	/* EndIf */
PUSHW[ ]	/* 3 values pushed */
8 15 2 
SRP1[ ]	/* SetRefPoint1 */
SRP2[ ]	/* SetRefPoint2 */
IP[ ]	/* InterpolatePts */
PUSHW[ ]	/* 1 value pushed */
2 
SRP0[ ]	/* SetRefPoint0 */
PUSHW[ ]	/* 1 value pushed */
12 
MDRP[10000]	/* MoveDirectRelPt */
IUP[0]	/* InterpolateUntPts */
IUP[1]	/* InterpolateUntPts */";
};
width = 600;
}
);
note = Y;
unicode = 89;
},
{
glyphname = Z;
layers = (
{
layerId = m01;
shapes = (
{
closed = 1;
nodes = (
(539,71,l),
(167,71,l),
(534,607,l),
(534,657,l),
(97,657,l),
(97,587,l),
(431,587,l),
(65,50,l),
(65,0,l),
(539,0,l)
);
}
);
userData = {
assembly = "SVTCA[0]	/* SetFreedomAndProjectionVectorToAxis */
PUSHW[ ]	/* 1 value pushed */
0 
RCVT[ ]	/* ReadCVT */
IF[ ]	/* If */
PUSHW[ ]	/* 1 value pushed */
4 
MDAP[1]	/* MoveDirectAbsPt */
ELSE[ ]	/* Else */
PUSHW[ ]	/* 2 values pushed */
4 13 
MIAP[0]	/* MoveIndirectAbsPt */
EIF[ ]	/* EndIf */
PUSHW[ ]	/* 1 value pushed */
0 
RCVT[ ]	/* ReadCVT */
IF[ ]	/* If */
PUSHW[ ]	/* 1 value pushed */
9 
MDAP[1]	/* MoveDirectAbsPt */
ELSE[ ]	/* Else */
PUSHW[ ]	/* 2 values pushed */
9 3 
MIAP[0]	/* MoveIndirectAbsPt */
EIF[ ]	/* EndIf */
PUSHW[ ]	/* 2 values pushed */
7 1 
MIRP[10100]	/* MoveIndirectRelPt */
PUSHW[ ]	/* 1 value pushed */
1 
MDRP[10000]	/* MoveDirectRelPt */
PUSHW[ ]	/* 1 value pushed */
4 
SRP0[ ]	/* SetRefPoint0 */
PUSHW[ ]	/* 2 values pushed */
2 1 
MIRP[10100]	/* MoveIndirectRelPt */
PUSHW[ ]	/* 1 value pushed */
6 
MDRP[10000]	/* MoveDirectRelPt */
IUP[0]	/* InterpolateUntPts */
IUP[1]	/* InterpolateUntPts */";
};
width = 600;
}
);
note = Z;
unicode = 90;
},
{
glyphname = a;
layers = (
{
layerId = m01;
shapes = (
{
closed = 1;
nodes = (
(397,34,o),
(438,66,q),
(441,66,l),
(448,0,l),
(515,0,l),
(515,298,ls),
(515,389,o),
(418,498,o),
(318,498,qs),
(286,498,o),
(224,485,o),
(169,465,o),
(120,440,o),
(102,428,q),
(134,372,l),
(168,393,o),
(256,430,o),
(304,430,qs),
(339,430,o),
(388,410,o),
(418,377,o),
(432,333,o),
(433,308,q),
(339,300,o),
(205,272,o),
(120,228,o),
(81,167,o),
(81,126,qs),
(81,93,o),
(107,42,o),
(152,7,o),
(212,-12,o),
(246,-12,qs),
(298,-12,o)
);
},
{
closed = 1;
nodes = (
(208,63,o),
(179,82,o),
(161,111,o),
(161,132,qs),
(161,156,o),
(187,195,o),
(250,226,o),
(355,248,o),
(433,254,q),
(433,126,l),
(391,91,o),
(310,54,o),
(268,54,qs),
(247,54,o)
);
}
);
userData = {
assembly = "SVTCA[0]	/* SetFreedomAndProjectionVectorToAxis */
PUSHW[ ]	/* 1 value pushed */
0 
RCVT[ ]	/* ReadCVT */
IF[ ]	/* If */
PUSHW[ ]	/* 1 value pushed */
24 
MDAP[1]	/* MoveDirectAbsPt */
ELSE[ ]	/* Else */
PUSHW[ ]	/* 2 values pushed */
24 7 
MIAP[0]	/* MoveIndirectAbsPt */
EIF[ ]	/* EndIf */
PUSHW[ ]	/* 1 value pushed */
0 
RCVT[ ]	/* ReadCVT */
IF[ ]	/* If */
PUSHW[ ]	/* 1 value pushed */
0 
MDAP[1]	/* MoveDirectAbsPt */
ELSE[ ]	/* Else */
PUSHW[ ]	/* 2 values pushed */
0 3 
MIAP[0]	/* MoveIndirectAbsPt */
EIF[ ]	/* EndIf */
PUSHW[ ]	/* 3 values pushed */
10 24 0 
SRP1[ ]	/* SetRefPoint1 */
SRP2[ ]	/* SetRefPoint2 */
IP[ ]	/* InterpolatePts */
PUSHW[ ]	/* 1 value pushed */
10 
MDAP[1]	/* MoveDirectAbsPt */
PUSHW[ ]	/* 1 value pushed */
24 
SRP0[ ]	/* SetRefPoint0 */
PUSHW[ ]	/* 2 values pushed */
15 1 
MIRP[10100]	/* MoveIndirectRelPt */
PUSHW[ ]	/* 1 value pushed */
0 
SRP0[ ]	/* SetRefPoint0 */
PUSHW[ ]	/* 1 value pushed */
29 
MDRP[10000]	/* MoveDirectRelPt */
PUSHW[ ]	/* 1 value pushed */
29 
MDAP[1]	/* MoveDirectAbsPt */
PUSHW[ ]	/* 3 values pushed */
30 0 24 
SRP1[ ]	/* SetRefPoint1 */
SRP2[ ]	/* SetRefPoint2 */
IP[ ]	/* InterpolatePts */
PUSHW[ ]	/* 1 value pushed */
0 
SRP0[ ]	/* SetRefPoint0 */
PUSHW[ ]	/* 2 values pushed */
34 1 
MIRP[10100]	/* MoveIndirectRelPt */
PUSHW[ ]	/* 1 value pushed */
10 
SRP0[ ]	/* SetRefPoint0 */
PUSHW[ ]	/* 2 values pushed */
38 1 
MIRP[10100]	/* MoveIndirectRelPt */
IUP[0]	/* InterpolateUntPts */
IUP[1]	/* InterpolateUntPts */";
};
width = 600;
}
);
note = a;
unicode = 97;
},
{
glyphname = b;
layers = (
{
layerId = m01;
shapes = (
{
closed = 1;
nodes = (
(443,23,o),
(504,91,o),
(540,189,o),
(540,251,qs),
(540,307,o),
(514,398,o),
(463,463,o),
(387,498,o),
(338,498,qs),
(295,498,o),
(208,458,o),
(175,424,q),
(172,424,l),
(175,518,l),
(175,712,l),
(93,712,l),
(93,0,l),
(159,0,l),
(166,54,l),
(169,54,l),
(204,23,o),
(285,-12,o),
(320,-12,qs),
(363,-12,o)
);
},
{
closed = 1;
nodes = (
(210,83,o),
(175,114,q),
(175,356,l),
(213,394,o),
(286,429,o),
(318,429,qs),
(354,429,o),
(406,403,o),
(439,356,o),
(455,290,o),
(455,250,qs),
(455,205,o),
(433,133,o),
(393,84,o),
(339,57,o),
(307,57,qs),
(281,57,o)
);
}
);
userData = {
assembly = "SVTCA[0]	/* SetFreedomAndProjectionVectorToAxis */
PUSHW[ ]	/* 1 value pushed */
0 
RCVT[ ]	/* ReadCVT */
IF[ ]	/* If */
PUSHW[ ]	/* 1 value pushed */
14 
MDAP[1]	/* MoveDirectAbsPt */
ELSE[ ]	/* Else */
PUSHW[ ]	/* 2 values pushed */
14 7 
MIAP[0]	/* MoveIndirectAbsPt */
EIF[ ]	/* EndIf */
PUSHW[ ]	/* 1 value pushed */
0 
RCVT[ ]	/* ReadCVT */
IF[ ]	/* If */
PUSHW[ ]	/* 1 value pushed */
7 
MDAP[1]	/* MoveDirectAbsPt */
ELSE[ ]	/* Else */
PUSHW[ ]	/* 2 values pushed */
7 15 
MIAP[0]	/* MoveIndirectAbsPt */
EIF[ ]	/* EndIf */
PUSHW[ ]	/* 1 value pushed */
0 
RCVT[ ]	/* ReadCVT */
IF[ ]	/* If */
PUSHW[ ]	/* 1 value pushed */
0 
MDAP[1]	/* MoveDirectAbsPt */
ELSE[ ]	/* Else */
PUSHW[ ]	/* 2 values pushed */
0 3 
MIAP[0]	/* MoveIndirectAbsPt */
EIF[ ]	/* EndIf */
PUSHW[ ]	/* 3 values pushed */
4 0 14 
SRP1[ ]	/* SetRefPoint1 */
SRP2[ ]	/* SetRefPoint2 */
IP[ ]	/* InterpolatePts */
PUSHW[ ]	/* 1 value pushed */
6 
MDRP[10000]	/* MoveDirectRelPt */
PUSHW[ ]	/* 1 value pushed */
6 
MDAP[1]	/* MoveDirectAbsPt */
PUSHW[ ]	/* 3 values pushed */
10 14 0 
SRP1[ ]	/* SetRefPoint1 */
SRP2[ ]	/* SetRefPoint2 */
IP[ ]	/* InterpolatePts */
PUSHW[ ]	/* 1 value pushed */
0 
SRP0[ ]	/* SetRefPoint0 */
PUSHW[ ]	/* 2 values pushed */
24 1 
MIRP[10100]	/* MoveIndirectRelPt */
PUSHW[ ]	/* 1 value pushed */
14 
SRP0[ ]	/* SetRefPoint0 */
PUSHW[ ]	/* 2 values pushed */
34 1 
MIRP[10100]	/* MoveIndirectRelPt */
PUSHW[ ]	/* 1 value pushed */
10 
SRP0[ ]	/* SetRefPoint0 */
PUSHW[ ]	/* 2 values pushed */
37 1 
MIRP[10100]	/* MoveIndirectRelPt */
PUSHW[ ]	/* 1 value pushed */
4 
SRP0[ ]	/* SetRefPoint0 */
PUSHW[ ]	/* 2 values pushed */
38 1 
MIRP[10100]	/* MoveIndirectRelPt */
IUP[0]	/* InterpolateUntPts */
IUP[1]	/* InterpolateUntPts */";
};
width = 600;
}
);
note = b;
unicode = 98;
},
{
glyphname = c;
layers = (
{
layerId = m01;
shapes = (
{
closed = 1;
nodes = (
(498,28,o),
(539,64,q),
(502,117,l),
(472,91,o),
(397,56,o),
(352,56,qs),
(310,56,o),
(241,83,o),
(192,132,o),
(165,200,o),
(165,242,qs),
(165,284,o),
(193,353,o),
(242,403,o),
(312,430,o),
(354,430,qs),
(392,430,o),
(457,400,o),
(487,374,q),
(528,427,l),
(498,456,o),
(411,498,o),
(351,498,qs),
(296,498,o),
(197,464,o),
(123,398,o),
(80,303,o),
(80,242,qs),
(80,182,o),
(120,87,o),
(192,22,o),
(289,-12,o),
(346,-12,qs),
(400,-12,o)
);
}
);
userData = {
assembly = "SVTCA[0]	/* SetFreedomAndProjectionVectorToAxis */
PUSHW[ ]	/* 1 value pushed */
0 
RCVT[ ]	/* ReadCVT */
IF[ ]	/* If */
PUSHW[ ]	/* 1 value pushed */
10 
MDAP[1]	/* MoveDirectAbsPt */
ELSE[ ]	/* Else */
PUSHW[ ]	/* 2 values pushed */
10 7 
MIAP[0]	/* MoveIndirectAbsPt */
EIF[ ]	/* EndIf */
PUSHW[ ]	/* 1 value pushed */
0 
RCVT[ ]	/* ReadCVT */
IF[ ]	/* If */
PUSHW[ ]	/* 1 value pushed */
0 
MDAP[1]	/* MoveDirectAbsPt */
ELSE[ ]	/* Else */
PUSHW[ ]	/* 2 values pushed */
0 3 
MIAP[0]	/* MoveIndirectAbsPt */
EIF[ ]	/* EndIf */
PUSHW[ ]	/* 1 value pushed */
10 
SRP0[ ]	/* SetRefPoint0 */
PUSHW[ ]	/* 2 values pushed */
17 1 
MIRP[10100]	/* MoveIndirectRelPt */
PUSHW[ ]	/* 1 value pushed */
0 
SRP0[ ]	/* SetRefPoint0 */
PUSHW[ ]	/* 2 values pushed */
27 1 
MIRP[10100]	/* MoveIndirectRelPt */
IUP[0]	/* InterpolateUntPts */
IUP[1]	/* InterpolateUntPts */";
};
width = 600;
}
);
note = c;
unicode = 99;
},
{
glyphname = d;
layers = (
{
layerId = m01;
shapes = (
{
closed = 1;
nodes = (
(399,33,o),
(429,64,q),
(432,64,l),
(439,0,l),
(507,0,l),
(507,712,l),
(425,712,l),
(425,525,l),
(429,435,l),
(426,435,l),
(394,465,o),
(325,498,o),
(281,498,qs),
(238,498,o),
(158,462,o),
(97,396,o),
(60,301,o),
(60,242,qs),
(60,181,o),
(90,87,o),
(146,22,o),
(223,-12,o),
(271,-12,qs),
(316,-12,o)
);
},
{
closed = 1;
nodes = (
(145,155,o),
(145,243,qs),
(145,285,o),
(169,353,o),
(210,402,o),
(265,429,o),
(297,429,qs),
(329,429,o),
(392,403,o),
(425,372,q),
(425,130,l),
(360,57,o),
(288,57,qs),
(220,57,o)
);
}
);
userData = {
assembly = "SVTCA[0]	/* SetFreedomAndProjectionVectorToAxis */
PUSHW[ ]	/* 1 value pushed */
0 
RCVT[ ]	/* ReadCVT */
IF[ ]	/* If */
PUSHW[ ]	/* 1 value pushed */
10 
MDAP[1]	/* MoveDirectAbsPt */
ELSE[ ]	/* Else */
PUSHW[ ]	/* 2 values pushed */
10 7 
MIAP[0]	/* MoveIndirectAbsPt */
EIF[ ]	/* EndIf */
PUSHW[ ]	/* 1 value pushed */
0 
RCVT[ ]	/* ReadCVT */
IF[ ]	/* If */
PUSHW[ ]	/* 1 value pushed */
16 
MDAP[1]	/* MoveDirectAbsPt */
ELSE[ ]	/* Else */
PUSHW[ ]	/* 2 values pushed */
16 15 
MIAP[0]	/* MoveIndirectAbsPt */
EIF[ ]	/* EndIf */
PUSHW[ ]	/* 1 value pushed */
0 
RCVT[ ]	/* ReadCVT */
IF[ ]	/* If */
PUSHW[ ]	/* 1 value pushed */
0 
MDAP[1]	/* MoveDirectAbsPt */
ELSE[ ]	/* Else */
PUSHW[ ]	/* 2 values pushed */
0 3 
MIAP[0]	/* MoveIndirectAbsPt */
EIF[ ]	/* EndIf */
PUSHW[ ]	/* 3 values pushed */
13 10 0 
SRP1[ ]	/* SetRefPoint1 */
SRP2[ ]	/* SetRefPoint2 */
IP[ ]	/* InterpolatePts */
PUSHW[ ]	/* 1 value pushed */
19 
MDRP[10000]	/* MoveDirectRelPt */
PUSHW[ ]	/* 1 value pushed */
19 
MDAP[1]	/* MoveDirectAbsPt */
PUSHW[ ]	/* 3 values pushed */
21 0 10 
SRP1[ ]	/* SetRefPoint1 */
SRP2[ ]	/* SetRefPoint2 */
IP[ ]	/* InterpolatePts */
PUSHW[ ]	/* 1 value pushed */
0 
SRP0[ ]	/* SetRefPoint0 */
PUSHW[ ]	/* 2 values pushed */
24 1 
MIRP[10100]	/* MoveIndirectRelPt */
PUSHW[ ]	/* 1 value pushed */
21 
SRP0[ ]	/* SetRefPoint0 */
PUSHW[ ]	/* 2 values pushed */
26 1 
MIRP[10100]	/* MoveIndirectRelPt */
PUSHW[ ]	/* 1 value pushed */
13 
SRP0[ ]	/* SetRefPoint0 */
PUSHW[ ]	/* 2 values pushed */
27 1 
MIRP[10100]	/* MoveIndirectRelPt */
PUSHW[ ]	/* 1 value pushed */
10 
SRP0[ ]	/* SetRefPoint0 */
PUSHW[ ]	/* 2 values pushed */
30 1 
MIRP[10100]	/* MoveIndirectRelPt */
IUP[0]	/* InterpolateUntPts */
IUP[1]	/* InterpolateUntPts */";
};
width = 600;
}
);
note = d;
unicode = 100;
},
{
glyphname = e;
layers = (
{
layerId = m01;
shapes = (
{
closed = 1;
nodes = (
(482,22,o),
(518,46,q),
(488,100,l),
(455,79,o),
(384,54,o),
(340,54,qs),
(264,54,o),
(159,137,o),
(151,220,q),
(534,220,l),
(536,230,o),
(538,256,o),
(538,270,qs),
(538,321,o),
(508,405,o),
(451,465,o),
(368,498,o),
(316,498,qs),
(267,498,o),
(178,463,o),
(109,397,o),
(68,303,o),
(68,244,qs),
(68,183,o),
(109,88,o),
(180,22,o),
(275,-12,o),
(330,-12,qs),
(389,-12,o)
);
},
{
closed = 1;
nodes = (
(458,359,o),
(463,284,q),
(153,284,l),
(159,320,o),
(189,376,o),
(233,413,o),
(288,433,o),
(318,433,qs),
(381,433,o)
);
}
);
userData = {
assembly = "SVTCA[0]	/* SetFreedomAndProjectionVectorToAxis */
PUSHW[ ]	/* 1 value pushed */
0 
RCVT[ ]	/* ReadCVT */
IF[ ]	/* If */
PUSHW[ ]	/* 1 value pushed */
10 
MDAP[1]	/* MoveDirectAbsPt */
ELSE[ ]	/* Else */
PUSHW[ ]	/* 2 values pushed */
10 7 
MIAP[0]	/* MoveIndirectAbsPt */
EIF[ ]	/* EndIf */
PUSHW[ ]	/* 1 value pushed */
0 
RCVT[ ]	/* ReadCVT */
IF[ ]	/* If */
PUSHW[ ]	/* 1 value pushed */
0 
MDAP[1]	/* MoveDirectAbsPt */
ELSE[ ]	/* Else */
PUSHW[ ]	/* 2 values pushed */
0 3 
MIAP[0]	/* MoveIndirectAbsPt */
EIF[ ]	/* EndIf */
PUSHW[ ]	/* 3 values pushed */
19 10 0 
SRP1[ ]	/* SetRefPoint1 */
SRP2[ ]	/* SetRefPoint2 */
IP[ ]	/* InterpolatePts */
PUSHW[ ]	/* 1 value pushed */
19 
MDAP[1]	/* MoveDirectAbsPt */
PUSHW[ ]	/* 1 value pushed */
0 
SRP0[ ]	/* SetRefPoint0 */
PUSHW[ ]	/* 2 values pushed */
22 1 
MIRP[10100]	/* MoveIndirectRelPt */
PUSHW[ ]	/* 1 value pushed */
10 
SRP0[ ]	/* SetRefPoint0 */
PUSHW[ ]	/* 2 values pushed */
29 1 
MIRP[10100]	/* MoveIndirectRelPt */
PUSHW[ ]	/* 1 value pushed */
19 
SRP0[ ]	/* SetRefPoint0 */
PUSHW[ ]	/* 2 values pushed */
35 1 
MIRP[10100]	/* MoveIndirectRelPt */
IUP[0]	/* InterpolateUntPts */
IUP[1]	/* InterpolateUntPts */";
};
width = 600;
}
);
note = e;
unicode = 101;
},
{
glyphname = f;
lastChange = "2021-10-21 08:10:44 +0000";
layers = (
{
layerId = m01;
shapes = (
{
closed = 1;
nodes = (
(323,419,l),
(527,419,l),
(527,486,l),
(323,486,l),
(323,530,ls),
(323,590,o),
(380,657,o),
(446,657,q),
(527,657,l),
(527,725,l),
(433,725,l),
(332,725,o),
(242,616,o),
(242,527,qs),
(242,486,l),
(103,481,l),
(103,419,l),
(242,419,l),
(242,0,l),
(323,0,l)
);
}
);
userData = {
assembly = "SVTCA[0]	/* SetFreedomAndProjectionVectorToAxis */
PUSHW[ ]	/* 1 value pushed */
0 
RCVT[ ]	/* ReadCVT */
IF[ ]	/* If */
PUSHW[ ]	/* 1 value pushed */
8 
MDAP[1]	/* MoveDirectAbsPt */
ELSE[ ]	/* Else */
PUSHW[ ]	/* 2 values pushed */
8 15 
MIAP[0]	/* MoveIndirectAbsPt */
EIF[ ]	/* EndIf */
PUSHW[ ]	/* 1 value pushed */
0 
RCVT[ ]	/* ReadCVT */
IF[ ]	/* If */
PUSHW[ ]	/* 1 value pushed */
4 
MDAP[1]	/* MoveDirectAbsPt */
ELSE[ ]	/* Else */
PUSHW[ ]	/* 2 values pushed */
4 7 
MIAP[0]	/* MoveIndirectAbsPt */
EIF[ ]	/* EndIf */
PUSHW[ ]	/* 1 value pushed */
0 
RCVT[ ]	/* ReadCVT */
IF[ ]	/* If */
PUSHW[ ]	/* 1 value pushed */
0 
MDAP[1]	/* MoveDirectAbsPt */
ELSE[ ]	/* Else */
PUSHW[ ]	/* 2 values pushed */
0 3 
MIAP[0]	/* MoveIndirectAbsPt */
EIF[ ]	/* EndIf */
PUSHW[ ]	/* 1 value pushed */
4 
SRP0[ ]	/* SetRefPoint0 */
PUSHW[ ]	/* 2 values pushed */
1 1 
MIRP[10100]	/* MoveIndirectRelPt */
PUSHW[ ]	/* 1 value pushed */
8 
SRP0[ ]	/* SetRefPoint0 */
PUSHW[ ]	/* 2 values pushed */
14 1 
MIRP[10100]	/* MoveIndirectRelPt */
PUSHW[ ]	/* 1 value pushed */
4 
SRP0[ ]	/* SetRefPoint0 */
PUSHW[ ]	/* 1 value pushed */
18 
MDRP[10000]	/* MoveDirectRelPt */
PUSHW[ ]	/* 1 value pushed */
1 
SRP0[ ]	/* SetRefPoint0 */
PUSHW[ ]	/* 1 value pushed */
21 
MDRP[10000]	/* MoveDirectRelPt */
IUP[0]	/* InterpolateUntPts */
IUP[1]	/* InterpolateUntPts */";
};
width = 600;
}
);
note = f;
unicode = 102;
},
{
glyphname = g;
layers = (
{
layerId = m01;
shapes = (
{
closed = 1;
nodes = (
(458,-196,o),
(528,-150,o),
(566,-88,o),
(566,-54,qs),
(566,8,o),
(475,60,o),
(381,60,qs),
(272,60,ls),
(224,60,o),
(171,87,o),
(171,116,qs),
(171,148,o),
(209,172,q),
(229,163,o),
(272,154,o),
(291,154,qs),
(330,154,o),
(399,177,o),
(450,220,o),
(479,282,o),
(479,321,qs),
(479,350,o),
(455,402,o),
(438,419,q),
(564,419,l),
(564,486,l),
(363,486,l),
(331,498,o),
(291,498,qs),
(252,498,o),
(183,473,o),
(131,428,o),
(100,364,o),
(100,324,qs),
(100,280,o),
(135,217,o),
(160,198,q),
(160,194,l),
(132,175,o),
(102,126,o),
(102,103,qs),
(102,72,o),
(132,34,o),
(152,23,q),
(152,19,l),
(113,-4,o),
(72,-60,o),
(72,-89,qs),
(72,-154,o),
(189,-224,o),
(296,-224,qs),
(358,-224,o)
);
},
{
closed = 1;
nodes = (
(179,271,o),
(179,324,qs),
(179,349,o),
(197,391,o),
(227,421,o),
(268,438,o),
(291,438,qs),
(314,438,o),
(355,421,o),
(385,391,o),
(403,349,o),
(403,324,qs),
(403,271,o),
(338,209,o),
(291,209,qs),
(245,209,o)
);
},
{
closed = 1;
nodes = (
(143,-119,o),
(143,-81,qs),
(143,-60,o),
(170,-19,o),
(205,0,q),
(221,-5,o),
(258,-8,o),
(279,-8,qs),
(374,-8,ls),
(430,-8,o),
(485,-32,o),
(485,-67,qs),
(485,-86,o),
(460,-121,o),
(412,-148,o),
(344,-164,o),
(302,-164,qs),
(224,-164,o)
);
}
);
userData = {
assembly = "SVTCA[0]	/* SetFreedomAndProjectionVectorToAxis */
PUSHW[ ]	/* 1 value pushed */
0 
RCVT[ ]	/* ReadCVT */
IF[ ]	/* If */
PUSHW[ ]	/* 1 value pushed */
22 
MDAP[1]	/* MoveDirectAbsPt */
ELSE[ ]	/* Else */
PUSHW[ ]	/* 2 values pushed */
22 7 
MIAP[0]	/* MoveIndirectAbsPt */
EIF[ ]	/* EndIf */
PUSHW[ ]	/* 1 value pushed */
0 
RCVT[ ]	/* ReadCVT */
IF[ ]	/* If */
PUSHW[ ]	/* 1 value pushed */
0 
MDAP[1]	/* MoveDirectAbsPt */
ELSE[ ]	/* Else */
PUSHW[ ]	/* 2 values pushed */
0 5 
MIAP[0]	/* MoveIndirectAbsPt */
EIF[ ]	/* EndIf */
PUSHW[ ]	/* 1 value pushed */
0 
RCVT[ ]	/* ReadCVT */
IF[ ]	/* If */
PUSHW[ ]	/* 1 value pushed */
77 
MDAP[1]	/* MoveDirectAbsPt */
ELSE[ ]	/* Else */
PUSHW[ ]	/* 2 values pushed */
77 3 
MIAP[0]	/* MoveIndirectAbsPt */
EIF[ ]	/* EndIf */
PUSHW[ ]	/* 1 value pushed */
22 
SRP0[ ]	/* SetRefPoint0 */
PUSHW[ ]	/* 1 value pushed */
25 
MDRP[10000]	/* MoveDirectRelPt */
PUSHW[ ]	/* 1 value pushed */
25 
MDAP[1]	/* MoveDirectAbsPt */
PUSHW[ ]	/* 1 value pushed */
22 
SRP0[ ]	/* SetRefPoint0 */
PUSHW[ ]	/* 2 values pushed */
60 1 
MIRP[10100]	/* MoveIndirectRelPt */
PUSHW[ ]	/* 1 value pushed */
26 
MDRP[10000]	/* MoveDirectRelPt */
PUSHW[ ]	/* 1 value pushed */
26 
MDAP[1]	/* MoveDirectAbsPt */
PUSHW[ ]	/* 3 values pushed */
35 22 0 
SRP1[ ]	/* SetRefPoint1 */
SRP2[ ]	/* SetRefPoint2 */
IP[ ]	/* InterpolatePts */
PUSHW[ ]	/* 1 value pushed */
77 
SRP0[ ]	/* SetRefPoint0 */
PUSHW[ ]	/* 2 values pushed */
44 1 
MIRP[10100]	/* MoveIndirectRelPt */
PUSHW[ ]	/* 1 value pushed */
35 
SRP0[ ]	/* SetRefPoint0 */
PUSHW[ ]	/* 2 values pushed */
52 1 
MIRP[10100]	/* MoveIndirectRelPt */
PUSHW[ ]	/* 1 value pushed */
0 
SRP0[ ]	/* SetRefPoint0 */
PUSHW[ ]	/* 2 values pushed */
68 1 
MIRP[10100]	/* MoveIndirectRelPt */
IUP[0]	/* InterpolateUntPts */
IUP[1]	/* InterpolateUntPts */";
};
width = 600;
}
);
note = g;
unicode = 103;
},
{
glyphname = h;
layers = (
{
layerId = m01;
shapes = (
{
closed = 1;
nodes = (
(175,339,l),
(196,361,o),
(234,394,o),
(270,416,o),
(307,427,o),
(329,427,qs),
(389,427,o),
(441,360,o),
(441,291,qs),
(441,0,l),
(523,0,l),
(523,302,ls),
(523,399,o),
(442,498,o),
(355,498,qs),
(298,498,o),
(211,444,o),
(173,403,q),
(170,403,l),
(175,518,l),
(175,712,l),
(93,712,l),
(93,0,l),
(175,0,l)
);
}
);
userData = {
assembly = "SVTCA[0]	/* SetFreedomAndProjectionVectorToAxis */
PUSHW[ ]	/* 1 value pushed */
0 
RCVT[ ]	/* ReadCVT */
IF[ ]	/* If */
PUSHW[ ]	/* 1 value pushed */
1 
MDAP[1]	/* MoveDirectAbsPt */
ELSE[ ]	/* Else */
PUSHW[ ]	/* 2 values pushed */
1 15 
MIAP[0]	/* MoveIndirectAbsPt */
EIF[ ]	/* EndIf */
PUSHW[ ]	/* 1 value pushed */
0 
RCVT[ ]	/* ReadCVT */
IF[ ]	/* If */
PUSHW[ ]	/* 1 value pushed */
8 
MDAP[1]	/* MoveDirectAbsPt */
ELSE[ ]	/* Else */
PUSHW[ ]	/* 2 values pushed */
8 7 
MIAP[0]	/* MoveIndirectAbsPt */
EIF[ ]	/* EndIf */
PUSHW[ ]	/* 1 value pushed */
0 
RCVT[ ]	/* ReadCVT */
IF[ ]	/* If */
PUSHW[ ]	/* 1 value pushed */
0 
MDAP[1]	/* MoveDirectAbsPt */
ELSE[ ]	/* Else */
PUSHW[ ]	/* 2 values pushed */
0 3 
MIAP[0]	/* MoveIndirectAbsPt */
EIF[ ]	/* EndIf */
PUSHW[ ]	/* 3 values pushed */
4 8 0 
SRP1[ ]	/* SetRefPoint1 */
SRP2[ ]	/* SetRefPoint2 */
IP[ ]	/* InterpolatePts */
PUSHW[ ]	/* 1 value pushed */
13 
MDRP[10000]	/* MoveDirectRelPt */
PUSHW[ ]	/* 1 value pushed */
8 
SRP0[ ]	/* SetRefPoint0 */
PUSHW[ ]	/* 2 values pushed */
17 1 
MIRP[10100]	/* MoveIndirectRelPt */
PUSHW[ ]	/* 1 value pushed */
4 
SRP0[ ]	/* SetRefPoint0 */
PUSHW[ ]	/* 2 values pushed */
22 1 
MIRP[10100]	/* MoveIndirectRelPt */
IUP[0]	/* InterpolateUntPts */
IUP[1]	/* InterpolateUntPts */";
};
width = 600;
}
);
note = h;
unicode = 104;
},
{
glyphname = k;
layers = (
{
layerId = m01;
shapes = (
{
closed = 1;
nodes = (
(188,132,l),
(303,245,l),
(482,0,l),
(574,0,l),
(354,295,l),
(548,486,l),
(454,486,l),
(192,230,l),
(188,230,l),
(188,712,l),
(106,712,l),
(106,0,l),
(188,0,l)
);
}
);
userData = {
assembly = "SVTCA[0]	/* SetFreedomAndProjectionVectorToAxis */
PUSHW[ ]	/* 1 value pushed */
0 
RCVT[ ]	/* ReadCVT */
IF[ ]	/* If */
PUSHW[ ]	/* 1 value pushed */
5 
MDAP[1]	/* MoveDirectAbsPt */
ELSE[ ]	/* Else */
PUSHW[ ]	/* 2 values pushed */
5 7 
MIAP[0]	/* MoveIndirectAbsPt */
EIF[ ]	/* EndIf */
PUSHW[ ]	/* 1 value pushed */
0 
RCVT[ ]	/* ReadCVT */
IF[ ]	/* If */
PUSHW[ ]	/* 1 value pushed */
1 
MDAP[1]	/* MoveDirectAbsPt */
ELSE[ ]	/* Else */
PUSHW[ ]	/* 2 values pushed */
1 15 
MIAP[0]	/* MoveIndirectAbsPt */
EIF[ ]	/* EndIf */
PUSHW[ ]	/* 1 value pushed */
0 
RCVT[ ]	/* ReadCVT */
IF[ ]	/* If */
PUSHW[ ]	/* 1 value pushed */
0 
MDAP[1]	/* MoveDirectAbsPt */
ELSE[ ]	/* Else */
PUSHW[ ]	/* 2 values pushed */
0 3 
MIAP[0]	/* MoveIndirectAbsPt */
EIF[ ]	/* EndIf */
PUSHW[ ]	/* 3 values pushed */
3 1 0 
SRP1[ ]	/* SetRefPoint1 */
SRP2[ ]	/* SetRefPoint2 */
IP[ ]	/* InterpolatePts */
PUSHW[ ]	/* 3 values pushed */
7 1 0 
SRP1[ ]	/* SetRefPoint1 */
SRP2[ ]	/* SetRefPoint2 */
IP[ ]	/* InterpolatePts */
PUSHW[ ]	/* 1 value pushed */
8 
MDRP[10000]	/* MoveDirectRelPt */
PUSHW[ ]	/* 3 values pushed */
10 1 0 
SRP1[ ]	/* SetRefPoint1 */
SRP2[ ]	/* SetRefPoint2 */
IP[ ]	/* InterpolatePts */
IUP[0]	/* InterpolateUntPts */
IUP[1]	/* InterpolateUntPts */";
};
width = 600;
}
);
note = k;
unicode = 107;
},
{
glyphname = l;
layers = (
{
layerId = m01;
shapes = (
{
closed = 1;
nodes = (
(503,3,o),
(537,17,q),
(516,78,l),
(468,56,o),
(425,56,qs),
(381,56,o),
(329,103,o),
(329,157,qs),
(329,712,l),
(74,712,l),
(74,645,l),
(247,645,l),
(247,163,ls),
(247,76,o),
(329,-12,o),
(407,-12,qs),
(447,-12,o)
);
}
);
userData = {
assembly = "SVTCA[0]	/* SetFreedomAndProjectionVectorToAxis */
PUSHW[ ]	/* 1 value pushed */
0 
RCVT[ ]	/* ReadCVT */
IF[ ]	/* If */
PUSHW[ ]	/* 1 value pushed */
6 
MDAP[1]	/* MoveDirectAbsPt */
ELSE[ ]	/* Else */
PUSHW[ ]	/* 2 values pushed */
6 15 
MIAP[0]	/* MoveIndirectAbsPt */
EIF[ ]	/* EndIf */
PUSHW[ ]	/* 1 value pushed */
0 
RCVT[ ]	/* ReadCVT */
IF[ ]	/* If */
PUSHW[ ]	/* 1 value pushed */
0 
MDAP[1]	/* MoveDirectAbsPt */
ELSE[ ]	/* Else */
PUSHW[ ]	/* 2 values pushed */
0 3 
MIAP[0]	/* MoveIndirectAbsPt */
EIF[ ]	/* EndIf */
PUSHW[ ]	/* 1 value pushed */
6 
SRP0[ ]	/* SetRefPoint0 */
PUSHW[ ]	/* 2 values pushed */
5 1 
MIRP[10100]	/* MoveIndirectRelPt */
PUSHW[ ]	/* 1 value pushed */
0 
SRP0[ ]	/* SetRefPoint0 */
PUSHW[ ]	/* 2 values pushed */
11 1 
MIRP[10100]	/* MoveIndirectRelPt */
IUP[0]	/* InterpolateUntPts */
IUP[1]	/* InterpolateUntPts */";
};
width = 600;
}
);
note = l;
unicode = 108;
},
{
glyphname = m;
layers = (
{
layerId = m01;
shapes = (
{
closed = 1;
nodes = (
(140,352,l),
(158,390,o),
(194,427,o),
(220,427,qs),
(247,427,o),
(270,384,o),
(270,342,qs),
(270,0,l),
(346,0,l),
(346,352,l),
(366,390,o),
(398,427,o),
(424,427,qs),
(476,427,o),
(476,342,qs),
(476,0,l),
(558,0,l),
(558,348,ls),
(558,421,o),
(501,498,o),
(450,498,qs),
(408,498,o),
(357,453,o),
(336,414,q),
(315,498,o),
(244,498,qs),
(202,498,o),
(152,456,o),
(133,422,q),
(131,422,l),
(124,486,l),
(58,486,l),
(58,0,l),
(140,0,l)
);
}
);
userData = {
assembly = "SVTCA[0]	/* SetFreedomAndProjectionVectorToAxis */
PUSHW[ ]	/* 1 value pushed */
0 
RCVT[ ]	/* ReadCVT */
IF[ ]	/* If */
PUSHW[ ]	/* 1 value pushed */
7 
MDAP[1]	/* MoveDirectAbsPt */
ELSE[ ]	/* Else */
PUSHW[ ]	/* 2 values pushed */
7 7 
MIAP[0]	/* MoveIndirectAbsPt */
EIF[ ]	/* EndIf */
PUSHW[ ]	/* 1 value pushed */
0 
RCVT[ ]	/* ReadCVT */
IF[ ]	/* If */
PUSHW[ ]	/* 1 value pushed */
0 
MDAP[1]	/* MoveDirectAbsPt */
ELSE[ ]	/* Else */
PUSHW[ ]	/* 2 values pushed */
0 3 
MIAP[0]	/* MoveIndirectAbsPt */
EIF[ ]	/* EndIf */
PUSHW[ ]	/* 1 value pushed */
7 
SRP0[ ]	/* SetRefPoint0 */
PUSHW[ ]	/* 1 value pushed */
2 
MDRP[10000]	/* MoveDirectRelPt */
PUSHW[ ]	/* 1 value pushed */
2 
MDAP[1]	/* MoveDirectAbsPt */
PUSHW[ ]	/* 3 values pushed */
3 7 0 
SRP1[ ]	/* SetRefPoint1 */
SRP2[ ]	/* SetRefPoint2 */
IP[ ]	/* InterpolatePts */
PUSHW[ ]	/* 3 values pushed */
9 0 7 
SRP1[ ]	/* SetRefPoint1 */
SRP2[ ]	/* SetRefPoint2 */
IP[ ]	/* InterpolatePts */
PUSHW[ ]	/* 1 value pushed */
7 
SRP0[ ]	/* SetRefPoint0 */
PUSHW[ ]	/* 1 value pushed */
12 
MDRP[10000]	/* MoveDirectRelPt */
PUSHW[ ]	/* 1 value pushed */
0 
SRP0[ ]	/* SetRefPoint0 */
PUSHW[ ]	/* 1 value pushed */
24 
MDRP[10000]	/* MoveDirectRelPt */
PUSHW[ ]	/* 1 value pushed */
16 
MDRP[10000]	/* MoveDirectRelPt */
PUSHW[ ]	/* 1 value pushed */
7 
SRP0[ ]	/* SetRefPoint0 */
PUSHW[ ]	/* 2 values pushed */
29 1 
MIRP[10100]	/* MoveIndirectRelPt */
PUSHW[ ]	/* 1 value pushed */
20 
MDRP[10000]	/* MoveDirectRelPt */
PUSHW[ ]	/* 1 value pushed */
9 
SRP0[ ]	/* SetRefPoint0 */
PUSHW[ ]	/* 2 values pushed */
23 1 
MIRP[10100]	/* MoveIndirectRelPt */
PUSHW[ ]	/* 1 value pushed */
3 
SRP0[ ]	/* SetRefPoint0 */
PUSHW[ ]	/* 2 values pushed */
32 1 
MIRP[10100]	/* MoveIndirectRelPt */
IUP[0]	/* InterpolateUntPts */
IUP[1]	/* InterpolateUntPts */";
};
width = 600;
}
);
note = m;
unicode = 109;
},
{
glyphname = n;
layers = (
{
layerId = m01;
shapes = (
{
closed = 1;
nodes = (
(175,339,l),
(196,361,o),
(234,394,o),
(270,416,o),
(307,427,o),
(329,427,qs),
(389,427,o),
(441,360,o),
(441,291,qs),
(441,0,l),
(523,0,l),
(523,302,ls),
(523,399,o),
(442,498,o),
(355,498,qs),
(298,498,o),
(210,444,o),
(172,403,q),
(168,403,l),
(161,486,l),
(93,486,l),
(93,0,l),
(175,0,l)
);
}
);
userData = {
assembly = "SVTCA[0]	/* SetFreedomAndProjectionVectorToAxis */
PUSHW[ ]	/* 1 value pushed */
0 
RCVT[ ]	/* ReadCVT */
IF[ ]	/* If */
PUSHW[ ]	/* 1 value pushed */
7 
MDAP[1]	/* MoveDirectAbsPt */
ELSE[ ]	/* Else */
PUSHW[ ]	/* 2 values pushed */
7 7 
MIAP[0]	/* MoveIndirectAbsPt */
EIF[ ]	/* EndIf */
PUSHW[ ]	/* 1 value pushed */
0 
RCVT[ ]	/* ReadCVT */
IF[ ]	/* If */
PUSHW[ ]	/* 1 value pushed */
1 
MDAP[1]	/* MoveDirectAbsPt */
ELSE[ ]	/* Else */
PUSHW[ ]	/* 2 values pushed */
1 7 
MIAP[0]	/* MoveIndirectAbsPt */
EIF[ ]	/* EndIf */
PUSHW[ ]	/* 1 value pushed */
0 
RCVT[ ]	/* ReadCVT */
IF[ ]	/* If */
PUSHW[ ]	/* 1 value pushed */
0 
MDAP[1]	/* MoveDirectAbsPt */
ELSE[ ]	/* Else */
PUSHW[ ]	/* 2 values pushed */
0 3 
MIAP[0]	/* MoveIndirectAbsPt */
EIF[ ]	/* EndIf */
PUSHW[ ]	/* 1 value pushed */
0 
RCVT[ ]	/* ReadCVT */
IF[ ]	/* If */
PUSHW[ ]	/* 1 value pushed */
12 
MDAP[1]	/* MoveDirectAbsPt */
ELSE[ ]	/* Else */
PUSHW[ ]	/* 2 values pushed */
12 3 
MIAP[0]	/* MoveIndirectAbsPt */
EIF[ ]	/* EndIf */
PUSHW[ ]	/* 3 values pushed */
3 7 0 
SRP1[ ]	/* SetRefPoint1 */
SRP2[ ]	/* SetRefPoint2 */
IP[ ]	/* InterpolatePts */
PUSHW[ ]	/* 1 value pushed */
7 
SRP0[ ]	/* SetRefPoint0 */
PUSHW[ ]	/* 2 values pushed */
16 1 
MIRP[10100]	/* MoveIndirectRelPt */
PUSHW[ ]	/* 1 value pushed */
3 
SRP0[ ]	/* SetRefPoint0 */
PUSHW[ ]	/* 2 values pushed */
21 1 
MIRP[10100]	/* MoveIndirectRelPt */
IUP[0]	/* InterpolateUntPts */
IUP[1]	/* InterpolateUntPts */";
};
width = 600;
}
);
note = n;
unicode = 110;
},
{
glyphname = o;
layers = (
{
layerId = m01;
shapes = (
{
closed = 1;
nodes = (
(435,22,o),
(501,87,o),
(540,182,o),
(540,242,qs),
(540,303,o),
(501,398,o),
(435,464,o),
(348,498,o),
(300,498,qs),
(252,498,o),
(165,464,o),
(99,398,o),
(60,303,o),
(60,242,qs),
(60,182,o),
(99,87,o),
(165,22,o),
(252,-12,o),
(300,-12,qs),
(348,-12,o)
);
},
{
closed = 1;
nodes = (
(208,83,o),
(167,132,o),
(145,200,o),
(145,242,qs),
(145,284,o),
(167,353,o),
(208,403,o),
(265,430,o),
(300,430,qs),
(335,430,o),
(392,403,o),
(433,353,o),
(455,284,o),
(455,242,qs),
(455,200,o),
(433,132,o),
(392,83,o),
(335,56,o),
(300,56,qs),
(265,56,o)
);
}
);
userData = {
assembly = "SVTCA[0]	/* SetFreedomAndProjectionVectorToAxis */
PUSHW[ ]	/* 1 value pushed */
0 
RCVT[ ]	/* ReadCVT */
IF[ ]	/* If */
PUSHW[ ]	/* 1 value pushed */
10 
MDAP[1]	/* MoveDirectAbsPt */
ELSE[ ]	/* Else */
PUSHW[ ]	/* 2 values pushed */
10 7 
MIAP[0]	/* MoveIndirectAbsPt */
EIF[ ]	/* EndIf */
PUSHW[ ]	/* 1 value pushed */
0 
RCVT[ ]	/* ReadCVT */
IF[ ]	/* If */
PUSHW[ ]	/* 1 value pushed */
0 
MDAP[1]	/* MoveDirectAbsPt */
ELSE[ ]	/* Else */
PUSHW[ ]	/* 2 values pushed */
0 3 
MIAP[0]	/* MoveIndirectAbsPt */
EIF[ ]	/* EndIf */
PUSHW[ ]	/* 2 values pushed */
20 1 
MIRP[10100]	/* MoveIndirectRelPt */
PUSHW[ ]	/* 1 value pushed */
10 
SRP0[ ]	/* SetRefPoint0 */
PUSHW[ ]	/* 2 values pushed */
30 1 
MIRP[10100]	/* MoveIndirectRelPt */
IUP[0]	/* InterpolateUntPts */
IUP[1]	/* InterpolateUntPts */";
};
width = 600;
}
);
note = o;
unicode = 111;
},
{
glyphname = p;
layers = (
{
layerId = m01;
shapes = (
{
closed = 1;
nodes = (
(175,-41,l),
(171,51,l),
(174,51,l),
(206,21,o),
(285,-12,o),
(319,-12,qs),
(363,-12,o),
(443,23,o),
(504,91,o),
(540,188,o),
(540,250,qs),
(540,307,o),
(514,398,o),
(463,463,o),
(388,498,o),
(339,498,qs),
(294,498,o),
(205,456,o),
(171,424,q),
(168,424,l),
(161,486,l),
(93,486,l),
(93,-205,l),
(175,-205,l)
);
},
{
closed = 1;
nodes = (
(210,83,o),
(175,114,q),
(175,356,l),
(213,394,o),
(286,429,o),
(318,429,qs),
(354,429,o),
(406,403,o),
(439,356,o),
(455,290,o),
(455,250,qs),
(455,159,o),
(371,57,o),
(305,57,qs),
(280,57,o)
);
}
);
userData = {
assembly = "SVTCA[0]	/* SetFreedomAndProjectionVectorToAxis */
PUSHW[ ]	/* 1 value pushed */
0 
RCVT[ ]	/* ReadCVT */
IF[ ]	/* If */
PUSHW[ ]	/* 1 value pushed */
7 
MDAP[1]	/* MoveDirectAbsPt */
ELSE[ ]	/* Else */
PUSHW[ ]	/* 2 values pushed */
7 7 
MIAP[0]	/* MoveIndirectAbsPt */
EIF[ ]	/* EndIf */
PUSHW[ ]	/* 1 value pushed */
0 
RCVT[ ]	/* ReadCVT */
IF[ ]	/* If */
PUSHW[ ]	/* 1 value pushed */
17 
MDAP[1]	/* MoveDirectAbsPt */
ELSE[ ]	/* Else */
PUSHW[ ]	/* 2 values pushed */
17 3 
MIAP[0]	/* MoveIndirectAbsPt */
EIF[ ]	/* EndIf */
PUSHW[ ]	/* 1 value pushed */
0 
RCVT[ ]	/* ReadCVT */
IF[ ]	/* If */
PUSHW[ ]	/* 1 value pushed */
0 
MDAP[1]	/* MoveDirectAbsPt */
ELSE[ ]	/* Else */
PUSHW[ ]	/* 2 values pushed */
0 5 
MIAP[0]	/* MoveIndirectAbsPt */
EIF[ ]	/* EndIf */
PUSHW[ ]	/* 1 value pushed */
7 
SRP0[ ]	/* SetRefPoint0 */
PUSHW[ ]	/* 1 value pushed */
2 
MDRP[10000]	/* MoveDirectRelPt */
PUSHW[ ]	/* 1 value pushed */
2 
MDAP[1]	/* MoveDirectAbsPt */
PUSHW[ ]	/* 3 values pushed */
3 7 17 
SRP1[ ]	/* SetRefPoint1 */
SRP2[ ]	/* SetRefPoint2 */
IP[ ]	/* InterpolatePts */
PUSHW[ ]	/* 3 values pushed */
21 7 17 
SRP1[ ]	/* SetRefPoint1 */
SRP2[ ]	/* SetRefPoint2 */
IP[ ]	/* InterpolatePts */
PUSHW[ ]	/* 1 value pushed */
17 
SRP0[ ]	/* SetRefPoint0 */
PUSHW[ ]	/* 2 values pushed */
24 1 
MIRP[10100]	/* MoveIndirectRelPt */
PUSHW[ ]	/* 1 value pushed */
7 
SRP0[ ]	/* SetRefPoint0 */
PUSHW[ ]	/* 2 values pushed */
32 1 
MIRP[10100]	/* MoveIndirectRelPt */
PUSHW[ ]	/* 1 value pushed */
3 
SRP0[ ]	/* SetRefPoint0 */
PUSHW[ ]	/* 2 values pushed */
35 1 
MIRP[10100]	/* MoveIndirectRelPt */
PUSHW[ ]	/* 1 value pushed */
21 
SRP0[ ]	/* SetRefPoint0 */
PUSHW[ ]	/* 2 values pushed */
36 1 
MIRP[10100]	/* MoveIndirectRelPt */
IUP[0]	/* InterpolateUntPts */
IUP[1]	/* InterpolateUntPts */";
};
width = 600;
}
);
note = p;
unicode = 112;
},
{
glyphname = q;
layers = (
{
layerId = m01;
shapes = (
{
closed = 1;
nodes = (
(507,486,l),
(441,486,l),
(434,432,l),
(431,432,l),
(396,464,o),
(326,498,o),
(281,498,qs),
(238,498,o),
(158,462,o),
(97,396,o),
(60,301,o),
(60,242,qs),
(60,181,o),
(90,87,o),
(145,22,o),
(223,-12,o),
(270,-12,qs),
(315,-12,o),
(396,31,o),
(426,62,q),
(429,62,l),
(425,-28,l),
(425,-205,l),
(507,-205,l)
);
},
{
closed = 1;
nodes = (
(145,155,o),
(145,243,qs),
(145,285,o),
(169,353,o),
(210,402,o),
(265,429,o),
(297,429,qs),
(329,429,o),
(392,403,o),
(425,372,q),
(425,130,l),
(360,57,o),
(288,57,qs),
(220,57,o)
);
}
);
userData = {
assembly = "SVTCA[0]	/* SetFreedomAndProjectionVectorToAxis */
PUSHW[ ]	/* 1 value pushed */
0 
RCVT[ ]	/* ReadCVT */
IF[ ]	/* If */
PUSHW[ ]	/* 1 value pushed */
16 
MDAP[1]	/* MoveDirectAbsPt */
ELSE[ ]	/* Else */
PUSHW[ ]	/* 2 values pushed */
16 7 
MIAP[0]	/* MoveIndirectAbsPt */
EIF[ ]	/* EndIf */
PUSHW[ ]	/* 1 value pushed */
0 
RCVT[ ]	/* ReadCVT */
IF[ ]	/* If */
PUSHW[ ]	/* 1 value pushed */
0 
MDAP[1]	/* MoveDirectAbsPt */
ELSE[ ]	/* Else */
PUSHW[ ]	/* 2 values pushed */
0 5 
MIAP[0]	/* MoveIndirectAbsPt */
EIF[ ]	/* EndIf */
PUSHW[ ]	/* 1 value pushed */
0 
RCVT[ ]	/* ReadCVT */
IF[ ]	/* If */
PUSHW[ ]	/* 1 value pushed */
6 
MDAP[1]	/* MoveDirectAbsPt */
ELSE[ ]	/* Else */
PUSHW[ ]	/* 2 values pushed */
6 3 
MIAP[0]	/* MoveIndirectAbsPt */
EIF[ ]	/* EndIf */
PUSHW[ ]	/* 3 values pushed */
2 6 16 
SRP1[ ]	/* SetRefPoint1 */
SRP2[ ]	/* SetRefPoint2 */
IP[ ]	/* InterpolatePts */
PUSHW[ ]	/* 3 values pushed */
19 16 6 
SRP1[ ]	/* SetRefPoint1 */
SRP2[ ]	/* SetRefPoint2 */
IP[ ]	/* InterpolatePts */
PUSHW[ ]	/* 1 value pushed */
16 
SRP0[ ]	/* SetRefPoint0 */
PUSHW[ ]	/* 1 value pushed */
21 
MDRP[10000]	/* MoveDirectRelPt */
PUSHW[ ]	/* 1 value pushed */
21 
MDAP[1]	/* MoveDirectAbsPt */
PUSHW[ ]	/* 1 value pushed */
6 
SRP0[ ]	/* SetRefPoint0 */
PUSHW[ ]	/* 2 values pushed */
24 1 
MIRP[10100]	/* MoveIndirectRelPt */
PUSHW[ ]	/* 1 value pushed */
2 
SRP0[ ]	/* SetRefPoint0 */
PUSHW[ ]	/* 2 values pushed */
26 1 
MIRP[10100]	/* MoveIndirectRelPt */
PUSHW[ ]	/* 1 value pushed */
19 
SRP0[ ]	/* SetRefPoint0 */
PUSHW[ ]	/* 2 values pushed */
27 1 
MIRP[10100]	/* MoveIndirectRelPt */
PUSHW[ ]	/* 1 value pushed */
16 
SRP0[ ]	/* SetRefPoint0 */
PUSHW[ ]	/* 2 values pushed */
30 1 
MIRP[10100]	/* MoveIndirectRelPt */
IUP[0]	/* InterpolateUntPts */
IUP[1]	/* InterpolateUntPts */";
};
width = 600;
}
);
note = q;
unicode = 113;
},
{
glyphname = r;
layers = (
{
layerId = m01;
shapes = (
{
closed = 1;
nodes = (
(228,285,l),
(272,361,o),
(373,424,o),
(428,424,qs),
(457,424,o),
(492,416,o),
(518,407,q),
(537,478,l),
(514,489,o),
(468,498,o),
(441,498,qs),
(373,498,o),
(262,430,o),
(224,371,q),
(221,371,l),
(214,486,l),
(146,486,l),
(146,0,l),
(228,0,l)
);
}
);
userData = {
assembly = "SVTCA[0]	/* SetFreedomAndProjectionVectorToAxis */
PUSHW[ ]	/* 1 value pushed */
0 
RCVT[ ]	/* ReadCVT */
IF[ ]	/* If */
PUSHW[ ]	/* 1 value pushed */
1 
MDAP[1]	/* MoveDirectAbsPt */
ELSE[ ]	/* Else */
PUSHW[ ]	/* 2 values pushed */
1 7 
MIAP[0]	/* MoveIndirectAbsPt */
EIF[ ]	/* EndIf */
PUSHW[ ]	/* 1 value pushed */
0 
RCVT[ ]	/* ReadCVT */
IF[ ]	/* If */
PUSHW[ ]	/* 1 value pushed */
7 
MDAP[1]	/* MoveDirectAbsPt */
ELSE[ ]	/* Else */
PUSHW[ ]	/* 2 values pushed */
7 7 
MIAP[0]	/* MoveIndirectAbsPt */
EIF[ ]	/* EndIf */
PUSHW[ ]	/* 1 value pushed */
0 
RCVT[ ]	/* ReadCVT */
IF[ ]	/* If */
PUSHW[ ]	/* 1 value pushed */
18 
MDAP[1]	/* MoveDirectAbsPt */
ELSE[ ]	/* Else */
PUSHW[ ]	/* 2 values pushed */
18 3 
MIAP[0]	/* MoveIndirectAbsPt */
EIF[ ]	/* EndIf */
PUSHW[ ]	/* 3 values pushed */
3 18 1 
SRP1[ ]	/* SetRefPoint1 */
SRP2[ ]	/* SetRefPoint2 */
IP[ ]	/* InterpolatePts */
PUSHW[ ]	/* 1 value pushed */
7 
SRP0[ ]	/* SetRefPoint0 */
PUSHW[ ]	/* 2 values pushed */
14 1 
MIRP[10100]	/* MoveIndirectRelPt */
PUSHW[ ]	/* 1 value pushed */
3 
SRP0[ ]	/* SetRefPoint0 */
PUSHW[ ]	/* 2 values pushed */
17 1 
MIRP[10100]	/* MoveIndirectRelPt */
IUP[0]	/* InterpolateUntPts */
IUP[1]	/* InterpolateUntPts */";
};
width = 600;
}
);
note = r;
unicode = 114;
},
{
glyphname = s;
layers = (
{
layerId = m01;
shapes = (
{
closed = 1;
nodes = (
(443,11,o),
(498,51,o),
(526,103,o),
(526,133,qs),
(526,161,o),
(509,205,o),
(464,241,o),
(386,270,o),
(325,283,qs),
(250,299,o),
(184,332,o),
(184,364,qs),
(184,392,o),
(234,434,o),
(296,434,qs),
(343,434,o),
(425,406,o),
(459,383,q),
(499,436,l),
(463,461,o),
(359,498,o),
(303,498,qs),
(253,498,o),
(178,477,o),
(127,440,o),
(101,389,o),
(101,360,qs),
(101,305,o),
(196,238,o),
(291,218,qs),
(340,208,o),
(400,188,o),
(433,166,o),
(443,142,o),
(443,128,qs),
(443,97,o),
(382,52,o),
(320,52,qs),
(252,52,o),
(151,88,o),
(109,118,q),
(71,64,l),
(116,33,o),
(238,-12,o),
(310,-12,qs),
(362,-12,o)
);
}
);
userData = {
assembly = "SVTCA[0]	/* SetFreedomAndProjectionVectorToAxis */
PUSHW[ ]	/* 1 value pushed */
0 
RCVT[ ]	/* ReadCVT */
IF[ ]	/* If */
PUSHW[ ]	/* 1 value pushed */
23 
MDAP[1]	/* MoveDirectAbsPt */
ELSE[ ]	/* Else */
PUSHW[ ]	/* 2 values pushed */
23 7 
MIAP[0]	/* MoveIndirectAbsPt */
EIF[ ]	/* EndIf */
PUSHW[ ]	/* 1 value pushed */
0 
RCVT[ ]	/* ReadCVT */
IF[ ]	/* If */
PUSHW[ ]	/* 1 value pushed */
0 
MDAP[1]	/* MoveDirectAbsPt */
ELSE[ ]	/* Else */
PUSHW[ ]	/* 2 values pushed */
0 3 
MIAP[0]	/* MoveIndirectAbsPt */
EIF[ ]	/* EndIf */
PUSHW[ ]	/* 2 values pushed */
7 1 
MIRP[10100]	/* MoveIndirectRelPt */
PUSHW[ ]	/* 3 values pushed */
15 0 23 
SRP1[ ]	/* SetRefPoint1 */
SRP2[ ]	/* SetRefPoint2 */
IP[ ]	/* InterpolatePts */
PUSHW[ ]	/* 1 value pushed */
23 
SRP0[ ]	/* SetRefPoint0 */
PUSHW[ ]	/* 2 values pushed */
30 1 
MIRP[10100]	/* MoveIndirectRelPt */
PUSHW[ ]	/* 3 values pushed */
36 23 0 
SRP1[ ]	/* SetRefPoint1 */
SRP2[ ]	/* SetRefPoint2 */
IP[ ]	/* InterpolatePts */
IUP[0]	/* InterpolateUntPts */
IUP[1]	/* InterpolateUntPts */";
};
width = 600;
}
);
note = s;
unicode = 115;
},
{
glyphname = t;
layers = (
{
layerId = m01;
shapes = (
{
closed = 1;
nodes = (
(513,5,o),
(546,17,q),
(528,77,l),
(502,67,o),
(446,55,o),
(411,55,qs),
(376,55,o),
(328,72,o),
(300,106,o),
(288,155,o),
(288,188,qs),
(288,419,l),
(527,419,l),
(527,486,l),
(288,486,l),
(288,642,l),
(220,642,l),
(209,486,l),
(69,481,l),
(69,419,l),
(206,419,l),
(206,189,ls),
(206,144,o),
(225,70,o),
(269,17,o),
(341,-12,o),
(394,-12,qs),
(440,-12,o)
);
}
);
userData = {
assembly = "SVTCA[0]	/* SetFreedomAndProjectionVectorToAxis */
PUSHW[ ]	/* 1 value pushed */
0 
RCVT[ ]	/* ReadCVT */
IF[ ]	/* If */
PUSHW[ ]	/* 1 value pushed */
9 
MDAP[1]	/* MoveDirectAbsPt */
ELSE[ ]	/* Else */
PUSHW[ ]	/* 2 values pushed */
9 7 
MIAP[0]	/* MoveIndirectAbsPt */
EIF[ ]	/* EndIf */
PUSHW[ ]	/* 1 value pushed */
0 
RCVT[ ]	/* ReadCVT */
IF[ ]	/* If */
PUSHW[ ]	/* 1 value pushed */
0 
MDAP[1]	/* MoveDirectAbsPt */
ELSE[ ]	/* Else */
PUSHW[ ]	/* 2 values pushed */
0 3 
MIAP[0]	/* MoveIndirectAbsPt */
EIF[ ]	/* EndIf */
PUSHW[ ]	/* 1 value pushed */
9 
SRP0[ ]	/* SetRefPoint0 */
PUSHW[ ]	/* 2 values pushed */
6 1 
MIRP[10100]	/* MoveIndirectRelPt */
PUSHW[ ]	/* 1 value pushed */
9 
SRP0[ ]	/* SetRefPoint0 */
PUSHW[ ]	/* 1 value pushed */
11 
MDRP[11100]	/* MoveDirectRelPt */
PUSHW[ ]	/* 1 value pushed */
9 
SRP0[ ]	/* SetRefPoint0 */
PUSHW[ ]	/* 1 value pushed */
13 
MDRP[10000]	/* MoveDirectRelPt */
PUSHW[ ]	/* 1 value pushed */
6 
SRP0[ ]	/* SetRefPoint0 */
PUSHW[ ]	/* 1 value pushed */
14 
MDRP[10000]	/* MoveDirectRelPt */
PUSHW[ ]	/* 1 value pushed */
0 
SRP0[ ]	/* SetRefPoint0 */
PUSHW[ ]	/* 2 values pushed */
21 1 
MIRP[10100]	/* MoveIndirectRelPt */
IUP[0]	/* InterpolateUntPts */
IUP[1]	/* InterpolateUntPts */";
};
width = 600;
}
);
note = t;
unicode = 116;
},
{
glyphname = u;
layers = (
{
layerId = m01;
shapes = (
{
closed = 1;
nodes = (
(390,42,o),
(427,85,q),
(431,85,l),
(438,0,l),
(505,0,l),
(505,486,l),
(423,486,l),
(423,149,l),
(382,102,o),
(314,59,o),
(272,59,qs),
(211,59,o),
(160,126,o),
(160,195,qs),
(160,486,l),
(77,486,l),
(77,184,ls),
(77,87,o),
(158,-12,o),
(246,-12,qs),
(303,-12,o)
);
}
);
userData = {
assembly = "SVTCA[0]	/* SetFreedomAndProjectionVectorToAxis */
PUSHW[ ]	/* 1 value pushed */
0 
RCVT[ ]	/* ReadCVT */
IF[ ]	/* If */
PUSHW[ ]	/* 1 value pushed */
4 
MDAP[1]	/* MoveDirectAbsPt */
ELSE[ ]	/* Else */
PUSHW[ ]	/* 2 values pushed */
4 7 
MIAP[0]	/* MoveIndirectAbsPt */
EIF[ ]	/* EndIf */
PUSHW[ ]	/* 1 value pushed */
0 
RCVT[ ]	/* ReadCVT */
IF[ ]	/* If */
PUSHW[ ]	/* 1 value pushed */
0 
MDAP[1]	/* MoveDirectAbsPt */
ELSE[ ]	/* Else */
PUSHW[ ]	/* 2 values pushed */
0 3 
MIAP[0]	/* MoveIndirectAbsPt */
EIF[ ]	/* EndIf */
PUSHW[ ]	/* 2 values pushed */
9 1 
MIRP[10100]	/* MoveIndirectRelPt */
PUSHW[ ]	/* 3 values pushed */
17 4 0 
SRP1[ ]	/* SetRefPoint1 */
SRP2[ ]	/* SetRefPoint2 */
IP[ ]	/* InterpolatePts */
PUSHW[ ]	/* 1 value pushed */
17 
SRP0[ ]	/* SetRefPoint0 */
PUSHW[ ]	/* 2 values pushed */
12 1 
MIRP[10100]	/* MoveIndirectRelPt */
PUSHW[ ]	/* 1 value pushed */
4 
SRP0[ ]	/* SetRefPoint0 */
PUSHW[ ]	/* 1 value pushed */
14 
MDRP[10000]	/* MoveDirectRelPt */
PUSHW[ ]	/* 1 value pushed */
0 
SRP0[ ]	/* SetRefPoint0 */
PUSHW[ ]	/* 1 value pushed */
16 
MDRP[10000]	/* MoveDirectRelPt */
PUSHW[ ]	/* 1 value pushed */
16 
MDAP[1]	/* MoveDirectAbsPt */
IUP[0]	/* InterpolateUntPts */
IUP[1]	/* InterpolateUntPts */";
};
width = 600;
}
);
note = u;
unicode = 117;
},
{
glyphname = v;
layers = (
{
layerId = m01;
shapes = (
{
closed = 1;
nodes = (
(549,486,l),
(470,486,l),
(358,210,ls),
(343,173,o),
(318,102,o),
(305,67,q),
(301,67,l),
(288,102,o),
(261,173,o),
(246,210,qs),
(134,486,l),
(51,486,l),
(256,0,l),
(348,0,l)
);
}
);
userData = {
assembly = "SVTCA[0]	/* SetFreedomAndProjectionVectorToAxis */
PUSHW[ ]	/* 1 value pushed */
0 
RCVT[ ]	/* ReadCVT */
IF[ ]	/* If */
PUSHW[ ]	/* 1 value pushed */
1 
MDAP[1]	/* MoveDirectAbsPt */
ELSE[ ]	/* Else */
PUSHW[ ]	/* 2 values pushed */
1 7 
MIAP[0]	/* MoveIndirectAbsPt */
EIF[ ]	/* EndIf */
PUSHW[ ]	/* 1 value pushed */
0 
RCVT[ ]	/* ReadCVT */
IF[ ]	/* If */
PUSHW[ ]	/* 1 value pushed */
0 
MDAP[1]	/* MoveDirectAbsPt */
ELSE[ ]	/* Else */
PUSHW[ ]	/* 2 values pushed */
0 3 
MIAP[0]	/* MoveIndirectAbsPt */
EIF[ ]	/* EndIf */
PUSHW[ ]	/* 3 values pushed */
6 1 0 
SRP1[ ]	/* SetRefPoint1 */
SRP2[ ]	/* SetRefPoint2 */
IP[ ]	/* InterpolatePts */
PUSHW[ ]	/* 1 value pushed */
1 
SRP0[ ]	/* SetRefPoint0 */
PUSHW[ ]	/* 1 value pushed */
12 
MDRP[10000]	/* MoveDirectRelPt */
IUP[0]	/* InterpolateUntPts */
IUP[1]	/* InterpolateUntPts */";
};
width = 600;
}
);
note = v;
unicode = 118;
},
{
glyphname = w;
layers = (
{
layerId = m01;
shapes = (
{
closed = 1;
nodes = (
(274,232,ls),
(286,283,o),
(298,376,q),
(302,376,l),
(314,283,o),
(326,232,qs),
(382,0,l),
(488,0,l),
(592,486,l),
(516,486,l),
(458,204,ls),
(451,169,o),
(442,105,o),
(436,70,q),
(432,70,l),
(427,105,o),
(410,169,o),
(402,204,qs),
(344,456,l),
(262,456,l),
(202,204,ls),
(194,170,o),
(179,105,o),
(174,70,q),
(170,70,l),
(165,105,o),
(155,169,o),
(148,204,qs),
(90,486,l),
(8,486,l),
(114,0,l),
(220,0,l)
);
}
);
userData = {
assembly = "SVTCA[0]	/* SetFreedomAndProjectionVectorToAxis */
PUSHW[ ]	/* 1 value pushed */
0 
RCVT[ ]	/* ReadCVT */
IF[ ]	/* If */
PUSHW[ ]	/* 1 value pushed */
1 
MDAP[1]	/* MoveDirectAbsPt */
ELSE[ ]	/* Else */
PUSHW[ ]	/* 2 values pushed */
1 7 
MIAP[0]	/* MoveIndirectAbsPt */
EIF[ ]	/* EndIf */
PUSHW[ ]	/* 1 value pushed */
0 
RCVT[ ]	/* ReadCVT */
IF[ ]	/* If */
PUSHW[ ]	/* 1 value pushed */
0 
MDAP[1]	/* MoveDirectAbsPt */
ELSE[ ]	/* Else */
PUSHW[ ]	/* 2 values pushed */
0 3 
MIAP[0]	/* MoveIndirectAbsPt */
EIF[ ]	/* EndIf */
PUSHW[ ]	/* 3 values pushed */
6 1 0 
SRP1[ ]	/* SetRefPoint1 */
SRP2[ ]	/* SetRefPoint2 */
IP[ ]	/* InterpolatePts */
PUSHW[ ]	/* 3 values pushed */
12 1 0 
SRP1[ ]	/* SetRefPoint1 */
SRP2[ ]	/* SetRefPoint2 */
IP[ ]	/* InterpolatePts */
PUSHW[ ]	/* 3 values pushed */
16 0 1 
SRP1[ ]	/* SetRefPoint1 */
SRP2[ ]	/* SetRefPoint2 */
IP[ ]	/* InterpolatePts */
PUSHW[ ]	/* 1 value pushed */
1 
SRP0[ ]	/* SetRefPoint0 */
PUSHW[ ]	/* 1 value pushed */
22 
MDRP[10000]	/* MoveDirectRelPt */
PUSHW[ ]	/* 1 value pushed */
0 
SRP0[ ]	/* SetRefPoint0 */
PUSHW[ ]	/* 1 value pushed */
23 
MDRP[10000]	/* MoveDirectRelPt */
PUSHW[ ]	/* 3 values pushed */
28 0 1 
SRP1[ ]	/* SetRefPoint1 */
SRP2[ ]	/* SetRefPoint2 */
IP[ ]	/* InterpolatePts */
IUP[0]	/* InterpolateUntPts */
IUP[1]	/* InterpolateUntPts */";
};
width = 600;
}
);
note = w;
unicode = 119;
},
{
glyphname = x;
layers = (
{
layerId = m01;
shapes = (
{
closed = 1;
nodes = (
(232,112,ls),
(247,135,o),
(277,178,o),
(292,200,q),
(296,200,l),
(312,179,o),
(345,133,o),
(360,112,qs),
(445,0,l),
(535,0,l),
(349,245,l),
(522,486,l),
(435,486,l),
(362,381,ls),
(349,361,o),
(321,317,o),
(307,297,q),
(303,297,l),
(288,317,o),
(259,359,o),
(246,379,qs),
(169,486,l),
(78,486,l),
(249,252,l),
(64,0,l),
(152,0,l)
);
}
);
userData = {
assembly = "SVTCA[0]	/* SetFreedomAndProjectionVectorToAxis */
PUSHW[ ]	/* 1 value pushed */
0 
RCVT[ ]	/* ReadCVT */
IF[ ]	/* If */
PUSHW[ ]	/* 1 value pushed */
2 
MDAP[1]	/* MoveDirectAbsPt */
ELSE[ ]	/* Else */
PUSHW[ ]	/* 2 values pushed */
2 7 
MIAP[0]	/* MoveIndirectAbsPt */
EIF[ ]	/* EndIf */
PUSHW[ ]	/* 1 value pushed */
0 
RCVT[ ]	/* ReadCVT */
IF[ ]	/* If */
PUSHW[ ]	/* 1 value pushed */
0 
MDAP[1]	/* MoveDirectAbsPt */
ELSE[ ]	/* Else */
PUSHW[ ]	/* 2 values pushed */
0 3 
MIAP[0]	/* MoveIndirectAbsPt */
EIF[ ]	/* EndIf */
PUSHW[ ]	/* 3 values pushed */
7 2 0 
SRP1[ ]	/* SetRefPoint1 */
SRP2[ ]	/* SetRefPoint2 */
IP[ ]	/* InterpolatePts */
PUSHW[ ]	/* 3 values pushed */
20 0 2 
SRP1[ ]	/* SetRefPoint1 */
SRP2[ ]	/* SetRefPoint2 */
IP[ ]	/* InterpolatePts */
PUSHW[ ]	/* 3 values pushed */
1 7 20 
SRP1[ ]	/* SetRefPoint1 */
SRP2[ ]	/* SetRefPoint2 */
IP[ ]	/* InterpolatePts */
PUSHW[ ]	/* 1 value pushed */
2 
SRP0[ ]	/* SetRefPoint0 */
PUSHW[ ]	/* 1 value pushed */
13 
MDRP[10000]	/* MoveDirectRelPt */
PUSHW[ ]	/* 3 values pushed */
14 20 7 
SRP1[ ]	/* SetRefPoint1 */
SRP2[ ]	/* SetRefPoint2 */
IP[ ]	/* InterpolatePts */
PUSHW[ ]	/* 1 value pushed */
0 
SRP0[ ]	/* SetRefPoint0 */
PUSHW[ ]	/* 1 value pushed */
15 
MDRP[10000]	/* MoveDirectRelPt */
IUP[0]	/* InterpolateUntPts */
IUP[1]	/* InterpolateUntPts */";
};
width = 600;
}
);
note = x;
unicode = 120;
},
{
glyphname = y;
lastChange = "2021-10-21 03:18:18 +0000";
layers = (
{
layerId = m01;
shapes = (
{
closed = 1;
nodes = (
(390,42,o),
(427,85,q),
(431,85,l),
(438,0,l),
(505,0,l),
(505,486,l),
(423,486,l),
(423,149,l),
(382,102,o),
(314,59,o),
(272,59,qs),
(211,59,o),
(160,126,o),
(160,195,qs),
(160,486,l),
(77,486,l),
(77,184,ls),
(77,87,o),
(158,-12,o),
(246,-12,qs),
(303,-12,o)
);
},
{
closed = 1;
nodes = (
(431,85,l),
(428,-122,l),
(426,-140,l),
(408,-148,l),
(83,-148,l),
(83,-220,l),
(428,-220,l),
(465,-209,l),
(489,-191,l),
(506,-166,l),
(512,-131,l),
(512,496,l)
);
}
);
userData = {
assembly = "SVTCA[0]	/* SetFreedomAndProjectionVectorToAxis */
PUSHW[ ]	/* 1 value pushed */
0 
RCVT[ ]	/* ReadCVT */
IF[ ]	/* If */
PUSHW[ ]	/* 1 value pushed */
11 
MDAP[1]	/* MoveDirectAbsPt */
ELSE[ ]	/* Else */
PUSHW[ ]	/* 2 values pushed */
11 7 
MIAP[0]	/* MoveIndirectAbsPt */
EIF[ ]	/* EndIf */
PUSHW[ ]	/* 1 value pushed */
0 
RCVT[ ]	/* ReadCVT */
IF[ ]	/* If */
PUSHW[ ]	/* 1 value pushed */
0 
MDAP[1]	/* MoveDirectAbsPt */
ELSE[ ]	/* Else */
PUSHW[ ]	/* 2 values pushed */
0 5 
MIAP[0]	/* MoveIndirectAbsPt */
EIF[ ]	/* EndIf */
PUSHW[ ]	/* 2 values pushed */
6 1 
MIRP[10100]	/* MoveIndirectRelPt */
PUSHW[ ]	/* 3 values pushed */
17 11 0 
SRP1[ ]	/* SetRefPoint1 */
SRP2[ ]	/* SetRefPoint2 */
IP[ ]	/* InterpolatePts */
PUSHW[ ]	/* 1 value pushed */
17 
SRP0[ ]	/* SetRefPoint0 */
PUSHW[ ]	/* 2 values pushed */
10 1 
MIRP[10100]	/* MoveIndirectRelPt */
PUSHW[ ]	/* 1 value pushed */
11 
SRP0[ ]	/* SetRefPoint0 */
PUSHW[ ]	/* 1 value pushed */
22 
MDRP[10000]	/* MoveDirectRelPt */
IUP[0]	/* InterpolateUntPts */
IUP[1]	/* InterpolateUntPts */";
};
width = 600;
}
);
note = y;
unicode = 121;
},
{
glyphname = z;
layers = (
{
layerId = m01;
shapes = (
{
closed = 1;
nodes = (
(531,67,l),
(188,67,l),
(522,442,l),
(522,486,l),
(108,486,l),
(108,419,l),
(404,419,l),
(71,44,l),
(71,0,l),
(531,0,l)
);
}
);
userData = {
assembly = "SVTCA[0]	/* SetFreedomAndProjectionVectorToAxis */
PUSHW[ ]	/* 1 value pushed */
0 
RCVT[ ]	/* ReadCVT */
IF[ ]	/* If */
PUSHW[ ]	/* 1 value pushed */
4 
MDAP[1]	/* MoveDirectAbsPt */
ELSE[ ]	/* Else */
PUSHW[ ]	/* 2 values pushed */
4 7 
MIAP[0]	/* MoveIndirectAbsPt */
EIF[ ]	/* EndIf */
PUSHW[ ]	/* 1 value pushed */
0 
RCVT[ ]	/* ReadCVT */
IF[ ]	/* If */
PUSHW[ ]	/* 1 value pushed */
0 
MDAP[1]	/* MoveDirectAbsPt */
ELSE[ ]	/* Else */
PUSHW[ ]	/* 2 values pushed */
0 3 
MIAP[0]	/* MoveIndirectAbsPt */
EIF[ ]	/* EndIf */
PUSHW[ ]	/* 2 values pushed */
7 1 
MIRP[10100]	/* MoveIndirectRelPt */
PUSHW[ ]	/* 1 value pushed */
1 
MDRP[10000]	/* MoveDirectRelPt */
PUSHW[ ]	/* 1 value pushed */
4 
SRP0[ ]	/* SetRefPoint0 */
PUSHW[ ]	/* 2 values pushed */
3 1 
MIRP[10100]	/* MoveIndirectRelPt */
PUSHW[ ]	/* 1 value pushed */
6 
MDRP[10000]	/* MoveDirectRelPt */
IUP[0]	/* InterpolateUntPts */
IUP[1]	/* InterpolateUntPts */";
};
width = 600;
}
);
note = z;
unicode = 122;
},
{
glyphname = Aringacute;
layers = (
{
layerId = m01;
shapes = (
{
closed = 1;
nodes = (
(281,531,o),
(297,588,q),
(301,588,l),
(316,531,o),
(349,422,o),
(366,367,qs),
(397,267,l),
(201,267,l),
(232,367,ls),
(249,422,o)
);
},
{
closed = 1;
nodes = (
(180,200,l),
(418,200,l),
(480,0,l),
(568,0,l),
(347,656,l),
(253,656,l),
(32,0,l),
(117,0,l)
);
},
{
closed = 1;
nodes = (
(397,748,o),
(397,789,qs),
(397,822,o),
(360,868,o),
(330,876,q),
(409,918,l),
(372,968,l),
(240,863,ls),
(223,851,o),
(203,813,o),
(203,789,qs),
(203,748,o),
(258,699,o),
(300,699,qs),
(342,699,o)
);
},
{
closed = 1;
nodes = (
(248,763,o),
(248,789,qs),
(248,815,o),
(278,843,o),
(300,843,qs),
(320,843,o),
(351,815,o),
(351,789,qs),
(351,763,o),
(320,735,o),
(300,735,qs),
(278,735,o)
);
}
);
userData = {
assembly = "SVTCA[0]	/* SetFreedomAndProjectionVectorToAxis */
PUSHW[ ]	/* 1 value pushed */
0 
RCVT[ ]	/* ReadCVT */
IF[ ]	/* If */
PUSHW[ ]	/* 1 value pushed */
11 
MDAP[1]	/* MoveDirectAbsPt */
ELSE[ ]	/* Else */
PUSHW[ ]	/* 2 values pushed */
11 13 
MIAP[0]	/* MoveIndirectAbsPt */
EIF[ ]	/* EndIf */
PUSHW[ ]	/* 1 value pushed */
0 
RCVT[ ]	/* ReadCVT */
IF[ ]	/* If */
PUSHW[ ]	/* 1 value pushed */
10 
MDAP[1]	/* MoveDirectAbsPt */
ELSE[ ]	/* Else */
PUSHW[ ]	/* 2 values pushed */
10 3 
MIAP[0]	/* MoveIndirectAbsPt */
EIF[ ]	/* EndIf */
PUSHW[ ]	/* 1 value pushed */
0 
RCVT[ ]	/* ReadCVT */
IF[ ]	/* If */
PUSHW[ ]	/* 1 value pushed */
13 
MDAP[1]	/* MoveDirectAbsPt */
ELSE[ ]	/* Else */
PUSHW[ ]	/* 2 values pushed */
13 3 
MIAP[0]	/* MoveIndirectAbsPt */
EIF[ ]	/* EndIf */
PUSHW[ ]	/* 4 values pushed */
2 1 15 4 
CALL[ ]	/* CallFunction */
PUSHW[ ]	/* 4 values pushed */
33 1 18 4 
CALL[ ]	/* CallFunction */
PUSHW[ ]	/* 1 value pushed */
11 
SRP0[ ]	/* SetRefPoint0 */
PUSHW[ ]	/* 2 values pushed */
6 1 
MIRP[10100]	/* MoveIndirectRelPt */
IUP[0]	/* InterpolateUntPts */
IUP[1]	/* InterpolateUntPts */";
};
width = 600;
}
);
note = Aringacute;
unicode = 506;
},
{
glyphname = Aogonek;
layers = (
{
layerId = m01;
shapes = (
{
closed = 1;
nodes = (
(590,-204,o),
(607,-189,q),
(581,-146,l),
(572,-154,o),
(548,-167,o),
(531,-167,qs),
(509,-167,o),
(477,-142,o),
(477,-116,qs),
(477,-79,o),
(530,-17,o),
(568,0,q),
(347,656,l),
(253,656,l),
(32,0,l),
(117,0,l),
(180,200,l),
(418,200,l),
(480,0,l),
(499,0,l),
(484,-10,o),
(453,-37,o),
(428,-70,o),
(412,-111,o),
(412,-134,qs),
(412,-180,o),
(471,-225,o),
(515,-225,qs),
(544,-225,o)
);
},
{
closed = 1;
nodes = (
(281,531,o),
(297,588,q),
(301,588,l),
(316,531,o),
(349,422,o),
(366,367,qs),
(397,267,l),
(201,267,l),
(232,367,ls),
(249,422,o)
);
}
);
userData = {
assembly = "SVTCA[0]	/* SetFreedomAndProjectionVectorToAxis */
PUSHW[ ]	/* 1 value pushed */
0 
RCVT[ ]	/* ReadCVT */
IF[ ]	/* If */
PUSHW[ ]	/* 1 value pushed */
14 
MDAP[1]	/* MoveDirectAbsPt */
ELSE[ ]	/* Else */
PUSHW[ ]	/* 2 values pushed */
14 13 
MIAP[0]	/* MoveIndirectAbsPt */
EIF[ ]	/* EndIf */
PUSHW[ ]	/* 1 value pushed */
0 
RCVT[ ]	/* ReadCVT */
IF[ ]	/* If */
PUSHW[ ]	/* 1 value pushed */
13 
MDAP[1]	/* MoveDirectAbsPt */
ELSE[ ]	/* Else */
PUSHW[ ]	/* 2 values pushed */
13 3 
MIAP[0]	/* MoveIndirectAbsPt */
EIF[ ]	/* EndIf */
PUSHW[ ]	/* 4 values pushed */
22 1 0 4 
CALL[ ]	/* CallFunction */
PUSHW[ ]	/* 1 value pushed */
13 
SRP0[ ]	/* SetRefPoint0 */
PUSHW[ ]	/* 1 value pushed */
9 
MDRP[10000]	/* MoveDirectRelPt */
PUSHW[ ]	/* 3 values pushed */
31 13 14 
SRP1[ ]	/* SetRefPoint1 */
SRP2[ ]	/* SetRefPoint2 */
IP[ ]	/* InterpolatePts */
PUSHW[ ]	/* 1 value pushed */
31 
MDAP[1]	/* MoveDirectAbsPt */
PUSHW[ ]	/* 2 values pushed */
11 1 
MIRP[10100]	/* MoveIndirectRelPt */
PUSHW[ ]	/* 1 value pushed */
9 
SRP0[ ]	/* SetRefPoint0 */
PUSHW[ ]	/* 1 value pushed */
16 
MDRP[10000]	/* MoveDirectRelPt */
PUSHW[ ]	/* 3 values pushed */
36 14 13 
SRP1[ ]	/* SetRefPoint1 */
SRP2[ ]	/* SetRefPoint2 */
IP[ ]	/* InterpolatePts */
IUP[0]	/* InterpolateUntPts */
IUP[1]	/* InterpolateUntPts */";
};
width = 600;
}
);
note = Aogonek;
unicode = 260;
},
{
glyphname = AE;
layers = (
{
layerId = m01;
shapes = (
{
closed = 1;
nodes = (
(294,536,o),
(314,590,q),
(317,590,l),
(317,258,l),
(185,258,l),
(231,377,ls),
(251,431,o)
);
},
{
closed = 1;
nodes = (
(159,191,l),
(317,191,l),
(317,0,l),
(591,0,l),
(591,71,l),
(393,71,l),
(393,310,l),
(540,310,l),
(540,381,l),
(393,381,l),
(393,586,l),
(582,586,l),
(582,656,l),
(263,656,l),
(-1,0,l),
(86,0,l)
);
}
);
userData = {
assembly = "SVTCA[0]	/* SetFreedomAndProjectionVectorToAxis */
PUSHW[ ]	/* 1 value pushed */
0 
RCVT[ ]	/* ReadCVT */
IF[ ]	/* If */
PUSHW[ ]	/* 1 value pushed */
8 
MDAP[1]	/* MoveDirectAbsPt */
ELSE[ ]	/* Else */
PUSHW[ ]	/* 2 values pushed */
8 13 
MIAP[0]	/* MoveIndirectAbsPt */
EIF[ ]	/* EndIf */
PUSHW[ ]	/* 1 value pushed */
0 
RCVT[ ]	/* ReadCVT */
IF[ ]	/* If */
PUSHW[ ]	/* 1 value pushed */
7 
MDAP[1]	/* MoveDirectAbsPt */
ELSE[ ]	/* Else */
PUSHW[ ]	/* 2 values pushed */
7 3 
MIAP[0]	/* MoveIndirectAbsPt */
EIF[ ]	/* EndIf */
PUSHW[ ]	/* 3 values pushed */
2 8 7 
SRP1[ ]	/* SetRefPoint1 */
SRP2[ ]	/* SetRefPoint2 */
IP[ ]	/* InterpolatePts */
PUSHW[ ]	/* 1 value pushed */
2 
MDAP[1]	/* MoveDirectAbsPt */
PUSHW[ ]	/* 3 values pushed */
4 8 7 
SRP1[ ]	/* SetRefPoint1 */
SRP2[ ]	/* SetRefPoint2 */
IP[ ]	/* InterpolatePts */
PUSHW[ ]	/* 1 value pushed */
8 
SRP0[ ]	/* SetRefPoint0 */
PUSHW[ ]	/* 2 values pushed */
10 1 
MIRP[10100]	/* MoveIndirectRelPt */
PUSHW[ ]	/* 1 value pushed */
7 
SRP0[ ]	/* SetRefPoint0 */
PUSHW[ ]	/* 1 value pushed */
19 
MDRP[10000]	/* MoveDirectRelPt */
PUSHW[ ]	/* 3 values pushed */
14 8 19 
SRP1[ ]	/* SetRefPoint1 */
SRP2[ ]	/* SetRefPoint2 */
IP[ ]	/* InterpolatePts */
PUSHW[ ]	/* 1 value pushed */
14 
MDAP[1]	/* MoveDirectAbsPt */
PUSHW[ ]	/* 2 values pushed */
13 1 
MIRP[10100]	/* MoveIndirectRelPt */
PUSHW[ ]	/* 1 value pushed */
19 
SRP0[ ]	/* SetRefPoint0 */
PUSHW[ ]	/* 2 values pushed */
17 1 
MIRP[10100]	/* MoveIndirectRelPt */
PUSHW[ ]	/* 1 value pushed */
2 
SRP0[ ]	/* SetRefPoint0 */
PUSHW[ ]	/* 2 values pushed */
21 1 
MIRP[10100]	/* MoveIndirectRelPt */
IUP[0]	/* InterpolateUntPts */
IUP[1]	/* InterpolateUntPts */";
};
width = 600;
}
);
note = AE;
unicode = 198;
},
{
glyphname = uni0243;
layers = (
{
layerId = m01;
shapes = (
{
closed = 1;
nodes = (
(361,0,o),
(452,24,o),
(517,72,o),
(553,144,o),
(553,192,qs),
(553,260,o),
(473,338,o),
(401,349,q),
(401,353,l),
(460,368,o),
(516,447,o),
(516,496,qs),
(516,539,o),
(483,600,o),
(424,638,o),
(341,656,o),
(291,656,qs),
(105,656,l),
(105,224,l),
(26,218,l),
(26,162,l),
(105,162,l),
(105,0,l),
(306,0,ls)
);
},
{
closed = 1;
nodes = (
(330,162,l),
(330,224,l),
(188,224,l),
(188,310,l),
(294,310,ls),
(381,310,o),
(471,257,o),
(471,196,qs),
(471,129,o),
(379,70,o),
(294,70,qs),
(188,70,l),
(188,162,l)
);
},
{
closed = 1;
nodes = (
(281,586,ls),
(357,586,o),
(434,543,o),
(434,489,qs),
(434,434,o),
(361,380,o),
(277,380,qs),
(188,380,l),
(188,586,l)
);
}
);
userData = {
assembly = "SVTCA[0]	/* SetFreedomAndProjectionVectorToAxis */
PUSHW[ ]	/* 1 value pushed */
0 
RCVT[ ]	/* ReadCVT */
IF[ ]	/* If */
PUSHW[ ]	/* 1 value pushed */
5 
MDAP[1]	/* MoveDirectAbsPt */
ELSE[ ]	/* Else */
PUSHW[ ]	/* 2 values pushed */
5 13 
MIAP[0]	/* MoveIndirectAbsPt */
EIF[ ]	/* EndIf */
PUSHW[ ]	/* 1 value pushed */
0 
RCVT[ ]	/* ReadCVT */
IF[ ]	/* If */
PUSHW[ ]	/* 1 value pushed */
0 
MDAP[1]	/* MoveDirectAbsPt */
ELSE[ ]	/* Else */
PUSHW[ ]	/* 2 values pushed */
0 3 
MIAP[0]	/* MoveIndirectAbsPt */
EIF[ ]	/* EndIf */
PUSHW[ ]	/* 2 values pushed */
25 1 
MIRP[10100]	/* MoveIndirectRelPt */
PUSHW[ ]	/* 1 value pushed */
1 
MDRP[11100]	/* MoveDirectRelPt */
PUSHW[ ]	/* 2 values pushed */
4 1 
MIRP[10100]	/* MoveIndirectRelPt */
PUSHW[ ]	/* 1 value pushed */
32 
MDRP[11100]	/* MoveDirectRelPt */
PUSHW[ ]	/* 2 values pushed */
37 1 
MIRP[10100]	/* MoveIndirectRelPt */
PUSHW[ ]	/* 3 values pushed */
15 37 32 
SRP1[ ]	/* SetRefPoint1 */
SRP2[ ]	/* SetRefPoint2 */
IP[ ]	/* InterpolatePts */
PUSHW[ ]	/* 1 value pushed */
4 
SRP0[ ]	/* SetRefPoint0 */
PUSHW[ ]	/* 1 value pushed */
34 
MDRP[10000]	/* MoveDirectRelPt */
PUSHW[ ]	/* 1 value pushed */
1 
SRP0[ ]	/* SetRefPoint0 */
PUSHW[ ]	/* 1 value pushed */
35 
MDRP[10000]	/* MoveDirectRelPt */
PUSHW[ ]	/* 1 value pushed */
5 
SRP0[ ]	/* SetRefPoint0 */
PUSHW[ ]	/* 2 values pushed */
44 1 
MIRP[10100]	/* MoveIndirectRelPt */
IUP[0]	/* InterpolateUntPts */
IUP[1]	/* InterpolateUntPts */";
};
width = 600;
}
);
note = uni0243;
unicode = 579;
},
{
glyphname = uni018A;
layers = (
{
layerId = m01;
shapes = (
{
closed = 1;
nodes = (
(430,0,o),
(567,176,o),
(567,338,qs),
(567,496,o),
(420,668,o),
(269,668,qs),
(207,668,o),
(114,635,o),
(51,575,o),
(20,493,o),
(20,445,qs),
(20,376,o),
(79,288,o),
(130,262,q),
(170,320,l),
(132,343,o),
(94,401,o),
(94,449,qs),
(94,504,o),
(152,584,o),
(209,595,q),
(209,0,l),
(308,0,ls)
);
},
{
closed = 1;
nodes = (
(392,594,o),
(481,460,o),
(481,338,qs),
(481,209,o),
(395,68,o),
(313,68,qs),
(292,68,l),
(292,599,l)
);
}
);
userData = {
assembly = "SVTCA[0]	/* SetFreedomAndProjectionVectorToAxis */
PUSHW[ ]	/* 1 value pushed */
0 
RCVT[ ]	/* ReadCVT */
IF[ ]	/* If */
PUSHW[ ]	/* 1 value pushed */
16 
MDAP[1]	/* MoveDirectAbsPt */
ELSE[ ]	/* Else */
PUSHW[ ]	/* 2 values pushed */
16 13 
MIAP[0]	/* MoveIndirectAbsPt */
EIF[ ]	/* EndIf */
PUSHW[ ]	/* 1 value pushed */
0 
RCVT[ ]	/* ReadCVT */
IF[ ]	/* If */
PUSHW[ ]	/* 1 value pushed */
0 
MDAP[1]	/* MoveDirectAbsPt */
ELSE[ ]	/* Else */
PUSHW[ ]	/* 2 values pushed */
0 3 
MIAP[0]	/* MoveIndirectAbsPt */
EIF[ ]	/* EndIf */
PUSHW[ ]	/* 1 value pushed */
16 
SRP0[ ]	/* SetRefPoint0 */
PUSHW[ ]	/* 2 values pushed */
30 1 
MIRP[10100]	/* MoveIndirectRelPt */
PUSHW[ ]	/* 1 value pushed */
1 
MDRP[10000]	/* MoveDirectRelPt */
PUSHW[ ]	/* 1 value pushed */
0 
SRP0[ ]	/* SetRefPoint0 */
PUSHW[ ]	/* 2 values pushed */
23 1 
MIRP[10100]	/* MoveIndirectRelPt */
IUP[0]	/* InterpolateUntPts */
IUP[1]	/* InterpolateUntPts */";
};
width = 600;
}
);
note = uni018A;
unicode = 394;
},
{
glyphname = Eogonek;
layers = (
{
layerId = m01;
shapes = (
{
closed = 1;
nodes = (
(536,-204,o),
(553,-189,q),
(528,-146,l),
(518,-154,o),
(494,-167,o),
(478,-167,qs),
(457,-167,o),
(423,-142,o),
(423,-116,qs),
(423,-96,o),
(441,-57,o),
(470,-25,o),
(507,-3,o),
(526,0,q),
(530,0,l),
(530,71,l),
(199,71,l),
(199,309,l),
(470,309,l),
(470,380,l),
(199,380,l),
(199,586,l),
(520,586,l),
(520,656,l),
(115,656,l),
(115,0,l),
(445,0,l),
(412,-20,o),
(359,-89,o),
(359,-134,qs),
(359,-180,o),
(417,-225,o),
(462,-225,qs),
(491,-225,o)
);
}
);
userData = {
assembly = "SVTCA[0]	/* SetFreedomAndProjectionVectorToAxis */
PUSHW[ ]	/* 1 value pushed */
0 
RCVT[ ]	/* ReadCVT */
IF[ ]	/* If */
PUSHW[ ]	/* 1 value pushed */
8 
MDAP[1]	/* MoveDirectAbsPt */
ELSE[ ]	/* Else */
PUSHW[ ]	/* 2 values pushed */
8 13 
MIAP[0]	/* MoveIndirectAbsPt */
EIF[ ]	/* EndIf */
PUSHW[ ]	/* 1 value pushed */
0 
RCVT[ ]	/* ReadCVT */
IF[ ]	/* If */
PUSHW[ ]	/* 1 value pushed */
7 
MDAP[1]	/* MoveDirectAbsPt */
ELSE[ ]	/* Else */
PUSHW[ ]	/* 2 values pushed */
7 3 
MIAP[0]	/* MoveIndirectAbsPt */
EIF[ ]	/* EndIf */
PUSHW[ ]	/* 4 values pushed */
27 1 0 4 
CALL[ ]	/* CallFunction */
PUSHW[ ]	/* 1 value pushed */
8 
SRP0[ ]	/* SetRefPoint0 */
PUSHW[ ]	/* 2 values pushed */
10 1 
MIRP[10100]	/* MoveIndirectRelPt */
PUSHW[ ]	/* 3 values pushed */
14 8 7 
SRP1[ ]	/* SetRefPoint1 */
SRP2[ ]	/* SetRefPoint2 */
IP[ ]	/* InterpolatePts */
PUSHW[ ]	/* 1 value pushed */
14 
MDAP[1]	/* MoveDirectAbsPt */
PUSHW[ ]	/* 2 values pushed */
13 1 
MIRP[10100]	/* MoveIndirectRelPt */
PUSHW[ ]	/* 1 value pushed */
7 
SRP0[ ]	/* SetRefPoint0 */
PUSHW[ ]	/* 2 values pushed */
16 1 
MIRP[10100]	/* MoveIndirectRelPt */
PUSHW[ ]	/* 1 value pushed */
7 
SRP0[ ]	/* SetRefPoint0 */
PUSHW[ ]	/* 1 value pushed */
18 
MDRP[10000]	/* MoveDirectRelPt */
IUP[0]	/* InterpolateUntPts */
IUP[1]	/* InterpolateUntPts */";
};
width = 600;
}
);
note = Eogonek;
unicode = 280;
},
{
glyphname = uni0193;
layers = (
{
layerId = m01;
shapes = (
{
closed = 1;
nodes = (
(485,656,o),
(485,683,qs),
(485,706,o),
(513,737,o),
(539,737,qs),
(550,737,o),
(565,731,o),
(573,728,q),
(589,791,l),
(577,796,o),
(546,804,o),
(526,804,qs),
(476,804,o),
(415,746,o),
(415,699,qs),
(415,676,o),
(422,656,q),
(405,661,o),
(366,668,o),
(344,668,qs),
(280,668,o),
(173,621,o),
(96,534,o),
(53,407,o),
(53,328,qs),
(53,248,o),
(95,121,o),
(171,34,o),
(275,-12,o),
(337,-12,qs),
(401,-12,o),
(502,32,o),
(533,64,q),
(533,340,l),
(325,340,l),
(325,271,l),
(456,271,l),
(456,100,l),
(437,82,o),
(377,61,o),
(342,61,qs),
(294,61,o),
(218,99,o),
(167,169,o),
(140,268,o),
(140,330,qs),
(140,391,o),
(169,489,o),
(223,558,o),
(298,595,o),
(344,595,qs),
(392,595,o),
(454,561,o),
(478,535,q),
(525,588,l),
(505,617,o)
);
}
);
userData = {
assembly = "SVTCA[0]	/* SetFreedomAndProjectionVectorToAxis */
PUSHW[ ]	/* 1 value pushed */
0 
RCVT[ ]	/* ReadCVT */
IF[ ]	/* If */
PUSHW[ ]	/* 1 value pushed */
35 
MDAP[1]	/* MoveDirectAbsPt */
ELSE[ ]	/* Else */
PUSHW[ ]	/* 2 values pushed */
35 13 
MIAP[0]	/* MoveIndirectAbsPt */
EIF[ ]	/* EndIf */
PUSHW[ ]	/* 1 value pushed */
0 
RCVT[ ]	/* ReadCVT */
IF[ ]	/* If */
PUSHW[ ]	/* 1 value pushed */
25 
MDAP[1]	/* MoveDirectAbsPt */
ELSE[ ]	/* Else */
PUSHW[ ]	/* 2 values pushed */
25 3 
MIAP[0]	/* MoveIndirectAbsPt */
EIF[ ]	/* EndIf */
PUSHW[ ]	/* 4 values pushed */
50 1 43 4 
CALL[ ]	/* CallFunction */
PUSHW[ ]	/* 1 value pushed */
35 
SRP0[ ]	/* SetRefPoint0 */
PUSHW[ ]	/* 2 values pushed */
4 1 
MIRP[10100]	/* MoveIndirectRelPt */
PUSHW[ ]	/* 1 value pushed */
25 
SRP0[ ]	/* SetRefPoint0 */
PUSHW[ ]	/* 2 values pushed */
14 1 
MIRP[10100]	/* MoveIndirectRelPt */
PUSHW[ ]	/* 3 values pushed */
19 35 25 
SRP1[ ]	/* SetRefPoint1 */
SRP2[ ]	/* SetRefPoint2 */
IP[ ]	/* InterpolatePts */
PUSHW[ ]	/* 1 value pushed */
19 
MDAP[1]	/* MoveDirectAbsPt */
PUSHW[ ]	/* 2 values pushed */
21 1 
MIRP[10100]	/* MoveIndirectRelPt */
IUP[0]	/* InterpolateUntPts */
IUP[1]	/* InterpolateUntPts */";
};
width = 600;
}
);
note = uni0193;
unicode = 403;
},
{
glyphname = Hbar;
layers = (
{
layerId = m01;
shapes = (
{
closed = 1;
nodes = (
(79,0,l),
(163,0,l),
(163,309,l),
(437,309,l),
(437,0,l),
(521,0,l),
(521,484,l),
(590,484,l),
(590,546,l),
(521,546,l),
(521,656,l),
(437,656,l),
(437,546,l),
(163,546,l),
(163,656,l),
(79,656,l),
(79,546,l),
(10,540,l),
(10,484,l),
(79,484,l)
);
},
{
closed = 1;
nodes = (
(437,484,l),
(437,381,l),
(163,381,l),
(163,484,l)
);
}
);
userData = {
assembly = "SVTCA[0]	/* SetFreedomAndProjectionVectorToAxis */
PUSHW[ ]	/* 1 value pushed */
0 
RCVT[ ]	/* ReadCVT */
IF[ ]	/* If */
PUSHW[ ]	/* 1 value pushed */
3 
MDAP[1]	/* MoveDirectAbsPt */
ELSE[ ]	/* Else */
PUSHW[ ]	/* 2 values pushed */
3 13 
MIAP[0]	/* MoveIndirectAbsPt */
EIF[ ]	/* EndIf */
PUSHW[ ]	/* 1 value pushed */
0 
RCVT[ ]	/* ReadCVT */
IF[ ]	/* If */
PUSHW[ ]	/* 1 value pushed */
18 
MDAP[1]	/* MoveDirectAbsPt */
ELSE[ ]	/* Else */
PUSHW[ ]	/* 2 values pushed */
18 3 
MIAP[0]	/* MoveIndirectAbsPt */
EIF[ ]	/* EndIf */
PUSHW[ ]	/* 4 values pushed */
19 1 2 4 
CALL[ ]	/* CallFunction */
PUSHW[ ]	/* 1 value pushed */
2 
SRP0[ ]	/* SetRefPoint0 */
PUSHW[ ]	/* 1 value pushed */
6 
MDRP[10000]	/* MoveDirectRelPt */
PUSHW[ ]	/* 1 value pushed */
3 
SRP0[ ]	/* SetRefPoint0 */
PUSHW[ ]	/* 1 value pushed */
8 
MDRP[10000]	/* MoveDirectRelPt */
PUSHW[ ]	/* 1 value pushed */
6 
SRP0[ ]	/* SetRefPoint0 */
PUSHW[ ]	/* 1 value pushed */
10 
MDRP[10000]	/* MoveDirectRelPt */
PUSHW[ ]	/* 1 value pushed */
19 
SRP0[ ]	/* SetRefPoint0 */
PUSHW[ ]	/* 1 value pushed */
22 
MDRP[10000]	/* MoveDirectRelPt */
PUSHW[ ]	/* 1 value pushed */
11 
MDRP[10000]	/* MoveDirectRelPt */
PUSHW[ ]	/* 1 value pushed */
18 
SRP0[ ]	/* SetRefPoint0 */
PUSHW[ ]	/* 1 value pushed */
13 
MDRP[10000]	/* MoveDirectRelPt */
PUSHW[ ]	/* 3 values pushed */
15 3 18 
SRP1[ ]	/* SetRefPoint1 */
SRP2[ ]	/* SetRefPoint2 */
IP[ ]	/* InterpolatePts */
PUSHW[ ]	/* 1 value pushed */
15 
MDAP[1]	/* MoveDirectAbsPt */
PUSHW[ ]	/* 2 values pushed */
20 1 
MIRP[10100]	/* MoveIndirectRelPt */
IUP[0]	/* InterpolateUntPts */
IUP[1]	/* InterpolateUntPts */";
};
width = 600;
}
);
note = Hbar;
unicode = 294;
},
{
glyphname = Iogonek;
layers = (
{
layerId = m01;
shapes = (
{
closed = 1;
nodes = (
(385,-204,o),
(402,-189,q),
(377,-146,l),
(368,-154,o),
(344,-167,o),
(327,-167,qs),
(307,-167,o),
(273,-142,o),
(273,-116,qs),
(273,-88,o),
(309,-29,o),
(347,0,q),
(505,0,l),
(505,71,l),
(342,71,l),
(342,586,l),
(505,586,l),
(505,656,l),
(95,656,l),
(95,586,l),
(258,586,l),
(258,71,l),
(95,71,l),
(95,0,l),
(279,0,l),
(254,-24,o),
(208,-92,o),
(208,-134,qs),
(208,-180,o),
(267,-225,o),
(311,-225,qs),
(340,-225,o)
);
}
);
userData = {
assembly = "SVTCA[0]	/* SetFreedomAndProjectionVectorToAxis */
PUSHW[ ]	/* 1 value pushed */
0 
RCVT[ ]	/* ReadCVT */
IF[ ]	/* If */
PUSHW[ ]	/* 1 value pushed */
12 
MDAP[1]	/* MoveDirectAbsPt */
ELSE[ ]	/* Else */
PUSHW[ ]	/* 2 values pushed */
12 13 
MIAP[0]	/* MoveIndirectAbsPt */
EIF[ ]	/* EndIf */
PUSHW[ ]	/* 1 value pushed */
0 
RCVT[ ]	/* ReadCVT */
IF[ ]	/* If */
PUSHW[ ]	/* 1 value pushed */
7 
MDAP[1]	/* MoveDirectAbsPt */
ELSE[ ]	/* Else */
PUSHW[ ]	/* 2 values pushed */
7 3 
MIAP[0]	/* MoveIndirectAbsPt */
EIF[ ]	/* EndIf */
PUSHW[ ]	/* 4 values pushed */
25 1 0 4 
CALL[ ]	/* CallFunction */
PUSHW[ ]	/* 1 value pushed */
7 
SRP0[ ]	/* SetRefPoint0 */
PUSHW[ ]	/* 2 values pushed */
8 1 
MIRP[10100]	/* MoveIndirectRelPt */
PUSHW[ ]	/* 1 value pushed */
12 
SRP0[ ]	/* SetRefPoint0 */
PUSHW[ ]	/* 2 values pushed */
11 1 
MIRP[10100]	/* MoveIndirectRelPt */
PUSHW[ ]	/* 1 value pushed */
14 
MDRP[10000]	/* MoveDirectRelPt */
PUSHW[ ]	/* 1 value pushed */
8 
SRP0[ ]	/* SetRefPoint0 */
PUSHW[ ]	/* 1 value pushed */
17 
MDRP[10000]	/* MoveDirectRelPt */
PUSHW[ ]	/* 1 value pushed */
7 
SRP0[ ]	/* SetRefPoint0 */
PUSHW[ ]	/* 1 value pushed */
18 
MDRP[10000]	/* MoveDirectRelPt */
IUP[0]	/* InterpolateUntPts */
IUP[1]	/* InterpolateUntPts */";
};
width = 600;
}
);
note = Iogonek;
unicode = 302;
},
{
glyphname = Lslash;
layers = (
{
layerId = m01;
shapes = (
{
closed = 1;
nodes = (
(134,0,l),
(541,0,l),
(541,71,l),
(216,71,l),
(216,269,l),
(456,397,l),
(427,450,l),
(216,337,l),
(216,656,l),
(134,656,l),
(134,300,l),
(10,234,l),
(39,181,l),
(134,233,l)
);
}
);
userData = {
assembly = "SVTCA[0]	/* SetFreedomAndProjectionVectorToAxis */
PUSHW[ ]	/* 1 value pushed */
0 
RCVT[ ]	/* ReadCVT */
IF[ ]	/* If */
PUSHW[ ]	/* 1 value pushed */
3 
MDAP[1]	/* MoveDirectAbsPt */
ELSE[ ]	/* Else */
PUSHW[ ]	/* 2 values pushed */
3 13 
MIAP[0]	/* MoveIndirectAbsPt */
EIF[ ]	/* EndIf */
PUSHW[ ]	/* 1 value pushed */
0 
RCVT[ ]	/* ReadCVT */
IF[ ]	/* If */
PUSHW[ ]	/* 1 value pushed */
12 
MDAP[1]	/* MoveDirectAbsPt */
ELSE[ ]	/* Else */
PUSHW[ ]	/* 2 values pushed */
12 3 
MIAP[0]	/* MoveIndirectAbsPt */
EIF[ ]	/* EndIf */
PUSHW[ ]	/* 2 values pushed */
10 1 
MIRP[10100]	/* MoveIndirectRelPt */
IUP[0]	/* InterpolateUntPts */
IUP[1]	/* InterpolateUntPts */";
};
width = 600;
}
);
note = Lslash;
unicode = 321;
},
{
glyphname = uni01EA;
layers = (
{
layerId = m01;
shapes = (
{
closed = 1;
nodes = (
(392,-204,o),
(409,-189,q),
(384,-146,l),
(374,-154,o),
(350,-167,o),
(334,-167,qs),
(313,-167,o),
(279,-142,o),
(279,-116,qs),
(279,-85,o),
(325,-22,o),
(371,-2,qs),
(459,35,o),
(552,199,o),
(552,331,qs),
(552,409,o),
(515,534,o),
(448,621,o),
(355,668,o),
(300,668,qs),
(244,668,o),
(152,622,o),
(85,535,o),
(48,410,o),
(48,331,qs),
(48,260,o),
(79,139,o),
(139,49,o),
(228,-7,o),
(286,-11,q),
(258,-34,o),
(215,-94,o),
(215,-134,qs),
(215,-180,o),
(273,-225,o),
(318,-225,qs),
(347,-225,o)
);
},
{
closed = 1;
nodes = (
(134,202,o),
(134,331,qs),
(134,393,o),
(158,491,o),
(201,559,o),
(262,595,o),
(300,595,qs),
(337,595,o),
(399,559,o),
(442,491,o),
(466,393,o),
(466,331,qs),
(466,202,o),
(375,60,o),
(300,60,qs),
(225,60,o)
);
}
);
userData = {
assembly = "SVTCA[0]	/* SetFreedomAndProjectionVectorToAxis */
PUSHW[ ]	/* 1 value pushed */
0 
RCVT[ ]	/* ReadCVT */
IF[ ]	/* If */
PUSHW[ ]	/* 1 value pushed */
16 
MDAP[1]	/* MoveDirectAbsPt */
ELSE[ ]	/* Else */
PUSHW[ ]	/* 2 values pushed */
16 13 
MIAP[0]	/* MoveIndirectAbsPt */
EIF[ ]	/* EndIf */
PUSHW[ ]	/* 1 value pushed */
0 
RCVT[ ]	/* ReadCVT */
IF[ ]	/* If */
PUSHW[ ]	/* 1 value pushed */
6 
MDAP[1]	/* MoveDirectAbsPt */
ELSE[ ]	/* Else */
PUSHW[ ]	/* 2 values pushed */
6 3 
MIAP[0]	/* MoveIndirectAbsPt */
EIF[ ]	/* EndIf */
PUSHW[ ]	/* 4 values pushed */
30 1 0 4 
CALL[ ]	/* CallFunction */
PUSHW[ ]	/* 1 value pushed */
6 
SRP0[ ]	/* SetRefPoint0 */
PUSHW[ ]	/* 1 value pushed */
24 
MDRP[10000]	/* MoveDirectRelPt */
PUSHW[ ]	/* 1 value pushed */
6 
SRP0[ ]	/* SetRefPoint0 */
PUSHW[ ]	/* 2 values pushed */
37 1 
MIRP[10100]	/* MoveIndirectRelPt */
PUSHW[ ]	/* 1 value pushed */
16 
SRP0[ ]	/* SetRefPoint0 */
PUSHW[ ]	/* 2 values pushed */
45 1 
MIRP[10100]	/* MoveIndirectRelPt */
IUP[0]	/* InterpolateUntPts */
IUP[1]	/* InterpolateUntPts */";
};
width = 600;
}
);
note = uni01EA;
unicode = 490;
},
{
glyphname = Ohorn;
layers = (
{
layerId = m01;
shapes = (
{
closed = 1;
nodes = (
(448,35,o),
(515,123,o),
(552,250,o),
(552,331,qs),
(552,425,o),
(503,563,o),
(458,606,q),
(506,618,o),
(562,681,o),
(562,732,qs),
(562,755,o),
(550,796,o),
(539,813,q),
(474,784,l),
(481,772,o),
(489,741,o),
(489,726,qs),
(489,656,o),
(411,640,q),
(362,668,o),
(300,668,qs),
(244,668,o),
(152,622,o),
(85,536,o),
(48,410,o),
(48,331,qs),
(48,250,o),
(85,123,o),
(152,35,o),
(244,-12,o),
(300,-12,qs),
(355,-12,o)
);
},
{
closed = 1;
nodes = (
(201,98,o),
(158,168,o),
(134,268,o),
(134,331,qs),
(134,393,o),
(158,491,o),
(201,559,o),
(262,595,o),
(300,595,qs),
(337,595,o),
(399,559,o),
(442,491,o),
(466,393,o),
(466,331,qs),
(466,268,o),
(442,168,o),
(399,98,o),
(337,61,o),
(300,61,qs),
(262,61,o)
);
}
);
userData = {
assembly = "SVTCA[0]	/* SetFreedomAndProjectionVectorToAxis */
PUSHW[ ]	/* 1 value pushed */
0 
RCVT[ ]	/* ReadCVT */
IF[ ]	/* If */
PUSHW[ ]	/* 1 value pushed */
10 
MDAP[1]	/* MoveDirectAbsPt */
ELSE[ ]	/* Else */
PUSHW[ ]	/* 2 values pushed */
10 13 
MIAP[0]	/* MoveIndirectAbsPt */
EIF[ ]	/* EndIf */
PUSHW[ ]	/* 1 value pushed */
0 
RCVT[ ]	/* ReadCVT */
IF[ ]	/* If */
PUSHW[ ]	/* 1 value pushed */
0 
MDAP[1]	/* MoveDirectAbsPt */
ELSE[ ]	/* Else */
PUSHW[ ]	/* 2 values pushed */
0 3 
MIAP[0]	/* MoveIndirectAbsPt */
EIF[ ]	/* EndIf */
PUSHW[ ]	/* 1 value pushed */
10 
SRP0[ ]	/* SetRefPoint0 */
PUSHW[ ]	/* 1 value pushed */
18 
MDRP[11100]	/* MoveDirectRelPt */
PUSHW[ ]	/* 1 value pushed */
10 
SRP0[ ]	/* SetRefPoint0 */
PUSHW[ ]	/* 2 values pushed */
42 1 
MIRP[10100]	/* MoveIndirectRelPt */
PUSHW[ ]	/* 3 values pushed */
24 10 42 
SRP1[ ]	/* SetRefPoint1 */
SRP2[ ]	/* SetRefPoint2 */
IP[ ]	/* InterpolatePts */
PUSHW[ ]	/* 1 value pushed */
0 
SRP0[ ]	/* SetRefPoint0 */
PUSHW[ ]	/* 2 values pushed */
32 1 
MIRP[10100]	/* MoveIndirectRelPt */
IUP[0]	/* InterpolateUntPts */
IUP[1]	/* InterpolateUntPts */";
};
width = 600;
}
);
note = Ohorn;
unicode = 416;
},
{
glyphname = Oslash;
layers = (
{
layerId = m01;
shapes = (
{
closed = 1;
nodes = (
(448,35,o),
(515,123,o),
(552,250,o),
(552,331,qs),
(552,402,o),
(523,516,o),
(496,558,q),
(560,652,l),
(504,688,l),
(452,611,l),
(387,668,o),
(300,668,qs),
(244,668,o),
(152,622,o),
(85,536,o),
(48,410,o),
(48,331,qs),
(48,260,o),
(77,145,o),
(103,102,q),
(36,4,l),
(92,-32,l),
(146,48,l),
(211,-12,o),
(300,-12,qs),
(355,-12,o)
);
},
{
closed = 1;
nodes = (
(158,491,o),
(201,559,o),
(262,595,o),
(300,595,qs),
(362,595,o),
(406,545,q),
(157,181,l),
(134,244,o),
(134,331,qs),
(134,393,o)
);
},
{
closed = 1;
nodes = (
(192,115,q),
(442,480,l),
(466,420,o),
(466,331,qs),
(466,268,o),
(442,168,o),
(399,98,o),
(337,61,o),
(300,61,qs),
(235,61,o)
);
}
);
userData = {
assembly = "SVTCA[0]	/* SetFreedomAndProjectionVectorToAxis */
PUSHW[ ]	/* 1 value pushed */
0 
RCVT[ ]	/* ReadCVT */
IF[ ]	/* If */
PUSHW[ ]	/* 1 value pushed */
13 
MDAP[1]	/* MoveDirectAbsPt */
ELSE[ ]	/* Else */
PUSHW[ ]	/* 2 values pushed */
13 13 
MIAP[0]	/* MoveIndirectAbsPt */
EIF[ ]	/* EndIf */
PUSHW[ ]	/* 1 value pushed */
0 
RCVT[ ]	/* ReadCVT */
IF[ ]	/* If */
PUSHW[ ]	/* 1 value pushed */
0 
MDAP[1]	/* MoveDirectAbsPt */
ELSE[ ]	/* Else */
PUSHW[ ]	/* 2 values pushed */
0 3 
MIAP[0]	/* MoveIndirectAbsPt */
EIF[ ]	/* EndIf */
PUSHW[ ]	/* 3 values pushed */
28 13 0 
SRP1[ ]	/* SetRefPoint1 */
SRP2[ ]	/* SetRefPoint2 */
IP[ ]	/* InterpolatePts */
PUSHW[ ]	/* 3 values pushed */
2 0 28 
SRP1[ ]	/* SetRefPoint1 */
SRP2[ ]	/* SetRefPoint2 */
IP[ ]	/* InterpolatePts */
PUSHW[ ]	/* 3 values pushed */
5 28 0 
SRP1[ ]	/* SetRefPoint1 */
SRP2[ ]	/* SetRefPoint2 */
IP[ ]	/* InterpolatePts */
PUSHW[ ]	/* 3 values pushed */
43 0 13 
SRP1[ ]	/* SetRefPoint1 */
SRP2[ ]	/* SetRefPoint2 */
IP[ ]	/* InterpolatePts */
PUSHW[ ]	/* 3 values pushed */
15 43 13 
SRP1[ ]	/* SetRefPoint1 */
SRP2[ ]	/* SetRefPoint2 */
IP[ ]	/* InterpolatePts */
PUSHW[ ]	/* 3 values pushed */
18 13 43 
SRP1[ ]	/* SetRefPoint1 */
SRP2[ ]	/* SetRefPoint2 */
IP[ ]	/* InterpolatePts */
PUSHW[ ]	/* 3 values pushed */
29 0 13 
SRP1[ ]	/* SetRefPoint1 */
SRP2[ ]	/* SetRefPoint2 */
IP[ ]	/* InterpolatePts */
PUSHW[ ]	/* 1 value pushed */
13 
SRP0[ ]	/* SetRefPoint0 */
PUSHW[ ]	/* 2 values pushed */
31 1 
MIRP[10100]	/* MoveIndirectRelPt */
PUSHW[ ]	/* 1 value pushed */
0 
SRP0[ ]	/* SetRefPoint0 */
PUSHW[ ]	/* 2 values pushed */
36 1 
MIRP[10100]	/* MoveIndirectRelPt */
PUSHW[ ]	/* 3 values pushed */
44 13 0 
SRP1[ ]	/* SetRefPoint1 */
SRP2[ ]	/* SetRefPoint2 */
IP[ ]	/* InterpolatePts */
IUP[0]	/* InterpolateUntPts */
IUP[1]	/* InterpolateUntPts */";
};
width = 600;
}
);
note = Oslash;
unicode = 216;
},
{
glyphname = OE;
layers = (
{
layerId = m01;
shapes = (
{
closed = 1;
nodes = (
(591,71,l),
(387,71,l),
(387,309,l),
(535,309,l),
(535,380,l),
(387,380,l),
(387,587,l),
(581,587,l),
(581,657,l),
(299,657,ls),
(174,657,o),
(33,488,o),
(33,331,qs),
(33,173,o),
(171,0,o),
(296,0,qs),
(591,0,l)
);
},
{
closed = 1;
nodes = (
(119,205,o),
(119,331,qs),
(119,456,o),
(203,588,o),
(289,588,qs),
(311,588,l),
(311,68,l),
(289,68,ls),
(203,68,o)
);
}
);
userData = {
assembly = "SVTCA[0]	/* SetFreedomAndProjectionVectorToAxis */
PUSHW[ ]	/* 1 value pushed */
0 
RCVT[ ]	/* ReadCVT */
IF[ ]	/* If */
PUSHW[ ]	/* 1 value pushed */
6 
MDAP[1]	/* MoveDirectAbsPt */
ELSE[ ]	/* Else */
PUSHW[ ]	/* 2 values pushed */
6 13 
MIAP[0]	/* MoveIndirectAbsPt */
EIF[ ]	/* EndIf */
PUSHW[ ]	/* 1 value pushed */
0 
RCVT[ ]	/* ReadCVT */
IF[ ]	/* If */
PUSHW[ ]	/* 1 value pushed */
0 
MDAP[1]	/* MoveDirectAbsPt */
ELSE[ ]	/* Else */
PUSHW[ ]	/* 2 values pushed */
0 3 
MIAP[0]	/* MoveIndirectAbsPt */
EIF[ ]	/* EndIf */
PUSHW[ ]	/* 1 value pushed */
6 
SRP0[ ]	/* SetRefPoint0 */
PUSHW[ ]	/* 2 values pushed */
19 1 
MIRP[10100]	/* MoveIndirectRelPt */
PUSHW[ ]	/* 1 value pushed */
8 
MDRP[10000]	/* MoveDirectRelPt */
PUSHW[ ]	/* 1 value pushed */
8 
MDAP[1]	/* MoveDirectAbsPt */
PUSHW[ ]	/* 3 values pushed */
12 6 0 
SRP1[ ]	/* SetRefPoint1 */
SRP2[ ]	/* SetRefPoint2 */
IP[ ]	/* InterpolatePts */
PUSHW[ ]	/* 1 value pushed */
12 
MDAP[1]	/* MoveDirectAbsPt */
PUSHW[ ]	/* 2 values pushed */
11 1 
MIRP[10100]	/* MoveIndirectRelPt */
PUSHW[ ]	/* 1 value pushed */
0 
SRP0[ ]	/* SetRefPoint0 */
PUSHW[ ]	/* 2 values pushed */
18 1 
MIRP[10100]	/* MoveIndirectRelPt */
PUSHW[ ]	/* 1 value pushed */
15 
MDRP[10000]	/* MoveDirectRelPt */
PUSHW[ ]	/* 1 value pushed */
15 
MDAP[1]	/* MoveDirectAbsPt */
IUP[0]	/* InterpolateUntPts */
IUP[1]	/* InterpolateUntPts */";
};
width = 600;
}
);
note = OE;
unicode = 338;
},
{
glyphname = uni1E9E;
layers = (
{
layerId = m01;
shapes = (
{
closed = 1;
nodes = (
(498,15,o),
(545,63,o),
(569,129,o),
(569,167,qs),
(569,201,o),
(551,260,o),
(511,309,o),
(443,348,o),
(394,363,q),
(515,514,l),
(491,584,o),
(389,668,o),
(305,668,qs),
(252,668,o),
(168,634,o),
(110,572,o),
(78,483,o),
(78,428,qs),
(78,0,l),
(162,0,l),
(162,413,ls),
(162,509,o),
(240,599,o),
(305,599,qs),
(348,599,o),
(411,560,o),
(428,518,q),
(304,364,l),
(310,310,l),
(361,300,o),
(428,271,o),
(467,234,o),
(482,191,o),
(482,167,qs),
(482,119,o),
(429,58,o),
(383,58,qs),
(348,58,o),
(294,85,o),
(269,114,q),
(229,61,l),
(257,26,o),
(341,-12,o),
(390,-12,qs),
(432,-12,o)
);
}
);
userData = {
assembly = "SVTCA[0]	/* SetFreedomAndProjectionVectorToAxis */
PUSHW[ ]	/* 1 value pushed */
0 
RCVT[ ]	/* ReadCVT */
IF[ ]	/* If */
PUSHW[ ]	/* 1 value pushed */
31 
MDAP[1]	/* MoveDirectAbsPt */
ELSE[ ]	/* Else */
PUSHW[ ]	/* 2 values pushed */
31 13 
MIAP[0]	/* MoveIndirectAbsPt */
EIF[ ]	/* EndIf */
PUSHW[ ]	/* 1 value pushed */
0 
RCVT[ ]	/* ReadCVT */
IF[ ]	/* If */
PUSHW[ ]	/* 1 value pushed */
0 
MDAP[1]	/* MoveDirectAbsPt */
ELSE[ ]	/* Else */
PUSHW[ ]	/* 2 values pushed */
0 3 
MIAP[0]	/* MoveIndirectAbsPt */
EIF[ ]	/* EndIf */
PUSHW[ ]	/* 2 values pushed */
7 1 
MIRP[10100]	/* MoveIndirectRelPt */
PUSHW[ ]	/* 3 values pushed */
15 31 0 
SRP1[ ]	/* SetRefPoint1 */
SRP2[ ]	/* SetRefPoint2 */
IP[ ]	/* InterpolatePts */
PUSHW[ ]	/* 1 value pushed */
15 
SRP0[ ]	/* SetRefPoint0 */
PUSHW[ ]	/* 2 values pushed */
16 1 
MIRP[10100]	/* MoveIndirectRelPt */
PUSHW[ ]	/* 1 value pushed */
31 
SRP0[ ]	/* SetRefPoint0 */
PUSHW[ ]	/* 2 values pushed */
20 1 
MIRP[10100]	/* MoveIndirectRelPt */
PUSHW[ ]	/* 1 value pushed */
0 
SRP0[ ]	/* SetRefPoint0 */
PUSHW[ ]	/* 1 value pushed */
25 
MDRP[10000]	/* MoveDirectRelPt */
PUSHW[ ]	/* 1 value pushed */
25 
MDAP[1]	/* MoveDirectAbsPt */
PUSHW[ ]	/* 3 values pushed */
35 16 15 
SRP1[ ]	/* SetRefPoint1 */
SRP2[ ]	/* SetRefPoint2 */
IP[ ]	/* InterpolatePts */
IUP[0]	/* InterpolateUntPts */
IUP[1]	/* InterpolateUntPts */";
};
width = 600;
}
);
note = uni1E9E;
unicode = 7838;
},
{
glyphname = Tbar;
layers = (
{
layerId = m01;
shapes = (
{
closed = 1;
nodes = (
(258,0,l),
(342,0,l),
(342,306,l),
(484,306,l),
(484,368,l),
(342,368,l),
(342,586,l),
(558,586,l),
(558,656,l),
(42,656,l),
(42,586,l),
(258,586,l),
(258,368,l),
(206,368,l),
(116,364,l),
(116,306,l),
(258,306,l)
);
}
);
userData = {
assembly = "SVTCA[0]	/* SetFreedomAndProjectionVectorToAxis */
PUSHW[ ]	/* 1 value pushed */
0 
RCVT[ ]	/* ReadCVT */
IF[ ]	/* If */
PUSHW[ ]	/* 1 value pushed */
6 
MDAP[1]	/* MoveDirectAbsPt */
ELSE[ ]	/* Else */
PUSHW[ ]	/* 2 values pushed */
6 13 
MIAP[0]	/* MoveIndirectAbsPt */
EIF[ ]	/* EndIf */
PUSHW[ ]	/* 1 value pushed */
0 
RCVT[ ]	/* ReadCVT */
IF[ ]	/* If */
PUSHW[ ]	/* 1 value pushed */
15 
MDAP[1]	/* MoveDirectAbsPt */
ELSE[ ]	/* Else */
PUSHW[ ]	/* 2 values pushed */
15 3 
MIAP[0]	/* MoveIndirectAbsPt */
EIF[ ]	/* EndIf */
PUSHW[ ]	/* 3 values pushed */
12 6 15 
SRP1[ ]	/* SetRefPoint1 */
SRP2[ ]	/* SetRefPoint2 */
IP[ ]	/* InterpolatePts */
PUSHW[ ]	/* 1 value pushed */
12 
MDAP[1]	/* MoveDirectAbsPt */
PUSHW[ ]	/* 1 value pushed */
0 
MDRP[10000]	/* MoveDirectRelPt */
PUSHW[ ]	/* 1 value pushed */
12 
SRP0[ ]	/* SetRefPoint0 */
PUSHW[ ]	/* 2 values pushed */
11 1 
MIRP[10100]	/* MoveIndirectRelPt */
PUSHW[ ]	/* 1 value pushed */
3 
MDRP[10000]	/* MoveDirectRelPt */
PUSHW[ ]	/* 1 value pushed */
6 
SRP0[ ]	/* SetRefPoint0 */
PUSHW[ ]	/* 2 values pushed */
4 1 
MIRP[10100]	/* MoveIndirectRelPt */
PUSHW[ ]	/* 1 value pushed */
8 
MDRP[10000]	/* MoveDirectRelPt */
IUP[0]	/* InterpolateUntPts */
IUP[1]	/* InterpolateUntPts */";
};
width = 600;
}
);
note = Tbar;
unicode = 358;
},
{
glyphname = Uogonek;
layers = (
{
layerId = m01;
shapes = (
{
closed = 1;
nodes = (
(392,-204,o),
(409,-189,q),
(384,-146,l),
(374,-154,o),
(350,-167,o),
(334,-167,qs),
(313,-167,o),
(279,-142,o),
(279,-116,qs),
(279,-86,o),
(324,-24,o),
(383,0,qs),
(451,27,o),
(521,142,o),
(521,248,qs),
(521,656,l),
(440,656,l),
(440,246,ls),
(440,195,o),
(418,124,o),
(381,81,o),
(330,61,o),
(300,61,qs),
(270,61,o),
(220,81,o),
(184,124,o),
(163,195,o),
(163,246,qs),
(163,656,l),
(79,656,l),
(79,248,ls),
(79,120,o),
(189,-6,o),
(282,-11,q),
(272,-20,o),
(248,-45,o),
(228,-76,o),
(215,-113,o),
(215,-134,qs),
(215,-180,o),
(273,-225,o),
(318,-225,qs),
(347,-225,o)
);
}
);
userData = {
assembly = "SVTCA[0]	/* SetFreedomAndProjectionVectorToAxis */
PUSHW[ ]	/* 1 value pushed */
0 
RCVT[ ]	/* ReadCVT */
IF[ ]	/* If */
PUSHW[ ]	/* 1 value pushed */
12 
MDAP[1]	/* MoveDirectAbsPt */
ELSE[ ]	/* Else */
PUSHW[ ]	/* 2 values pushed */
12 13 
MIAP[0]	/* MoveIndirectAbsPt */
EIF[ ]	/* EndIf */
PUSHW[ ]	/* 1 value pushed */
0 
RCVT[ ]	/* ReadCVT */
IF[ ]	/* If */
PUSHW[ ]	/* 1 value pushed */
8 
MDAP[1]	/* MoveDirectAbsPt */
ELSE[ ]	/* Else */
PUSHW[ ]	/* 2 values pushed */
8 3 
MIAP[0]	/* MoveIndirectAbsPt */
EIF[ ]	/* EndIf */
PUSHW[ ]	/* 4 values pushed */
36 1 0 4 
CALL[ ]	/* CallFunction */
PUSHW[ ]	/* 1 value pushed */
8 
SRP0[ ]	/* SetRefPoint0 */
PUSHW[ ]	/* 2 values pushed */
19 1 
MIRP[10100]	/* MoveIndirectRelPt */
PUSHW[ ]	/* 1 value pushed */
12 
SRP0[ ]	/* SetRefPoint0 */
PUSHW[ ]	/* 1 value pushed */
26 
MDRP[10000]	/* MoveDirectRelPt */
PUSHW[ ]	/* 1 value pushed */
8 
SRP0[ ]	/* SetRefPoint0 */
PUSHW[ ]	/* 1 value pushed */
30 
MDRP[10000]	/* MoveDirectRelPt */
IUP[0]	/* InterpolateUntPts */
IUP[1]	/* InterpolateUntPts */";
};
width = 600;
}
);
note = Uogonek;
unicode = 370;
},
{
glyphname = Uhorn;
layers = (
{
layerId = m01;
shapes = (
{
closed = 1;
nodes = (
(430,16,o),
(488,79,o),
(521,177,o),
(521,248,qs),
(521,620,l),
(567,631,o),
(630,687,o),
(630,745,qs),
(630,768,o),
(618,808,o),
(607,825,q),
(542,797,l),
(549,785,o),
(557,754,o),
(557,739,qs),
(557,697,o),
(514,661,o),
(473,656,q),
(440,656,l),
(440,246,ls),
(440,195,o),
(419,124,o),
(381,81,o),
(331,61,o),
(301,61,qs),
(271,61,o),
(221,81,o),
(184,124,o),
(163,195,o),
(163,246,qs),
(163,656,l),
(79,656,l),
(79,248,ls),
(79,177,o),
(112,79,o),
(171,16,o),
(253,-12,o),
(301,-12,qs),
(349,-12,o)
);
}
);
userData = {
assembly = "SVTCA[0]	/* SetFreedomAndProjectionVectorToAxis */
PUSHW[ ]	/* 1 value pushed */
0 
RCVT[ ]	/* ReadCVT */
IF[ ]	/* If */
PUSHW[ ]	/* 1 value pushed */
6 
MDAP[1]	/* MoveDirectAbsPt */
ELSE[ ]	/* Else */
PUSHW[ ]	/* 2 values pushed */
6 13 
MIAP[0]	/* MoveIndirectAbsPt */
EIF[ ]	/* EndIf */
PUSHW[ ]	/* 1 value pushed */
0 
RCVT[ ]	/* ReadCVT */
IF[ ]	/* If */
PUSHW[ ]	/* 1 value pushed */
0 
MDAP[1]	/* MoveDirectAbsPt */
ELSE[ ]	/* Else */
PUSHW[ ]	/* 2 values pushed */
0 3 
MIAP[0]	/* MoveIndirectAbsPt */
EIF[ ]	/* EndIf */
PUSHW[ ]	/* 2 values pushed */
13 1 
MIRP[10100]	/* MoveIndirectRelPt */
PUSHW[ ]	/* 1 value pushed */
6 
SRP0[ ]	/* SetRefPoint0 */
PUSHW[ ]	/* 1 value pushed */
20 
MDRP[10000]	/* MoveDirectRelPt */
PUSHW[ ]	/* 1 value pushed */
27 
MDRP[11100]	/* MoveDirectRelPt */
PUSHW[ ]	/* 1 value pushed */
20 
SRP0[ ]	/* SetRefPoint0 */
PUSHW[ ]	/* 1 value pushed */
33 
MDRP[11100]	/* MoveDirectRelPt */
IUP[0]	/* InterpolateUntPts */
IUP[1]	/* InterpolateUntPts */";
};
width = 600;
}
);
note = Uhorn;
unicode = 431;
},
{
glyphname = Eth;
layers = (
{
layerId = m01;
shapes = (
{
closed = 1;
nodes = (
(398,0,o),
(553,174,o),
(553,331,qs),
(553,488,o),
(398,656,o),
(249,656,qs),
(87,656,l),
(87,376,l),
(12,370,l),
(12,314,l),
(87,314,l),
(87,0,l),
(253,0,ls)
);
},
{
closed = 1;
nodes = (
(314,314,l),
(314,376,l),
(170,376,l),
(170,588,l),
(243,588,ls),
(355,588,o),
(466,456,o),
(466,331,qs),
(466,206,o),
(355,68,o),
(243,68,qs),
(170,68,l),
(170,314,l)
);
}
);
userData = {
assembly = "SVTCA[0]	/* SetFreedomAndProjectionVectorToAxis */
PUSHW[ ]	/* 1 value pushed */
0 
RCVT[ ]	/* ReadCVT */
IF[ ]	/* If */
PUSHW[ ]	/* 1 value pushed */
5 
MDAP[1]	/* MoveDirectAbsPt */
ELSE[ ]	/* Else */
PUSHW[ ]	/* 2 values pushed */
5 13 
MIAP[0]	/* MoveIndirectAbsPt */
EIF[ ]	/* EndIf */
PUSHW[ ]	/* 1 value pushed */
0 
RCVT[ ]	/* ReadCVT */
IF[ ]	/* If */
PUSHW[ ]	/* 1 value pushed */
0 
MDAP[1]	/* MoveDirectAbsPt */
ELSE[ ]	/* Else */
PUSHW[ ]	/* 2 values pushed */
0 3 
MIAP[0]	/* MoveIndirectAbsPt */
EIF[ ]	/* EndIf */
PUSHW[ ]	/* 3 values pushed */
24 5 0 
SRP1[ ]	/* SetRefPoint1 */
SRP2[ ]	/* SetRefPoint2 */
IP[ ]	/* InterpolatePts */
PUSHW[ ]	/* 1 value pushed */
24 
MDAP[1]	/* MoveDirectAbsPt */
PUSHW[ ]	/* 1 value pushed */
2 
MDRP[10000]	/* MoveDirectRelPt */
PUSHW[ ]	/* 1 value pushed */
24 
SRP0[ ]	/* SetRefPoint0 */
PUSHW[ ]	/* 2 values pushed */
23 1 
MIRP[10100]	/* MoveIndirectRelPt */
PUSHW[ ]	/* 1 value pushed */
4 
MDRP[10000]	/* MoveDirectRelPt */
PUSHW[ ]	/* 1 value pushed */
0 
SRP0[ ]	/* SetRefPoint0 */
PUSHW[ ]	/* 2 values pushed */
14 1 
MIRP[10100]	/* MoveIndirectRelPt */
PUSHW[ ]	/* 1 value pushed */
5 
SRP0[ ]	/* SetRefPoint0 */
PUSHW[ ]	/* 2 values pushed */
20 1 
MIRP[10100]	/* MoveIndirectRelPt */
IUP[0]	/* InterpolateUntPts */
IUP[1]	/* InterpolateUntPts */";
};
width = 600;
}
);
note = Eth;
unicode = 208;
},
{
glyphname = Thorn;
layers = (
{
layerId = m01;
shapes = (
{
closed = 1;
nodes = (
(185,150,l),
(303,150,ls),
(357,150,o),
(446,174,o),
(510,224,o),
(545,301,o),
(545,353,qs),
(545,407,o),
(510,480,o),
(447,526,o),
(357,546,o),
(303,546,qs),
(185,546,l),
(185,656,l),
(101,656,l),
(101,0,l),
(185,0,l)
);
},
{
closed = 1;
nodes = (
(292,478,ls),
(377,478,o),
(462,424,o),
(462,353,qs),
(462,282,o),
(379,218,o),
(292,218,qs),
(185,218,l),
(185,478,l)
);
}
);
userData = {
assembly = "SVTCA[0]	/* SetFreedomAndProjectionVectorToAxis */
PUSHW[ ]	/* 1 value pushed */
0 
RCVT[ ]	/* ReadCVT */
IF[ ]	/* If */
PUSHW[ ]	/* 1 value pushed */
1 
MDAP[1]	/* MoveDirectAbsPt */
ELSE[ ]	/* Else */
PUSHW[ ]	/* 2 values pushed */
1 13 
MIAP[0]	/* MoveIndirectAbsPt */
EIF[ ]	/* EndIf */
PUSHW[ ]	/* 1 value pushed */
0 
RCVT[ ]	/* ReadCVT */
IF[ ]	/* If */
PUSHW[ ]	/* 1 value pushed */
16 
MDAP[1]	/* MoveDirectAbsPt */
ELSE[ ]	/* Else */
PUSHW[ ]	/* 2 values pushed */
16 3 
MIAP[0]	/* MoveIndirectAbsPt */
EIF[ ]	/* EndIf */
PUSHW[ ]	/* 4 values pushed */
18 1 14 4 
CALL[ ]	/* CallFunction */
PUSHW[ ]	/* 4 values pushed */
4 1 24 4 
CALL[ ]	/* CallFunction */
IUP[0]	/* InterpolateUntPts */
IUP[1]	/* InterpolateUntPts */";
};
width = 600;
}
);
note = Thorn;
unicode = 222;
},
{
glyphname = uni018F;
layers = (
{
layerId = m01;
shapes = (
{
closed = 1;
nodes = (
(447,36,o),
(513,125,o),
(550,251,o),
(550,330,qs),
(550,409,o),
(516,534,o),
(451,621,o),
(359,668,o),
(301,668,qs),
(243,668,o),
(156,627,o),
(125,595,q),
(165,538,l),
(190,564,o),
(256,596,o),
(297,596,qs),
(377,596,o),
(463,468,o),
(467,350,q),
(60,350,l),
(59,344,o),
(59,333,o),
(59,327,qs),
(59,250,o),
(93,125,o),
(156,37,o),
(245,-12,o),
(300,-12,qs),
(355,-12,o)
);
},
{
closed = 1;
nodes = (
(149,172,o),
(141,286,q),
(466,286,l),
(458,174,o),
(369,60,o),
(300,60,qs),
(231,60,o)
);
}
);
userData = {
assembly = "SVTCA[0]	/* SetFreedomAndProjectionVectorToAxis */
PUSHW[ ]	/* 1 value pushed */
0 
RCVT[ ]	/* ReadCVT */
IF[ ]	/* If */
PUSHW[ ]	/* 1 value pushed */
19 
MDAP[1]	/* MoveDirectAbsPt */
ELSE[ ]	/* Else */
PUSHW[ ]	/* 2 values pushed */
19 13 
MIAP[0]	/* MoveIndirectAbsPt */
EIF[ ]	/* EndIf */
PUSHW[ ]	/* 1 value pushed */
0 
RCVT[ ]	/* ReadCVT */
IF[ ]	/* If */
PUSHW[ ]	/* 1 value pushed */
0 
MDAP[1]	/* MoveDirectAbsPt */
ELSE[ ]	/* Else */
PUSHW[ ]	/* 2 values pushed */
0 3 
MIAP[0]	/* MoveIndirectAbsPt */
EIF[ ]	/* EndIf */
PUSHW[ ]	/* 3 values pushed */
33 19 0 
SRP1[ ]	/* SetRefPoint1 */
SRP2[ ]	/* SetRefPoint2 */
IP[ ]	/* InterpolatePts */
PUSHW[ ]	/* 1 value pushed */
33 
MDAP[1]	/* MoveDirectAbsPt */
PUSHW[ ]	/* 2 values pushed */
9 1 
MIRP[10100]	/* MoveIndirectRelPt */
PUSHW[ ]	/* 1 value pushed */
19 
SRP0[ ]	/* SetRefPoint0 */
PUSHW[ ]	/* 2 values pushed */
12 1 
MIRP[10100]	/* MoveIndirectRelPt */
PUSHW[ ]	/* 1 value pushed */
0 
SRP0[ ]	/* SetRefPoint0 */
PUSHW[ ]	/* 2 values pushed */
29 1 
MIRP[10100]	/* MoveIndirectRelPt */
IUP[0]	/* InterpolateUntPts */
IUP[1]	/* InterpolateUntPts */";
};
width = 600;
}
);
note = uni018F;
unicode = 399;
},
{
glyphname = Eng;
layers = (
{
layerId = m01;
shapes = (
{
closed = 1;
nodes = (
(482,26,o),
(526,108,o),
(549,240,o),
(549,335,qs),
(549,427,o),
(516,554,o),
(459,633,o),
(379,668,o),
(333,668,qs),
(285,668,o),
(198,616,o),
(166,579,q),
(166,656,l),
(85,656,l),
(85,0,l),
(168,0,l),
(168,501,l),
(196,541,o),
(278,595,o),
(315,595,qs),
(348,595,o),
(403,569,o),
(442,509,o),
(463,409,o),
(463,335,qs),
(463,257,o),
(449,154,o),
(424,92,o),
(389,67,o),
(369,67,qs),
(355,67,o),
(333,72,o),
(324,77,q),
(303,2,l),
(317,-5,o),
(359,-12,o),
(378,-12,qs),
(418,-12,o)
);
}
);
userData = {
assembly = "SVTCA[0]	/* SetFreedomAndProjectionVectorToAxis */
PUSHW[ ]	/* 1 value pushed */
0 
RCVT[ ]	/* ReadCVT */
IF[ ]	/* If */
PUSHW[ ]	/* 1 value pushed */
28 
MDAP[1]	/* MoveDirectAbsPt */
ELSE[ ]	/* Else */
PUSHW[ ]	/* 2 values pushed */
28 13 
MIAP[0]	/* MoveIndirectAbsPt */
EIF[ ]	/* EndIf */
PUSHW[ ]	/* 1 value pushed */
0 
RCVT[ ]	/* ReadCVT */
IF[ ]	/* If */
PUSHW[ ]	/* 1 value pushed */
0 
MDAP[1]	/* MoveDirectAbsPt */
ELSE[ ]	/* Else */
PUSHW[ ]	/* 2 values pushed */
0 3 
MIAP[0]	/* MoveIndirectAbsPt */
EIF[ ]	/* EndIf */
PUSHW[ ]	/* 2 values pushed */
7 1 
MIRP[10100]	/* MoveIndirectRelPt */
PUSHW[ ]	/* 1 value pushed */
28 
SRP0[ ]	/* SetRefPoint0 */
PUSHW[ ]	/* 2 values pushed */
17 1 
MIRP[10100]	/* MoveIndirectRelPt */
PUSHW[ ]	/* 1 value pushed */
0 
SRP0[ ]	/* SetRefPoint0 */
PUSHW[ ]	/* 1 value pushed */
22 
MDRP[10000]	/* MoveDirectRelPt */
PUSHW[ ]	/* 1 value pushed */
22 
MDAP[1]	/* MoveDirectAbsPt */
PUSHW[ ]	/* 1 value pushed */
28 
SRP0[ ]	/* SetRefPoint0 */
PUSHW[ ]	/* 1 value pushed */
23 
MDRP[10000]	/* MoveDirectRelPt */
PUSHW[ ]	/* 1 value pushed */
23 
MDAP[1]	/* MoveDirectAbsPt */
PUSHW[ ]	/* 3 values pushed */
25 28 22 
SRP1[ ]	/* SetRefPoint1 */
SRP2[ ]	/* SetRefPoint2 */
IP[ ]	/* InterpolatePts */
IUP[0]	/* InterpolateUntPts */
IUP[1]	/* InterpolateUntPts */";
};
width = 600;
}
);
note = Eng;
unicode = 330;
},
{
glyphname = IJ;
layers = (
{
layerId = m01;
shapes = (
{
closed = 1;
nodes = (
(195,656,l),
(112,656,l),
(112,0,l),
(195,0,l)
);
},
{
closed = 1;
nodes = (
(488,-77,o),
(488,-3,qs),
(488,656,l),
(405,656,l),
(405,0,ls),
(405,-45,o),
(380,-96,o),
(342,-96,qs),
(329,-96,o),
(304,-90,o),
(293,-86,q),
(277,-152,l),
(291,-157,o),
(328,-165,o),
(351,-165,qs),
(425,-165,o)
);
}
);
userData = {
assembly = "SVTCA[0]	/* SetFreedomAndProjectionVectorToAxis */
PUSHW[ ]	/* 1 value pushed */
0 
RCVT[ ]	/* ReadCVT */
IF[ ]	/* If */
PUSHW[ ]	/* 1 value pushed */
1 
MDAP[1]	/* MoveDirectAbsPt */
ELSE[ ]	/* Else */
PUSHW[ ]	/* 2 values pushed */
1 13 
MIAP[0]	/* MoveIndirectAbsPt */
EIF[ ]	/* EndIf */
PUSHW[ ]	/* 1 value pushed */
0 
RCVT[ ]	/* ReadCVT */
IF[ ]	/* If */
PUSHW[ ]	/* 1 value pushed */
0 
MDAP[1]	/* MoveDirectAbsPt */
ELSE[ ]	/* Else */
PUSHW[ ]	/* 2 values pushed */
0 3 
MIAP[0]	/* MoveIndirectAbsPt */
EIF[ ]	/* EndIf */
PUSHW[ ]	/* 4 values pushed */
11 1 4 4 
CALL[ ]	/* CallFunction */
PUSHW[ ]	/* 1 value pushed */
1 
SRP0[ ]	/* SetRefPoint0 */
PUSHW[ ]	/* 1 value pushed */
15 
MDRP[10000]	/* MoveDirectRelPt */
IUP[0]	/* InterpolateUntPts */
IUP[1]	/* InterpolateUntPts */";
};
width = 600;
}
);
note = IJ;
unicode = 306;
},
{
glyphname = uni004C00B7004C;
layers = (
{
layerId = m01;
shapes = (
{
closed = 1;
nodes = (
(275,71,l),
(144,71,l),
(144,656,l),
(68,656,l),
(68,0,l),
(275,0,l)
);
},
{
closed = 1;
nodes = (
(326,317,o),
(326,356,qs),
(326,395,o),
(279,438,o),
(246,438,qs),
(213,438,o),
(168,395,o),
(168,356,qs),
(168,317,o),
(213,272,o),
(246,272,qs),
(279,272,o)
);
},
{
closed = 1;
nodes = (
(554,71,l),
(424,71,l),
(424,656,l),
(348,656,l),
(348,0,l),
(554,0,l)
);
}
);
userData = {
assembly = "SVTCA[0]	/* SetFreedomAndProjectionVectorToAxis */
PUSHW[ ]	/* 1 value pushed */
0 
RCVT[ ]	/* ReadCVT */
IF[ ]	/* If */
PUSHW[ ]	/* 1 value pushed */
1 
MDAP[1]	/* MoveDirectAbsPt */
ELSE[ ]	/* Else */
PUSHW[ ]	/* 2 values pushed */
1 13 
MIAP[0]	/* MoveIndirectAbsPt */
EIF[ ]	/* EndIf */
PUSHW[ ]	/* 1 value pushed */
0 
RCVT[ ]	/* ReadCVT */
IF[ ]	/* If */
PUSHW[ ]	/* 1 value pushed */
0 
MDAP[1]	/* MoveDirectAbsPt */
ELSE[ ]	/* Else */
PUSHW[ ]	/* 2 values pushed */
0 3 
MIAP[0]	/* MoveIndirectAbsPt */
EIF[ ]	/* EndIf */
PUSHW[ ]	/* 3 values pushed */
12 6 3 
CALL[ ]	/* CallFunction */
PUSHW[ ]	/* 1 value pushed */
0 
SRP0[ ]	/* SetRefPoint0 */
PUSHW[ ]	/* 2 values pushed */
4 1 
MIRP[10100]	/* MoveIndirectRelPt */
PUSHW[ ]	/* 1 value pushed */
0 
SRP0[ ]	/* SetRefPoint0 */
PUSHW[ ]	/* 1 value pushed */
18 
MDRP[10000]	/* MoveDirectRelPt */
PUSHW[ ]	/* 1 value pushed */
1 
SRP0[ ]	/* SetRefPoint0 */
PUSHW[ ]	/* 1 value pushed */
19 
MDRP[10000]	/* MoveDirectRelPt */
PUSHW[ ]	/* 1 value pushed */
4 
SRP0[ ]	/* SetRefPoint0 */
PUSHW[ ]	/* 1 value pushed */
22 
MDRP[10000]	/* MoveDirectRelPt */
IUP[0]	/* InterpolateUntPts */
IUP[1]	/* InterpolateUntPts */";
};
width = 600;
}
);
note = uni004C00B7004C;
},
{
glyphname = aringacute;
layers = (
{
layerId = m01;
shapes = (
{
closed = 1;
nodes = (
(397,34,o),
(438,66,q),
(441,66,l),
(448,0,l),
(515,0,l),
(515,298,ls),
(515,389,o),
(418,498,o),
(318,498,qs),
(286,498,o),
(224,485,o),
(169,465,o),
(120,440,o),
(102,428,q),
(134,372,l),
(168,393,o),
(256,430,o),
(304,430,qs),
(339,430,o),
(388,410,o),
(418,377,o),
(432,333,o),
(433,308,q),
(339,300,o),
(205,272,o),
(120,228,o),
(81,167,o),
(81,126,qs),
(81,93,o),
(107,42,o),
(152,7,o),
(212,-12,o),
(246,-12,qs),
(298,-12,o)
);
},
{
closed = 1;
nodes = (
(208,63,o),
(179,82,o),
(161,111,o),
(161,132,qs),
(161,156,o),
(187,195,o),
(250,226,o),
(355,248,o),
(433,254,q),
(433,126,l),
(391,91,o),
(310,54,o),
(268,54,qs),
(247,54,o)
);
},
{
closed = 1;
nodes = (
(430,624,o),
(430,665,qs),
(430,699,o),
(389,750,o),
(352,758,q),
(425,793,l),
(390,843,l),
(257,746,l),
(234,733,o),
(210,691,o),
(210,665,qs),
(210,624,o),
(268,569,o),
(320,569,qs),
(372,569,o)
);
},
{
closed = 1;
nodes = (
(263,640,o),
(263,665,qs),
(263,691,o),
(296,724,o),
(320,724,qs),
(344,724,o),
(377,691,o),
(377,665,qs),
(377,640,o),
(344,606,o),
(320,606,qs),
(296,606,o)
);
}
);
userData = {
assembly = "SVTCA[0]	/* SetFreedomAndProjectionVectorToAxis */
PUSHW[ ]	/* 1 value pushed */
0 
RCVT[ ]	/* ReadCVT */
IF[ ]	/* If */
PUSHW[ ]	/* 1 value pushed */
24 
MDAP[1]	/* MoveDirectAbsPt */
ELSE[ ]	/* Else */
PUSHW[ ]	/* 2 values pushed */
24 7 
MIAP[0]	/* MoveIndirectAbsPt */
EIF[ ]	/* EndIf */
PUSHW[ ]	/* 1 value pushed */
0 
RCVT[ ]	/* ReadCVT */
IF[ ]	/* If */
PUSHW[ ]	/* 1 value pushed */
28 
MDAP[1]	/* MoveDirectAbsPt */
ELSE[ ]	/* Else */
PUSHW[ ]	/* 2 values pushed */
28 3 
MIAP[0]	/* MoveIndirectAbsPt */
EIF[ ]	/* EndIf */
PUSHW[ ]	/* 1 value pushed */
0 
RCVT[ ]	/* ReadCVT */
IF[ ]	/* If */
PUSHW[ ]	/* 1 value pushed */
0 
MDAP[1]	/* MoveDirectAbsPt */
ELSE[ ]	/* Else */
PUSHW[ ]	/* 2 values pushed */
0 3 
MIAP[0]	/* MoveIndirectAbsPt */
EIF[ ]	/* EndIf */
PUSHW[ ]	/* 4 values pushed */
63 1 48 4 
CALL[ ]	/* CallFunction */
PUSHW[ ]	/* 1 value pushed */
24 
SRP0[ ]	/* SetRefPoint0 */
PUSHW[ ]	/* 2 values pushed */
15 1 
MIRP[10100]	/* MoveIndirectRelPt */
PUSHW[ ]	/* 3 values pushed */
31 0 24 
SRP1[ ]	/* SetRefPoint1 */
SRP2[ ]	/* SetRefPoint2 */
IP[ ]	/* InterpolatePts */
PUSHW[ ]	/* 1 value pushed */
0 
SRP0[ ]	/* SetRefPoint0 */
PUSHW[ ]	/* 2 values pushed */
34 1 
MIRP[10100]	/* MoveIndirectRelPt */
IUP[0]	/* InterpolateUntPts */
IUP[1]	/* InterpolateUntPts */";
};
width = 600;
}
);
note = aringacute;
unicode = 507;
},
{
glyphname = aogonek;
layers = (
{
layerId = m01;
shapes = (
{
closed = 1;
nodes = (
(532,-206,o),
(549,-189,q),
(525,-150,l),
(516,-159,o),
(490,-171,o),
(473,-171,qs),
(450,-171,o),
(414,-145,o),
(414,-116,qs),
(414,-85,o),
(461,-24,o),
(515,0,q),
(515,298,ls),
(515,389,o),
(418,498,o),
(318,498,qs),
(286,498,o),
(224,485,o),
(169,465,o),
(120,440,o),
(102,428,q),
(134,372,l),
(168,393,o),
(256,430,o),
(304,430,qs),
(339,430,o),
(388,410,o),
(418,377,o),
(432,333,o),
(433,308,q),
(339,300,o),
(205,272,o),
(120,228,o),
(81,167,o),
(81,126,qs),
(81,93,o),
(107,42,o),
(152,7,o),
(212,-12,o),
(246,-12,qs),
(298,-12,o),
(397,34,o),
(438,66,q),
(441,66,l),
(448,5,l),
(409,-19,o),
(353,-87,o),
(353,-132,qs),
(353,-180,o),
(412,-225,o),
(456,-225,qs),
(485,-225,o)
);
},
{
closed = 1;
nodes = (
(208,63,o),
(179,82,o),
(161,111,o),
(161,132,qs),
(161,156,o),
(187,195,o),
(250,226,o),
(355,248,o),
(433,254,q),
(433,126,l),
(391,91,o),
(310,54,o),
(268,54,qs),
(247,54,o)
);
}
);
userData = {
assembly = "SVTCA[0]	/* SetFreedomAndProjectionVectorToAxis */
PUSHW[ ]	/* 1 value pushed */
0 
RCVT[ ]	/* ReadCVT */
IF[ ]	/* If */
PUSHW[ ]	/* 1 value pushed */
35 
MDAP[1]	/* MoveDirectAbsPt */
ELSE[ ]	/* Else */
PUSHW[ ]	/* 2 values pushed */
35 7 
MIAP[0]	/* MoveIndirectAbsPt */
EIF[ ]	/* EndIf */
PUSHW[ ]	/* 1 value pushed */
0 
RCVT[ ]	/* ReadCVT */
IF[ ]	/* If */
PUSHW[ ]	/* 1 value pushed */
11 
MDAP[1]	/* MoveDirectAbsPt */
ELSE[ ]	/* Else */
PUSHW[ ]	/* 2 values pushed */
11 3 
MIAP[0]	/* MoveIndirectAbsPt */
EIF[ ]	/* EndIf */
PUSHW[ ]	/* 4 values pushed */
45 1 0 4 
CALL[ ]	/* CallFunction */
PUSHW[ ]	/* 1 value pushed */
11 
SRP0[ ]	/* SetRefPoint0 */
PUSHW[ ]	/* 1 value pushed */
6 
MDRP[10000]	/* MoveDirectRelPt */
PUSHW[ ]	/* 1 value pushed */
6 
MDAP[1]	/* MoveDirectAbsPt */
PUSHW[ ]	/* 3 values pushed */
21 35 11 
SRP1[ ]	/* SetRefPoint1 */
SRP2[ ]	/* SetRefPoint2 */
IP[ ]	/* InterpolatePts */
PUSHW[ ]	/* 1 value pushed */
21 
MDAP[1]	/* MoveDirectAbsPt */
PUSHW[ ]	/* 1 value pushed */
35 
SRP0[ ]	/* SetRefPoint0 */
PUSHW[ ]	/* 2 values pushed */
26 1 
MIRP[10100]	/* MoveIndirectRelPt */
PUSHW[ ]	/* 1 value pushed */
6 
SRP0[ ]	/* SetRefPoint0 */
PUSHW[ ]	/* 1 value pushed */
39 
MDRP[10000]	/* MoveDirectRelPt */
PUSHW[ ]	/* 1 value pushed */
39 
MDAP[1]	/* MoveDirectAbsPt */
PUSHW[ ]	/* 1 value pushed */
11 
SRP0[ ]	/* SetRefPoint0 */
PUSHW[ ]	/* 2 values pushed */
52 1 
MIRP[10100]	/* MoveIndirectRelPt */
PUSHW[ ]	/* 1 value pushed */
21 
SRP0[ ]	/* SetRefPoint0 */
PUSHW[ ]	/* 2 values pushed */
56 1 
MIRP[10100]	/* MoveIndirectRelPt */
IUP[0]	/* InterpolateUntPts */
IUP[1]	/* InterpolateUntPts */";
};
width = 600;
}
);
note = aogonek;
unicode = 261;
},
{
glyphname = ae;
layers = (
{
layerId = m01;
shapes = (
{
closed = 1;
nodes = (
(269,33,o),
(304,75,q),
(328,33,o),
(403,-12,o),
(454,-12,qs),
(492,-12,o),
(557,13,o),
(582,31,q),
(552,87,l),
(532,73,o),
(485,55,o),
(457,55,qs),
(400,55,o),
(336,143,o),
(332,220,q),
(593,220,l),
(595,233,o),
(597,262,o),
(597,276,qs),
(597,321,o),
(579,401,o),
(542,462,o),
(486,498,o),
(448,498,qs),
(407,498,o),
(333,452,o),
(308,398,q),
(291,452,o),
(229,498,o),
(185,498,qs),
(142,498,o),
(63,466,o),
(33,446,q),
(64,390,l),
(87,406,o),
(148,430,o),
(178,430,qs),
(216,430,o),
(264,373,o),
(266,302,q),
(134,285,o),
(17,194,o),
(17,120,qs),
(17,58,o),
(89,-12,o),
(145,-12,qs),
(190,-12,o)
);
},
{
closed = 1;
nodes = (
(93,93,o),
(93,128,qs),
(93,150,o),
(109,188,o),
(149,218,o),
(215,241,o),
(266,249,q),
(266,242,ls),
(266,177,o),
(283,123,q),
(257,89,o),
(195,54,o),
(167,54,qs),
(134,54,o)
);
},
{
closed = 1;
nodes = (
(530,284,q),
(333,284,l),
(341,365,o),
(405,433,o),
(443,433,qs),
(526,433,o)
);
}
);
userData = {
assembly = "SVTCA[0]	/* SetFreedomAndProjectionVectorToAxis */
PUSHW[ ]	/* 1 value pushed */
0 
RCVT[ ]	/* ReadCVT */
IF[ ]	/* If */
PUSHW[ ]	/* 1 value pushed */
16 
MDAP[1]	/* MoveDirectAbsPt */
ELSE[ ]	/* Else */
PUSHW[ ]	/* 2 values pushed */
16 7 
MIAP[0]	/* MoveIndirectAbsPt */
EIF[ ]	/* EndIf */
PUSHW[ ]	/* 1 value pushed */
0 
RCVT[ ]	/* ReadCVT */
IF[ ]	/* If */
PUSHW[ ]	/* 1 value pushed */
0 
MDAP[1]	/* MoveDirectAbsPt */
ELSE[ ]	/* Else */
PUSHW[ ]	/* 2 values pushed */
0 3 
MIAP[0]	/* MoveIndirectAbsPt */
EIF[ ]	/* EndIf */
PUSHW[ ]	/* 3 values pushed */
53 16 0 
SRP1[ ]	/* SetRefPoint1 */
SRP2[ ]	/* SetRefPoint2 */
IP[ ]	/* InterpolatePts */
PUSHW[ ]	/* 1 value pushed */
53 
MDAP[1]	/* MoveDirectAbsPt */
PUSHW[ ]	/* 2 values pushed */
6 1 
MIRP[10100]	/* MoveIndirectRelPt */
PUSHW[ ]	/* 1 value pushed */
16 
SRP0[ ]	/* SetRefPoint0 */
PUSHW[ ]	/* 2 values pushed */
9 1 
MIRP[10100]	/* MoveIndirectRelPt */
PUSHW[ ]	/* 3 values pushed */
19 16 0 
SRP1[ ]	/* SetRefPoint1 */
SRP2[ ]	/* SetRefPoint2 */
IP[ ]	/* InterpolatePts */
PUSHW[ ]	/* 1 value pushed */
16 
SRP0[ ]	/* SetRefPoint0 */
PUSHW[ ]	/* 1 value pushed */
22 
MDRP[10000]	/* MoveDirectRelPt */
PUSHW[ ]	/* 3 values pushed */
30 16 0 
SRP1[ ]	/* SetRefPoint1 */
SRP2[ ]	/* SetRefPoint2 */
IP[ ]	/* InterpolatePts */
PUSHW[ ]	/* 1 value pushed */
30 
MDAP[1]	/* MoveDirectAbsPt */
PUSHW[ ]	/* 1 value pushed */
0 
SRP0[ ]	/* SetRefPoint0 */
PUSHW[ ]	/* 2 values pushed */
47 1 
MIRP[10100]	/* MoveIndirectRelPt */
PUSHW[ ]	/* 1 value pushed */
34 
MDRP[10000]	/* MoveDirectRelPt */
PUSHW[ ]	/* 1 value pushed */
0 
SRP0[ ]	/* SetRefPoint0 */
PUSHW[ ]	/* 1 value pushed */
41 
MDRP[10000]	/* MoveDirectRelPt */
PUSHW[ ]	/* 3 values pushed */
44 0 16 
SRP1[ ]	/* SetRefPoint1 */
SRP2[ ]	/* SetRefPoint2 */
IP[ ]	/* InterpolatePts */
PUSHW[ ]	/* 1 value pushed */
9 
SRP0[ ]	/* SetRefPoint0 */
PUSHW[ ]	/* 1 value pushed */
61 
MDRP[10000]	/* MoveDirectRelPt */
PUSHW[ ]	/* 1 value pushed */
30 
SRP0[ ]	/* SetRefPoint0 */
PUSHW[ ]	/* 2 values pushed */
64 1 
MIRP[10100]	/* MoveIndirectRelPt */
IUP[0]	/* InterpolateUntPts */
IUP[1]	/* InterpolateUntPts */";
};
width = 600;
}
);
note = ae;
unicode = 230;
},
{
glyphname = uni0180;
layers = (
{
layerId = m01;
shapes = (
{
closed = 1;
nodes = (
(443,22,o),
(504,87,o),
(540,181,o),
(540,241,qs),
(540,295,o),
(514,383,o),
(463,444,o),
(387,478,o),
(338,478,qs),
(295,478,o),
(208,438,o),
(175,404,q),
(172,404,l),
(175,495,l),
(175,562,l),
(388,562,l),
(388,626,l),
(175,626,l),
(175,712,l),
(93,712,l),
(93,626,l),
(20,621,l),
(20,562,l),
(93,562,l),
(93,0,l),
(159,0,l),
(166,54,l),
(169,54,l),
(204,23,o),
(285,-12,o),
(320,-12,qs),
(363,-12,o)
);
},
{
closed = 1;
nodes = (
(210,83,o),
(175,114,q),
(175,336,l),
(213,374,o),
(286,409,o),
(318,409,qs),
(391,409,o),
(455,316,o),
(455,240,qs),
(455,154,o),
(371,57,o),
(307,57,qs),
(281,57,o)
);
}
);
userData = {
assembly = "SVTCA[0]	/* SetFreedomAndProjectionVectorToAxis */
PUSHW[ ]	/* 1 value pushed */
0 
RCVT[ ]	/* ReadCVT */
IF[ ]	/* If */
PUSHW[ ]	/* 1 value pushed */
11 
MDAP[1]	/* MoveDirectAbsPt */
ELSE[ ]	/* Else */
PUSHW[ ]	/* 2 values pushed */
11 15 
MIAP[0]	/* MoveIndirectAbsPt */
EIF[ ]	/* EndIf */
PUSHW[ ]	/* 1 value pushed */
0 
RCVT[ ]	/* ReadCVT */
IF[ ]	/* If */
PUSHW[ ]	/* 1 value pushed */
0 
MDAP[1]	/* MoveDirectAbsPt */
ELSE[ ]	/* Else */
PUSHW[ ]	/* 2 values pushed */
0 3 
MIAP[0]	/* MoveIndirectAbsPt */
EIF[ ]	/* EndIf */
PUSHW[ ]	/* 1 value pushed */
11 
SRP0[ ]	/* SetRefPoint0 */
PUSHW[ ]	/* 1 value pushed */
13 
MDRP[11100]	/* MoveDirectRelPt */
PUSHW[ ]	/* 2 values pushed */
16 1 
MIRP[10100]	/* MoveIndirectRelPt */
PUSHW[ ]	/* 1 value pushed */
22 
MDRP[11100]	/* MoveDirectRelPt */
PUSHW[ ]	/* 3 values pushed */
3 0 22 
SRP1[ ]	/* SetRefPoint1 */
SRP2[ ]	/* SetRefPoint2 */
IP[ ]	/* InterpolatePts */
PUSHW[ ]	/* 1 value pushed */
0 
SRP0[ ]	/* SetRefPoint0 */
PUSHW[ ]	/* 1 value pushed */
6 
MDRP[10000]	/* MoveDirectRelPt */
PUSHW[ ]	/* 1 value pushed */
6 
MDAP[1]	/* MoveDirectAbsPt */
PUSHW[ ]	/* 1 value pushed */
16 
SRP0[ ]	/* SetRefPoint0 */
PUSHW[ ]	/* 1 value pushed */
7 
MDRP[10000]	/* MoveDirectRelPt */
PUSHW[ ]	/* 1 value pushed */
13 
SRP0[ ]	/* SetRefPoint0 */
PUSHW[ ]	/* 1 value pushed */
10 
MDRP[10000]	/* MoveDirectRelPt */
PUSHW[ ]	/* 3 values pushed */
18 22 0 
SRP1[ ]	/* SetRefPoint1 */
SRP2[ ]	/* SetRefPoint2 */
IP[ ]	/* InterpolatePts */
PUSHW[ ]	/* 1 value pushed */
0 
SRP0[ ]	/* SetRefPoint0 */
PUSHW[ ]	/* 2 values pushed */
32 1 
MIRP[10100]	/* MoveIndirectRelPt */
PUSHW[ ]	/* 1 value pushed */
22 
SRP0[ ]	/* SetRefPoint0 */
PUSHW[ ]	/* 2 values pushed */
38 1 
MIRP[10100]	/* MoveIndirectRelPt */
PUSHW[ ]	/* 1 value pushed */
18 
SRP0[ ]	/* SetRefPoint0 */
PUSHW[ ]	/* 2 values pushed */
41 1 
MIRP[10100]	/* MoveIndirectRelPt */
PUSHW[ ]	/* 1 value pushed */
3 
SRP0[ ]	/* SetRefPoint0 */
PUSHW[ ]	/* 2 values pushed */
42 1 
MIRP[10100]	/* MoveIndirectRelPt */
IUP[0]	/* InterpolateUntPts */
IUP[1]	/* InterpolateUntPts */";
};
width = 600;
}
);
note = uni0180;
unicode = 384;
},
{
glyphname = dcaron;
layers = (
{
layerId = m01;
shapes = (
{
closed = 1;
nodes = (
(376,34,o),
(405,64,q),
(408,64,l),
(415,0,l),
(479,0,l),
(479,712,l),
(400,712,l),
(400,525,l),
(405,435,l),
(402,435,l),
(370,464,o),
(306,498,o),
(264,498,qs),
(223,498,o),
(147,462,o),
(89,396,o),
(54,301,o),
(54,242,qs),
(54,181,o),
(83,87,o),
(135,22,o),
(209,-12,o),
(254,-12,qs),
(298,-12,o)
);
},
{
closed = 1;
nodes = (
(135,155,o),
(135,243,qs),
(135,285,o),
(158,353,o),
(197,402,o),
(250,429,o),
(280,429,qs),
(310,429,o),
(368,402,o),
(400,372,q),
(400,130,l),
(336,57,o),
(271,57,qs),
(207,57,o)
);
},
{
closed = 1;
nodes = (
(619,735,l),
(619,816,l),
(545,816,l),
(548,548,l),
(605,548,l)
);
}
);
userData = {
assembly = "SVTCA[0]	/* SetFreedomAndProjectionVectorToAxis */
PUSHW[ ]	/* 1 value pushed */
0 
RCVT[ ]	/* ReadCVT */
IF[ ]	/* If */
PUSHW[ ]	/* 1 value pushed */
10 
MDAP[1]	/* MoveDirectAbsPt */
ELSE[ ]	/* Else */
PUSHW[ ]	/* 2 values pushed */
10 7 
MIAP[0]	/* MoveIndirectAbsPt */
EIF[ ]	/* EndIf */
PUSHW[ ]	/* 1 value pushed */
0 
RCVT[ ]	/* ReadCVT */
IF[ ]	/* If */
PUSHW[ ]	/* 1 value pushed */
16 
MDAP[1]	/* MoveDirectAbsPt */
ELSE[ ]	/* Else */
PUSHW[ ]	/* 2 values pushed */
16 15 
MIAP[0]	/* MoveIndirectAbsPt */
EIF[ ]	/* EndIf */
PUSHW[ ]	/* 1 value pushed */
0 
RCVT[ ]	/* ReadCVT */
IF[ ]	/* If */
PUSHW[ ]	/* 1 value pushed */
0 
MDAP[1]	/* MoveDirectAbsPt */
ELSE[ ]	/* Else */
PUSHW[ ]	/* 2 values pushed */
0 3 
MIAP[0]	/* MoveIndirectAbsPt */
EIF[ ]	/* EndIf */
PUSHW[ ]	/* 3 values pushed */
40 38 3 
CALL[ ]	/* CallFunction */
PUSHW[ ]	/* 3 values pushed */
13 10 0 
SRP1[ ]	/* SetRefPoint1 */
SRP2[ ]	/* SetRefPoint2 */
IP[ ]	/* InterpolatePts */
PUSHW[ ]	/* 1 value pushed */
0 
SRP0[ ]	/* SetRefPoint0 */
PUSHW[ ]	/* 1 value pushed */
18 
MDRP[10000]	/* MoveDirectRelPt */
PUSHW[ ]	/* 1 value pushed */
18 
MDAP[1]	/* MoveDirectAbsPt */
PUSHW[ ]	/* 3 values pushed */
20 0 10 
SRP1[ ]	/* SetRefPoint1 */
SRP2[ ]	/* SetRefPoint2 */
IP[ ]	/* InterpolatePts */
PUSHW[ ]	/* 1 value pushed */
0 
SRP0[ ]	/* SetRefPoint0 */
PUSHW[ ]	/* 2 values pushed */
24 1 
MIRP[10100]	/* MoveIndirectRelPt */
PUSHW[ ]	/* 1 value pushed */
20 
SRP0[ ]	/* SetRefPoint0 */
PUSHW[ ]	/* 2 values pushed */
26 1 
MIRP[10100]	/* MoveIndirectRelPt */
PUSHW[ ]	/* 1 value pushed */
13 
SRP0[ ]	/* SetRefPoint0 */
PUSHW[ ]	/* 2 values pushed */
27 1 
MIRP[10100]	/* MoveIndirectRelPt */
PUSHW[ ]	/* 1 value pushed */
10 
SRP0[ ]	/* SetRefPoint0 */
PUSHW[ ]	/* 2 values pushed */
30 1 
MIRP[10100]	/* MoveIndirectRelPt */
IUP[0]	/* InterpolateUntPts */
IUP[1]	/* InterpolateUntPts */";
};
width = 600;
}
);
note = dcaron;
unicode = 271;
},
{
glyphname = dcroat;
layers = (
{
layerId = m01;
shapes = (
{
closed = 1;
nodes = (
(399,33,o),
(429,64,q),
(432,64,l),
(439,0,l),
(507,0,l),
(507,562,l),
(580,568,l),
(580,626,l),
(507,626,l),
(507,712,l),
(425,712,l),
(425,626,l),
(250,626,l),
(250,562,l),
(425,562,l),
(425,505,l),
(429,415,l),
(426,415,l),
(394,444,o),
(326,478,o),
(281,478,qs),
(238,478,o),
(158,444,o),
(97,380,o),
(60,289,o),
(60,232,qs),
(60,173,o),
(90,83,o),
(146,20,o),
(223,-12,o),
(271,-12,qs),
(316,-12,o)
);
},
{
closed = 1;
nodes = (
(145,150,o),
(145,233,qs),
(145,272,o),
(169,337,o),
(210,383,o),
(266,409,o),
(298,409,qs),
(329,409,o),
(392,383,o),
(425,352,q),
(425,130,l),
(360,57,o),
(288,57,qs),
(220,57,o)
);
}
);
userData = {
assembly = "SVTCA[0]	/* SetFreedomAndProjectionVectorToAxis */
PUSHW[ ]	/* 1 value pushed */
0 
RCVT[ ]	/* ReadCVT */
IF[ ]	/* If */
PUSHW[ ]	/* 1 value pushed */
20 
MDAP[1]	/* MoveDirectAbsPt */
ELSE[ ]	/* Else */
PUSHW[ ]	/* 2 values pushed */
20 15 
MIAP[0]	/* MoveIndirectAbsPt */
EIF[ ]	/* EndIf */
PUSHW[ ]	/* 1 value pushed */
0 
RCVT[ ]	/* ReadCVT */
IF[ ]	/* If */
PUSHW[ ]	/* 1 value pushed */
0 
MDAP[1]	/* MoveDirectAbsPt */
ELSE[ ]	/* Else */
PUSHW[ ]	/* 2 values pushed */
0 3 
MIAP[0]	/* MoveIndirectAbsPt */
EIF[ ]	/* EndIf */
PUSHW[ ]	/* 1 value pushed */
20 
SRP0[ ]	/* SetRefPoint0 */
PUSHW[ ]	/* 1 value pushed */
19 
MDRP[11100]	/* MoveDirectRelPt */
PUSHW[ ]	/* 2 values pushed */
16 1 
MIRP[10100]	/* MoveIndirectRelPt */
PUSHW[ ]	/* 1 value pushed */
10 
MDRP[11100]	/* MoveDirectRelPt */
PUSHW[ ]	/* 1 value pushed */
19 
SRP0[ ]	/* SetRefPoint0 */
PUSHW[ ]	/* 1 value pushed */
22 
MDRP[10000]	/* MoveDirectRelPt */
PUSHW[ ]	/* 1 value pushed */
16 
SRP0[ ]	/* SetRefPoint0 */
PUSHW[ ]	/* 1 value pushed */
25 
MDRP[10000]	/* MoveDirectRelPt */
PUSHW[ ]	/* 1 value pushed */
0 
SRP0[ ]	/* SetRefPoint0 */
PUSHW[ ]	/* 1 value pushed */
27 
MDRP[10000]	/* MoveDirectRelPt */
PUSHW[ ]	/* 1 value pushed */
27 
MDAP[1]	/* MoveDirectAbsPt */
PUSHW[ ]	/* 3 values pushed */
28 0 10 
SRP1[ ]	/* SetRefPoint1 */
SRP2[ ]	/* SetRefPoint2 */
IP[ ]	/* InterpolatePts */
PUSHW[ ]	/* 1 value pushed */
0 
SRP0[ ]	/* SetRefPoint0 */
PUSHW[ ]	/* 2 values pushed */
32 1 
MIRP[10100]	/* MoveIndirectRelPt */
PUSHW[ ]	/* 1 value pushed */
28 
SRP0[ ]	/* SetRefPoint0 */
PUSHW[ ]	/* 2 values pushed */
34 1 
MIRP[10100]	/* MoveIndirectRelPt */
PUSHW[ ]	/* 1 value pushed */
10 
SRP0[ ]	/* SetRefPoint0 */
PUSHW[ ]	/* 2 values pushed */
38 1 
MIRP[10100]	/* MoveIndirectRelPt */
IUP[0]	/* InterpolateUntPts */
IUP[1]	/* InterpolateUntPts */";
};
width = 600;
}
);
note = dcroat;
unicode = 273;
},
{
glyphname = eogonek;
layers = (
{
layerId = m01;
shapes = (
{
closed = 1;
nodes = (
(498,-206,o),
(516,-189,q),
(492,-150,l),
(482,-159,o),
(456,-171,o),
(439,-171,qs),
(416,-171,o),
(380,-144,o),
(380,-116,qs),
(380,-97,o),
(394,-61,o),
(427,-24,o),
(480,19,o),
(518,46,q),
(488,100,l),
(455,79,o),
(384,54,o),
(340,54,qs),
(264,54,o),
(159,137,o),
(151,220,q),
(534,220,l),
(536,230,o),
(538,256,o),
(538,270,qs),
(538,321,o),
(508,405,o),
(451,465,o),
(368,498,o),
(316,498,qs),
(267,498,o),
(178,463,o),
(109,397,o),
(68,302,o),
(68,242,qs),
(68,182,o),
(109,88,o),
(180,22,o),
(275,-12,o),
(330,-12,qs),
(338,-12,o),
(369,-10,o),
(395,-1,q),
(362,-30,o),
(319,-92,o),
(319,-132,qs),
(319,-180,o),
(377,-225,o),
(422,-225,qs),
(451,-225,o)
);
},
{
closed = 1;
nodes = (
(458,359,o),
(463,284,q),
(153,284,l),
(159,320,o),
(189,376,o),
(233,413,o),
(288,433,o),
(318,433,qs),
(381,433,o)
);
}
);
userData = {
assembly = "SVTCA[0]	/* SetFreedomAndProjectionVectorToAxis */
PUSHW[ ]	/* 1 value pushed */
0 
RCVT[ ]	/* ReadCVT */
IF[ ]	/* If */
PUSHW[ ]	/* 1 value pushed */
19 
MDAP[1]	/* MoveDirectAbsPt */
ELSE[ ]	/* Else */
PUSHW[ ]	/* 2 values pushed */
19 7 
MIAP[0]	/* MoveIndirectAbsPt */
EIF[ ]	/* EndIf */
PUSHW[ ]	/* 1 value pushed */
0 
RCVT[ ]	/* ReadCVT */
IF[ ]	/* If */
PUSHW[ ]	/* 1 value pushed */
9 
MDAP[1]	/* MoveDirectAbsPt */
ELSE[ ]	/* Else */
PUSHW[ ]	/* 2 values pushed */
9 3 
MIAP[0]	/* MoveIndirectAbsPt */
EIF[ ]	/* EndIf */
PUSHW[ ]	/* 4 values pushed */
43 1 0 4 
CALL[ ]	/* CallFunction */
PUSHW[ ]	/* 3 values pushed */
27 19 9 
SRP1[ ]	/* SetRefPoint1 */
SRP2[ ]	/* SetRefPoint2 */
IP[ ]	/* InterpolatePts */
PUSHW[ ]	/* 1 value pushed */
27 
MDAP[1]	/* MoveDirectAbsPt */
PUSHW[ ]	/* 1 value pushed */
9 
SRP0[ ]	/* SetRefPoint0 */
PUSHW[ ]	/* 2 values pushed */
31 1 
MIRP[10100]	/* MoveIndirectRelPt */
PUSHW[ ]	/* 1 value pushed */
19 
SRP0[ ]	/* SetRefPoint0 */
PUSHW[ ]	/* 2 values pushed */
50 1 
MIRP[10100]	/* MoveIndirectRelPt */
PUSHW[ ]	/* 1 value pushed */
27 
SRP0[ ]	/* SetRefPoint0 */
PUSHW[ ]	/* 2 values pushed */
55 1 
MIRP[10100]	/* MoveIndirectRelPt */
IUP[0]	/* InterpolateUntPts */
IUP[1]	/* InterpolateUntPts */";
};
width = 600;
}
);
note = eogonek;
unicode = 281;
},
{
glyphname = hbar;
layers = (
{
layerId = m01;
shapes = (
{
closed = 1;
nodes = (
(175,319,l),
(196,341,o),
(234,374,o),
(270,396,o),
(307,407,o),
(329,407,qs),
(389,407,o),
(441,340,o),
(441,271,qs),
(441,0,l),
(523,0,l),
(523,282,ls),
(523,379,o),
(442,478,o),
(355,478,qs),
(298,478,o),
(211,424,o),
(173,383,q),
(170,383,l),
(175,498,l),
(175,562,l),
(388,562,l),
(388,626,l),
(175,626,l),
(175,712,l),
(93,712,l),
(93,626,l),
(20,620,l),
(20,562,l),
(93,562,l),
(93,0,l),
(175,0,l)
);
}
);
userData = {
assembly = "SVTCA[0]	/* SetFreedomAndProjectionVectorToAxis */
PUSHW[ ]	/* 1 value pushed */
0 
RCVT[ ]	/* ReadCVT */
IF[ ]	/* If */
PUSHW[ ]	/* 1 value pushed */
5 
MDAP[1]	/* MoveDirectAbsPt */
ELSE[ ]	/* Else */
PUSHW[ ]	/* 2 values pushed */
5 15 
MIAP[0]	/* MoveIndirectAbsPt */
EIF[ ]	/* EndIf */
PUSHW[ ]	/* 1 value pushed */
0 
RCVT[ ]	/* ReadCVT */
IF[ ]	/* If */
PUSHW[ ]	/* 1 value pushed */
0 
MDAP[1]	/* MoveDirectAbsPt */
ELSE[ ]	/* Else */
PUSHW[ ]	/* 2 values pushed */
0 3 
MIAP[0]	/* MoveIndirectAbsPt */
EIF[ ]	/* EndIf */
PUSHW[ ]	/* 1 value pushed */
5 
SRP0[ ]	/* SetRefPoint0 */
PUSHW[ ]	/* 1 value pushed */
7 
MDRP[11100]	/* MoveDirectRelPt */
PUSHW[ ]	/* 2 values pushed */
10 1 
MIRP[10100]	/* MoveIndirectRelPt */
PUSHW[ ]	/* 1 value pushed */
1 
MDRP[10000]	/* MoveDirectRelPt */
PUSHW[ ]	/* 1 value pushed */
7 
SRP0[ ]	/* SetRefPoint0 */
PUSHW[ ]	/* 1 value pushed */
4 
MDRP[10000]	/* MoveDirectRelPt */
PUSHW[ ]	/* 1 value pushed */
10 
SRP0[ ]	/* SetRefPoint0 */
PUSHW[ ]	/* 1 value pushed */
16 
MDRP[11100]	/* MoveDirectRelPt */
PUSHW[ ]	/* 1 value pushed */
0 
SRP0[ ]	/* SetRefPoint0 */
PUSHW[ ]	/* 1 value pushed */
20 
MDRP[10000]	/* MoveDirectRelPt */
PUSHW[ ]	/* 1 value pushed */
16 
SRP0[ ]	/* SetRefPoint0 */
PUSHW[ ]	/* 2 values pushed */
25 1 
MIRP[10100]	/* MoveIndirectRelPt */
IUP[0]	/* InterpolateUntPts */
IUP[1]	/* InterpolateUntPts */";
};
width = 600;
}
);
note = hbar;
unicode = 295;
},
{
glyphname = dotlessi;
layers = (
{
layerId = m01;
shapes = (
{
closed = 1;
nodes = (
(398,486,l),
(90,486,l),
(90,419,l),
(316,419,l),
(316,0,l),
(398,0,l)
);
}
);
userData = {
assembly = "SVTCA[0]	/* SetFreedomAndProjectionVectorToAxis */
PUSHW[ ]	/* 1 value pushed */
0 
RCVT[ ]	/* ReadCVT */
IF[ ]	/* If */
PUSHW[ ]	/* 1 value pushed */
3 
MDAP[1]	/* MoveDirectAbsPt */
ELSE[ ]	/* Else */
PUSHW[ ]	/* 2 values pushed */
3 7 
MIAP[0]	/* MoveIndirectAbsPt */
EIF[ ]	/* EndIf */
PUSHW[ ]	/* 1 value pushed */
0 
RCVT[ ]	/* ReadCVT */
IF[ ]	/* If */
PUSHW[ ]	/* 1 value pushed */
0 
MDAP[1]	/* MoveDirectAbsPt */
ELSE[ ]	/* Else */
PUSHW[ ]	/* 2 values pushed */
0 3 
MIAP[0]	/* MoveIndirectAbsPt */
EIF[ ]	/* EndIf */
PUSHW[ ]	/* 1 value pushed */
3 
SRP0[ ]	/* SetRefPoint0 */
PUSHW[ ]	/* 2 values pushed */
1 1 
MIRP[10100]	/* MoveIndirectRelPt */
IUP[0]	/* InterpolateUntPts */
IUP[1]	/* InterpolateUntPts */";
};
width = 600;
}
);
note = dotlessi;
unicode = 305;
},
{
glyphname = kgreenlandic;
layers = (
{
layerId = m01;
shapes = (
{
closed = 1;
nodes = (
(188,130,l),
(303,240,l),
(482,0,l),
(574,0,l),
(354,293,l),
(548,486,l),
(454,486,l),
(191,231,l),
(188,230,l),
(188,486,l),
(106,486,l),
(106,0,l),
(188,0,l)
);
}
);
userData = {
assembly = "SVTCA[0]	/* SetFreedomAndProjectionVectorToAxis */
PUSHW[ ]	/* 1 value pushed */
0 
RCVT[ ]	/* ReadCVT */
IF[ ]	/* If */
PUSHW[ ]	/* 1 value pushed */
1 
MDAP[1]	/* MoveDirectAbsPt */
ELSE[ ]	/* Else */
PUSHW[ ]	/* 2 values pushed */
1 7 
MIAP[0]	/* MoveIndirectAbsPt */
EIF[ ]	/* EndIf */
PUSHW[ ]	/* 1 value pushed */
0 
RCVT[ ]	/* ReadCVT */
IF[ ]	/* If */
PUSHW[ ]	/* 1 value pushed */
0 
MDAP[1]	/* MoveDirectAbsPt */
ELSE[ ]	/* Else */
PUSHW[ ]	/* 2 values pushed */
0 3 
MIAP[0]	/* MoveIndirectAbsPt */
EIF[ ]	/* EndIf */
PUSHW[ ]	/* 3 values pushed */
3 1 0 
SRP1[ ]	/* SetRefPoint1 */
SRP2[ ]	/* SetRefPoint2 */
IP[ ]	/* InterpolatePts */
PUSHW[ ]	/* 1 value pushed */
1 
SRP0[ ]	/* SetRefPoint0 */
PUSHW[ ]	/* 1 value pushed */
6 
MDRP[10000]	/* MoveDirectRelPt */
PUSHW[ ]	/* 3 values pushed */
7 0 1 
SRP1[ ]	/* SetRefPoint1 */
SRP2[ ]	/* SetRefPoint2 */
IP[ ]	/* InterpolatePts */
PUSHW[ ]	/* 1 value pushed */
0 
SRP0[ ]	/* SetRefPoint0 */
PUSHW[ ]	/* 1 value pushed */
8 
MDRP[10000]	/* MoveDirectRelPt */
PUSHW[ ]	/* 3 values pushed */
10 1 0 
SRP1[ ]	/* SetRefPoint1 */
SRP2[ ]	/* SetRefPoint2 */
IP[ ]	/* InterpolatePts */
IUP[0]	/* InterpolateUntPts */
IUP[1]	/* InterpolateUntPts */";
};
width = 600;
}
);
note = kgreenlandic;
unicode = 312;
},
{
glyphname = lslash;
layers = (
{
layerId = m01;
shapes = (
{
closed = 1;
nodes = (
(503,3,o),
(537,17,q),
(516,78,l),
(468,56,o),
(425,56,qs),
(381,56,o),
(329,103,o),
(329,157,qs),
(329,373,l),
(505,473,l),
(477,527,l),
(329,443,l),
(329,712,l),
(74,712,l),
(74,645,l),
(247,645,l),
(247,405,l),
(110,325,l),
(139,271,l),
(247,335,l),
(247,163,ls),
(247,76,o),
(329,-12,o),
(407,-12,qs),
(447,-12,o)
);
}
);
userData = {
assembly = "SVTCA[0]	/* SetFreedomAndProjectionVectorToAxis */
PUSHW[ ]	/* 1 value pushed */
0 
RCVT[ ]	/* ReadCVT */
IF[ ]	/* If */
PUSHW[ ]	/* 1 value pushed */
10 
MDAP[1]	/* MoveDirectAbsPt */
ELSE[ ]	/* Else */
PUSHW[ ]	/* 2 values pushed */
10 15 
MIAP[0]	/* MoveIndirectAbsPt */
EIF[ ]	/* EndIf */
PUSHW[ ]	/* 1 value pushed */
0 
RCVT[ ]	/* ReadCVT */
IF[ ]	/* If */
PUSHW[ ]	/* 1 value pushed */
0 
MDAP[1]	/* MoveDirectAbsPt */
ELSE[ ]	/* Else */
PUSHW[ ]	/* 2 values pushed */
0 3 
MIAP[0]	/* MoveIndirectAbsPt */
EIF[ ]	/* EndIf */
PUSHW[ ]	/* 1 value pushed */
10 
SRP0[ ]	/* SetRefPoint0 */
PUSHW[ ]	/* 2 values pushed */
8 1 
MIRP[10100]	/* MoveIndirectRelPt */
PUSHW[ ]	/* 1 value pushed */
0 
SRP0[ ]	/* SetRefPoint0 */
PUSHW[ ]	/* 2 values pushed */
19 1 
MIRP[10100]	/* MoveIndirectRelPt */
IUP[0]	/* InterpolateUntPts */
IUP[1]	/* InterpolateUntPts */";
};
width = 600;
}
);
note = lslash;
unicode = 322;
},
{
glyphname = napostrophe;
layers = (
{
layerId = m01;
shapes = (
{
closed = 1;
nodes = (
(278,346,l),
(317,386,o),
(378,427,o),
(417,427,qs),
(469,427,o),
(515,363,o),
(515,297,qs),
(515,0,l),
(598,0,l),
(598,308,ls),
(598,402,o),
(522,498,o),
(443,498,qs),
(390,498,o),
(310,447,o),
(275,410,q),
(271,410,l),
(264,486,l),
(196,486,l),
(196,0,l),
(278,0,l)
);
},
{
closed = 1;
nodes = (
(149,503,o),
(149,578,qs),
(149,635,o),
(99,699,o),
(59,699,qs),
(27,699,o),
(-15,656,o),
(-15,621,qs),
(-15,589,o),
(24,550,o),
(56,550,qs),
(70,550,o),
(82,556,q),
(79,503,o),
(25,424,o),
(-22,398,q),
(6,350,l),
(73,385,o)
);
}
);
userData = {
assembly = "SVTCA[0]	/* SetFreedomAndProjectionVectorToAxis */
PUSHW[ ]	/* 1 value pushed */
0 
RCVT[ ]	/* ReadCVT */
IF[ ]	/* If */
PUSHW[ ]	/* 1 value pushed */
7 
MDAP[1]	/* MoveDirectAbsPt */
ELSE[ ]	/* Else */
PUSHW[ ]	/* 2 values pushed */
7 7 
MIAP[0]	/* MoveIndirectAbsPt */
EIF[ ]	/* EndIf */
PUSHW[ ]	/* 1 value pushed */
0 
RCVT[ ]	/* ReadCVT */
IF[ ]	/* If */
PUSHW[ ]	/* 1 value pushed */
0 
MDAP[1]	/* MoveDirectAbsPt */
ELSE[ ]	/* Else */
PUSHW[ ]	/* 2 values pushed */
0 3 
MIAP[0]	/* MoveIndirectAbsPt */
EIF[ ]	/* EndIf */
PUSHW[ ]	/* 3 values pushed */
33 27 3 
CALL[ ]	/* CallFunction */
PUSHW[ ]	/* 1 value pushed */
7 
SRP0[ ]	/* SetRefPoint0 */
PUSHW[ ]	/* 1 value pushed */
2 
MDRP[10000]	/* MoveDirectRelPt */
PUSHW[ ]	/* 1 value pushed */
2 
MDAP[1]	/* MoveDirectAbsPt */
PUSHW[ ]	/* 3 values pushed */
3 7 0 
SRP1[ ]	/* SetRefPoint1 */
SRP2[ ]	/* SetRefPoint2 */
IP[ ]	/* InterpolatePts */
PUSHW[ ]	/* 1 value pushed */
0 
SRP0[ ]	/* SetRefPoint0 */
PUSHW[ ]	/* 1 value pushed */
11 
MDRP[10000]	/* MoveDirectRelPt */
PUSHW[ ]	/* 1 value pushed */
7 
SRP0[ ]	/* SetRefPoint0 */
PUSHW[ ]	/* 2 values pushed */
16 1 
MIRP[10100]	/* MoveIndirectRelPt */
PUSHW[ ]	/* 1 value pushed */
3 
SRP0[ ]	/* SetRefPoint0 */
PUSHW[ ]	/* 2 values pushed */
19 1 
MIRP[10100]	/* MoveIndirectRelPt */
IUP[0]	/* InterpolateUntPts */
IUP[1]	/* InterpolateUntPts */";
};
width = 600;
}
);
note = napostrophe;
unicode = 329;
},
{
glyphname = uni01EB;
layers = (
{
layerId = m01;
shapes = (
{
closed = 1;
nodes = (
(402,-205,o),
(419,-189,q),
(395,-150,l),
(386,-158,o),
(360,-171,o),
(341,-171,qs),
(320,-171,o),
(284,-145,o),
(284,-116,qs),
(284,-85,o),
(328,-21,o),
(369,-3,qs),
(408,14,o),
(471,57,o),
(516,115,o),
(540,191,o),
(540,242,qs),
(540,303,o),
(501,398,o),
(435,464,o),
(348,498,o),
(300,498,qs),
(252,498,o),
(165,464,o),
(99,398,o),
(60,303,o),
(60,242,qs),
(60,186,o),
(95,94,o),
(156,29,o),
(241,-9,o),
(291,-11,q),
(265,-32,o),
(223,-93,o),
(223,-132,qs),
(223,-180,o),
(281,-225,o),
(324,-225,qs),
(355,-225,o)
);
},
{
closed = 1;
nodes = (
(208,82,o),
(167,131,o),
(145,200,o),
(145,242,qs),
(145,284,o),
(167,353,o),
(208,403,o),
(265,430,o),
(300,430,qs),
(335,430,o),
(392,403,o),
(433,353,o),
(455,284,o),
(455,242,qs),
(455,200,o),
(433,131,o),
(392,82,o),
(335,55,o),
(300,55,qs),
(265,55,o)
);
}
);
userData = {
assembly = "SVTCA[0]	/* SetFreedomAndProjectionVectorToAxis */
PUSHW[ ]	/* 1 value pushed */
0 
RCVT[ ]	/* ReadCVT */
IF[ ]	/* If */
PUSHW[ ]	/* 1 value pushed */
16 
MDAP[1]	/* MoveDirectAbsPt */
ELSE[ ]	/* Else */
PUSHW[ ]	/* 2 values pushed */
16 7 
MIAP[0]	/* MoveIndirectAbsPt */
EIF[ ]	/* EndIf */
PUSHW[ ]	/* 1 value pushed */
0 
RCVT[ ]	/* ReadCVT */
IF[ ]	/* If */
PUSHW[ ]	/* 1 value pushed */
6 
MDAP[1]	/* MoveDirectAbsPt */
ELSE[ ]	/* Else */
PUSHW[ ]	/* 2 values pushed */
6 3 
MIAP[0]	/* MoveIndirectAbsPt */
EIF[ ]	/* EndIf */
PUSHW[ ]	/* 4 values pushed */
32 1 0 4 
CALL[ ]	/* CallFunction */
PUSHW[ ]	/* 1 value pushed */
6 
SRP0[ ]	/* SetRefPoint0 */
PUSHW[ ]	/* 1 value pushed */
26 
MDRP[10000]	/* MoveDirectRelPt */
PUSHW[ ]	/* 1 value pushed */
6 
SRP0[ ]	/* SetRefPoint0 */
PUSHW[ ]	/* 2 values pushed */
39 1 
MIRP[10100]	/* MoveIndirectRelPt */
PUSHW[ ]	/* 1 value pushed */
16 
SRP0[ ]	/* SetRefPoint0 */
PUSHW[ ]	/* 2 values pushed */
49 1 
MIRP[10100]	/* MoveIndirectRelPt */
IUP[0]	/* InterpolateUntPts */
IUP[1]	/* InterpolateUntPts */";
};
width = 600;
}
);
note = uni01EB;
unicode = 491;
},
{
glyphname = ohorn;
layers = (
{
layerId = m01;
shapes = (
{
closed = 1;
nodes = (
(435,22,o),
(501,87,o),
(540,182,o),
(540,242,qs),
(540,311,o),
(492,413,o),
(452,445,q),
(474,452,o),
(513,475,o),
(542,508,o),
(559,553,o),
(559,582,qs),
(559,605,o),
(547,647,o),
(536,664,q),
(472,634,l),
(480,622,o),
(487,591,o),
(487,576,qs),
(487,533,o),
(443,486,o),
(401,477,q),
(354,498,o),
(300,498,qs),
(252,498,o),
(165,464,o),
(99,398,o),
(60,303,o),
(60,242,qs),
(60,182,o),
(99,87,o),
(165,22,o),
(252,-12,o),
(300,-12,qs),
(348,-12,o)
);
},
{
closed = 1;
nodes = (
(208,83,o),
(167,132,o),
(145,200,o),
(145,242,qs),
(145,284,o),
(167,353,o),
(208,403,o),
(265,430,o),
(300,430,qs),
(335,430,o),
(392,403,o),
(433,353,o),
(455,284,o),
(455,242,qs),
(455,200,o),
(433,132,o),
(392,83,o),
(335,56,o),
(300,56,qs),
(265,56,o)
);
}
);
userData = {
assembly = "SVTCA[0]	/* SetFreedomAndProjectionVectorToAxis */
PUSHW[ ]	/* 1 value pushed */
0 
RCVT[ ]	/* ReadCVT */
IF[ ]	/* If */
PUSHW[ ]	/* 1 value pushed */
10 
MDAP[1]	/* MoveDirectAbsPt */
ELSE[ ]	/* Else */
PUSHW[ ]	/* 2 values pushed */
10 7 
MIAP[0]	/* MoveIndirectAbsPt */
EIF[ ]	/* EndIf */
PUSHW[ ]	/* 1 value pushed */
0 
RCVT[ ]	/* ReadCVT */
IF[ ]	/* If */
PUSHW[ ]	/* 1 value pushed */
0 
MDAP[1]	/* MoveDirectAbsPt */
ELSE[ ]	/* Else */
PUSHW[ ]	/* 2 values pushed */
0 3 
MIAP[0]	/* MoveIndirectAbsPt */
EIF[ ]	/* EndIf */
PUSHW[ ]	/* 1 value pushed */
10 
SRP0[ ]	/* SetRefPoint0 */
PUSHW[ ]	/* 1 value pushed */
19 
MDRP[11100]	/* MoveDirectRelPt */
PUSHW[ ]	/* 1 value pushed */
10 
SRP0[ ]	/* SetRefPoint0 */
PUSHW[ ]	/* 2 values pushed */
45 1 
MIRP[10100]	/* MoveIndirectRelPt */
PUSHW[ ]	/* 3 values pushed */
27 10 45 
SRP1[ ]	/* SetRefPoint1 */
SRP2[ ]	/* SetRefPoint2 */
IP[ ]	/* InterpolatePts */
PUSHW[ ]	/* 1 value pushed */
0 
SRP0[ ]	/* SetRefPoint0 */
PUSHW[ ]	/* 2 values pushed */
35 1 
MIRP[10100]	/* MoveIndirectRelPt */
IUP[0]	/* InterpolateUntPts */
IUP[1]	/* InterpolateUntPts */";
};
width = 600;
}
);
note = ohorn;
unicode = 417;
},
{
glyphname = oslash;
layers = (
{
layerId = m01;
shapes = (
{
closed = 1;
nodes = (
(435,22,o),
(501,87,o),
(540,182,o),
(540,242,qs),
(540,295,o),
(511,380,o),
(485,412,q),
(538,474,l),
(492,516,l),
(440,455,l),
(379,498,o),
(300,498,qs),
(252,498,o),
(165,464,o),
(99,398,o),
(60,303,o),
(60,242,qs),
(60,190,o),
(89,106,o),
(115,74,q),
(62,12,l),
(108,-30,l),
(160,31,l),
(221,-12,o),
(300,-12,qs),
(348,-12,o)
);
},
{
closed = 1;
nodes = (
(167,354,o),
(208,404,o),
(265,432,o),
(300,432,qs),
(354,432,o),
(392,399,q),
(168,136,l),
(145,182,o),
(145,242,qs),
(145,284,o)
);
},
{
closed = 1;
nodes = (
(226,71,o),
(207,86,q),
(432,349,l),
(455,305,o),
(455,242,qs),
(455,200,o),
(433,131,o),
(392,82,o),
(335,54,o),
(300,54,qs),
(273,54,o)
);
}
);
userData = {
assembly = "SVTCA[0]	/* SetFreedomAndProjectionVectorToAxis */
PUSHW[ ]	/* 1 value pushed */
0 
RCVT[ ]	/* ReadCVT */
IF[ ]	/* If */
PUSHW[ ]	/* 1 value pushed */
13 
MDAP[1]	/* MoveDirectAbsPt */
ELSE[ ]	/* Else */
PUSHW[ ]	/* 2 values pushed */
13 7 
MIAP[0]	/* MoveIndirectAbsPt */
EIF[ ]	/* EndIf */
PUSHW[ ]	/* 1 value pushed */
0 
RCVT[ ]	/* ReadCVT */
IF[ ]	/* If */
PUSHW[ ]	/* 1 value pushed */
0 
MDAP[1]	/* MoveDirectAbsPt */
ELSE[ ]	/* Else */
PUSHW[ ]	/* 2 values pushed */
0 3 
MIAP[0]	/* MoveIndirectAbsPt */
EIF[ ]	/* EndIf */
PUSHW[ ]	/* 3 values pushed */
28 13 0 
SRP1[ ]	/* SetRefPoint1 */
SRP2[ ]	/* SetRefPoint2 */
IP[ ]	/* InterpolatePts */
PUSHW[ ]	/* 3 values pushed */
2 0 28 
SRP1[ ]	/* SetRefPoint1 */
SRP2[ ]	/* SetRefPoint2 */
IP[ ]	/* InterpolatePts */
PUSHW[ ]	/* 3 values pushed */
5 28 0 
SRP1[ ]	/* SetRefPoint1 */
SRP2[ ]	/* SetRefPoint2 */
IP[ ]	/* InterpolatePts */
PUSHW[ ]	/* 3 values pushed */
43 0 13 
SRP1[ ]	/* SetRefPoint1 */
SRP2[ ]	/* SetRefPoint2 */
IP[ ]	/* InterpolatePts */
PUSHW[ ]	/* 3 values pushed */
15 43 13 
SRP1[ ]	/* SetRefPoint1 */
SRP2[ ]	/* SetRefPoint2 */
IP[ ]	/* InterpolatePts */
PUSHW[ ]	/* 3 values pushed */
18 13 43 
SRP1[ ]	/* SetRefPoint1 */
SRP2[ ]	/* SetRefPoint2 */
IP[ ]	/* InterpolatePts */
PUSHW[ ]	/* 3 values pushed */
29 13 0 
SRP1[ ]	/* SetRefPoint1 */
SRP2[ ]	/* SetRefPoint2 */
IP[ ]	/* InterpolatePts */
PUSHW[ ]	/* 1 value pushed */
13 
SRP0[ ]	/* SetRefPoint0 */
PUSHW[ ]	/* 2 values pushed */
31 1 
MIRP[10100]	/* MoveIndirectRelPt */
PUSHW[ ]	/* 1 value pushed */
0 
SRP0[ ]	/* SetRefPoint0 */
PUSHW[ ]	/* 2 values pushed */
36 1 
MIRP[10100]	/* MoveIndirectRelPt */
PUSHW[ ]	/* 3 values pushed */
44 13 0 
SRP1[ ]	/* SetRefPoint1 */
SRP2[ ]	/* SetRefPoint2 */
IP[ ]	/* InterpolatePts */
IUP[0]	/* InterpolateUntPts */
IUP[1]	/* InterpolateUntPts */";
};
width = 600;
}
);
note = oslash;
unicode = 248;
},
{
glyphname = oe;
layers = (
{
layerId = m01;
shapes = (
{
closed = 1;
nodes = (
(88,158,o),
(88,242,qs),
(88,327,o),
(139,430,o),
(188,430,qs),
(210,430,o),
(245,403,o),
(270,353,o),
(284,285,o),
(284,243,qs),
(284,201,o),
(270,133,o),
(245,83,o),
(210,56,o),
(188,56,qs),
(139,56,o)
);
},
{
closed = 1;
nodes = (
(295,44,o),
(316,105,q),
(336,44,o),
(414,-12,o),
(463,-12,qs),
(498,-12,o),
(559,13,o),
(582,31,q),
(552,87,l),
(532,73,o),
(492,55,o),
(466,55,qs),
(417,55,o),
(352,136,o),
(347,220,q),
(593,220,l),
(595,233,o),
(597,262,o),
(597,276,qs),
(597,321,o),
(579,402,o),
(543,462,o),
(489,498,o),
(453,498,qs),
(406,498,o),
(335,440,o),
(315,378,q),
(295,440,o),
(230,498,o),
(184,498,qs),
(147,498,o),
(84,464,o),
(37,398,o),
(11,303,o),
(11,242,qs),
(11,182,o),
(37,87,o),
(83,22,o),
(146,-12,o),
(183,-12,qs),
(229,-12,o)
);
},
{
closed = 1;
nodes = (
(530,284,q),
(348,284,l),
(353,359,o),
(407,433,o),
(446,433,qs),
(526,433,o)
);
}
);
userData = {
assembly = "SVTCA[0]	/* SetFreedomAndProjectionVectorToAxis */
PUSHW[ ]	/* 1 value pushed */
0 
RCVT[ ]	/* ReadCVT */
IF[ ]	/* If */
PUSHW[ ]	/* 1 value pushed */
26 
MDAP[1]	/* MoveDirectAbsPt */
ELSE[ ]	/* Else */
PUSHW[ ]	/* 2 values pushed */
26 7 
MIAP[0]	/* MoveIndirectAbsPt */
EIF[ ]	/* EndIf */
PUSHW[ ]	/* 1 value pushed */
0 
RCVT[ ]	/* ReadCVT */
IF[ ]	/* If */
PUSHW[ ]	/* 1 value pushed */
16 
MDAP[1]	/* MoveDirectAbsPt */
ELSE[ ]	/* Else */
PUSHW[ ]	/* 2 values pushed */
16 3 
MIAP[0]	/* MoveIndirectAbsPt */
EIF[ ]	/* EndIf */
PUSHW[ ]	/* 2 values pushed */
0 1 
MIRP[10100]	/* MoveIndirectRelPt */
PUSHW[ ]	/* 1 value pushed */
26 
SRP0[ ]	/* SetRefPoint0 */
PUSHW[ ]	/* 2 values pushed */
10 1 
MIRP[10100]	/* MoveIndirectRelPt */
PUSHW[ ]	/* 1 value pushed */
26 
SRP0[ ]	/* SetRefPoint0 */
PUSHW[ ]	/* 1 value pushed */
32 
MDRP[10000]	/* MoveDirectRelPt */
PUSHW[ ]	/* 3 values pushed */
40 26 16 
SRP1[ ]	/* SetRefPoint1 */
SRP2[ ]	/* SetRefPoint2 */
IP[ ]	/* InterpolatePts */
PUSHW[ ]	/* 1 value pushed */
40 
MDAP[1]	/* MoveDirectAbsPt */
PUSHW[ ]	/* 1 value pushed */
0 
SRP0[ ]	/* SetRefPoint0 */
PUSHW[ ]	/* 1 value pushed */
44 
MDRP[10000]	/* MoveDirectRelPt */
PUSHW[ ]	/* 1 value pushed */
16 
SRP0[ ]	/* SetRefPoint0 */
PUSHW[ ]	/* 1 value pushed */
51 
MDRP[10000]	/* MoveDirectRelPt */
PUSHW[ ]	/* 1 value pushed */
10 
SRP0[ ]	/* SetRefPoint0 */
PUSHW[ ]	/* 1 value pushed */
57 
MDRP[10000]	/* MoveDirectRelPt */
PUSHW[ ]	/* 1 value pushed */
40 
SRP0[ ]	/* SetRefPoint0 */
PUSHW[ ]	/* 2 values pushed */
60 1 
MIRP[10100]	/* MoveIndirectRelPt */
IUP[0]	/* InterpolateUntPts */
IUP[1]	/* InterpolateUntPts */";
};
width = 600;
}
);
note = oe;
unicode = 339;
},
{
glyphname = germandbls;
layers = (
{
layerId = m01;
shapes = (
{
closed = 1;
nodes = (
(498,11,o),
(541,51,o),
(564,105,o),
(564,137,qs),
(564,176,o),
(534,229,o),
(490,265,o),
(437,291,o),
(393,318,o),
(363,350,o),
(363,374,qs),
(363,400,o),
(391,441,o),
(425,485,o),
(453,538,o),
(453,576,qs),
(453,606,o),
(432,659,o),
(390,700,o),
(329,724,o),
(289,724,qs),
(242,724,o),
(168,695,o),
(116,641,o),
(88,565,o),
(88,519,qs),
(88,0,l),
(170,0,l),
(170,507,ls),
(170,582,o),
(233,657,o),
(288,657,qs),
(330,657,o),
(374,608,o),
(374,571,qs),
(374,539,o),
(346,492,o),
(312,447,o),
(284,398,o),
(284,364,qs),
(284,329,o),
(314,284,o),
(359,251,o),
(411,226,o),
(456,197,o),
(486,159,o),
(486,130,qs),
(486,99,o),
(441,52,o),
(399,52,qs),
(370,52,o),
(318,71,o),
(290,91,q),
(257,33,l),
(289,12,o),
(359,-12,o),
(401,-12,qs),
(438,-12,o)
);
}
);
userData = {
assembly = "SVTCA[0]	/* SetFreedomAndProjectionVectorToAxis */
PUSHW[ ]	/* 1 value pushed */
0 
RCVT[ ]	/* ReadCVT */
IF[ ]	/* If */
PUSHW[ ]	/* 1 value pushed */
36 
MDAP[1]	/* MoveDirectAbsPt */
ELSE[ ]	/* Else */
PUSHW[ ]	/* 2 values pushed */
36 15 
MIAP[0]	/* MoveIndirectAbsPt */
EIF[ ]	/* EndIf */
PUSHW[ ]	/* 1 value pushed */
0 
RCVT[ ]	/* ReadCVT */
IF[ ]	/* If */
PUSHW[ ]	/* 1 value pushed */
0 
MDAP[1]	/* MoveDirectAbsPt */
ELSE[ ]	/* Else */
PUSHW[ ]	/* 2 values pushed */
0 3 
MIAP[0]	/* MoveIndirectAbsPt */
EIF[ ]	/* EndIf */
PUSHW[ ]	/* 2 values pushed */
7 1 
MIRP[10100]	/* MoveIndirectRelPt */
PUSHW[ ]	/* 1 value pushed */
36 
SRP0[ ]	/* SetRefPoint0 */
PUSHW[ ]	/* 2 values pushed */
25 1 
MIRP[10100]	/* MoveIndirectRelPt */
PUSHW[ ]	/* 3 values pushed */
10 0 25 
SRP1[ ]	/* SetRefPoint1 */
SRP2[ ]	/* SetRefPoint2 */
IP[ ]	/* InterpolatePts */
PUSHW[ ]	/* 1 value pushed */
0 
SRP0[ ]	/* SetRefPoint0 */
PUSHW[ ]	/* 1 value pushed */
30 
MDRP[10000]	/* MoveDirectRelPt */
PUSHW[ ]	/* 1 value pushed */
30 
MDAP[1]	/* MoveDirectAbsPt */
PUSHW[ ]	/* 3 values pushed */
46 36 7 
SRP1[ ]	/* SetRefPoint1 */
SRP2[ ]	/* SetRefPoint2 */
IP[ ]	/* InterpolatePts */
IUP[0]	/* InterpolateUntPts */
IUP[1]	/* InterpolateUntPts */";
};
width = 600;
}
);
note = germandbls;
unicode = 223;
},
{
glyphname = longs;
layers = (
{
layerId = m01;
shapes = (
{
closed = 1;
nodes = (
(323,530,ls),
(323,590,o),
(380,657,o),
(446,657,qs),
(478,657,o),
(529,648,o),
(559,634,q),
(578,696,l),
(510,724,o),
(438,724,qs),
(337,724,o),
(242,616,o),
(242,527,qs),
(242,486,l),
(103,481,l),
(103,419,l),
(242,419,l),
(242,0,l),
(323,0,l)
);
}
);
userData = {
assembly = "SVTCA[0]	/* SetFreedomAndProjectionVectorToAxis */
PUSHW[ ]	/* 1 value pushed */
0 
RCVT[ ]	/* ReadCVT */
IF[ ]	/* If */
PUSHW[ ]	/* 1 value pushed */
4 
MDAP[1]	/* MoveDirectAbsPt */
ELSE[ ]	/* Else */
PUSHW[ ]	/* 2 values pushed */
4 7 
MIAP[0]	/* MoveIndirectAbsPt */
EIF[ ]	/* EndIf */
PUSHW[ ]	/* 1 value pushed */
0 
RCVT[ ]	/* ReadCVT */
IF[ ]	/* If */
PUSHW[ ]	/* 1 value pushed */
8 
MDAP[1]	/* MoveDirectAbsPt */
ELSE[ ]	/* Else */
PUSHW[ ]	/* 2 values pushed */
8 15 
MIAP[0]	/* MoveIndirectAbsPt */
EIF[ ]	/* EndIf */
PUSHW[ ]	/* 1 value pushed */
0 
RCVT[ ]	/* ReadCVT */
IF[ ]	/* If */
PUSHW[ ]	/* 1 value pushed */
0 
MDAP[1]	/* MoveDirectAbsPt */
ELSE[ ]	/* Else */
PUSHW[ ]	/* 2 values pushed */
0 3 
MIAP[0]	/* MoveIndirectAbsPt */
EIF[ ]	/* EndIf */
PUSHW[ ]	/* 1 value pushed */
4 
SRP0[ ]	/* SetRefPoint0 */
PUSHW[ ]	/* 2 values pushed */
1 1 
MIRP[10100]	/* MoveIndirectRelPt */
PUSHW[ ]	/* 1 value pushed */
8 
SRP0[ ]	/* SetRefPoint0 */
PUSHW[ ]	/* 2 values pushed */
14 1 
MIRP[10100]	/* MoveIndirectRelPt */
IUP[0]	/* InterpolateUntPts */
IUP[1]	/* InterpolateUntPts */";
};
width = 600;
}
);
note = longs;
unicode = 383;
},
{
glyphname = tbar;
layers = (
{
layerId = m01;
shapes = (
{
closed = 1;
nodes = (
(206,189,ls),
(206,144,o),
(225,70,o),
(269,17,o),
(341,-12,o),
(394,-12,qs),
(440,-12,o),
(513,5,o),
(546,17,q),
(528,77,l),
(502,67,o),
(446,55,o),
(411,55,qs),
(376,55,o),
(328,72,o),
(300,106,o),
(288,155,o),
(288,188,qs),
(288,220,l),
(508,220,l),
(508,284,l),
(288,284,l),
(288,419,l),
(527,419,l),
(527,486,l),
(288,486,l),
(288,642,l),
(220,642,l),
(209,486,l),
(69,481,l),
(69,419,l),
(206,419,l),
(206,284,l),
(70,278,l),
(70,220,l),
(206,220,l)
);
}
);
userData = {
assembly = "SVTCA[0]	/* SetFreedomAndProjectionVectorToAxis */
PUSHW[ ]	/* 1 value pushed */
0 
RCVT[ ]	/* ReadCVT */
IF[ ]	/* If */
PUSHW[ ]	/* 1 value pushed */
6 
MDAP[1]	/* MoveDirectAbsPt */
ELSE[ ]	/* Else */
PUSHW[ ]	/* 2 values pushed */
6 7 
MIAP[0]	/* MoveIndirectAbsPt */
EIF[ ]	/* EndIf */
PUSHW[ ]	/* 1 value pushed */
0 
RCVT[ ]	/* ReadCVT */
IF[ ]	/* If */
PUSHW[ ]	/* 1 value pushed */
29 
MDAP[1]	/* MoveDirectAbsPt */
ELSE[ ]	/* Else */
PUSHW[ ]	/* 2 values pushed */
29 3 
MIAP[0]	/* MoveIndirectAbsPt */
EIF[ ]	/* EndIf */
PUSHW[ ]	/* 3 values pushed */
15 6 29 
SRP1[ ]	/* SetRefPoint1 */
SRP2[ ]	/* SetRefPoint2 */
IP[ ]	/* InterpolatePts */
PUSHW[ ]	/* 1 value pushed */
15 
MDAP[1]	/* MoveDirectAbsPt */
PUSHW[ ]	/* 1 value pushed */
0 
MDRP[10000]	/* MoveDirectRelPt */
PUSHW[ ]	/* 1 value pushed */
15 
SRP0[ ]	/* SetRefPoint0 */
PUSHW[ ]	/* 2 values pushed */
14 1 
MIRP[10100]	/* MoveIndirectRelPt */
PUSHW[ ]	/* 1 value pushed */
2 
MDRP[10000]	/* MoveDirectRelPt */
PUSHW[ ]	/* 1 value pushed */
6 
SRP0[ ]	/* SetRefPoint0 */
PUSHW[ ]	/* 2 values pushed */
3 1 
MIRP[10100]	/* MoveIndirectRelPt */
PUSHW[ ]	/* 1 value pushed */
6 
SRP0[ ]	/* SetRefPoint0 */
PUSHW[ ]	/* 1 value pushed */
10 
MDRP[10000]	/* MoveDirectRelPt */
PUSHW[ ]	/* 1 value pushed */
3 
SRP0[ ]	/* SetRefPoint0 */
PUSHW[ ]	/* 1 value pushed */
11 
MDRP[10000]	/* MoveDirectRelPt */
PUSHW[ ]	/* 1 value pushed */
29 
SRP0[ ]	/* SetRefPoint0 */
PUSHW[ ]	/* 2 values pushed */
22 1 
MIRP[10100]	/* MoveIndirectRelPt */
IUP[0]	/* InterpolateUntPts */
IUP[1]	/* InterpolateUntPts */";
};
width = 600;
}
);
note = tbar;
unicode = 359;
},
{
glyphname = uogonek;
layers = (
{
layerId = m01;
shapes = (
{
closed = 1;
nodes = (
(522,-206,o),
(539,-189,q),
(515,-150,l),
(506,-159,o),
(480,-171,o),
(463,-171,qs),
(440,-171,o),
(404,-144,o),
(404,-116,qs),
(404,-87,o),
(451,-29,o),
(505,-5,q),
(505,486,l),
(423,486,l),
(423,149,l),
(382,102,o),
(314,59,o),
(272,59,qs),
(211,59,o),
(160,126,o),
(160,195,qs),
(160,486,l),
(77,486,l),
(77,184,ls),
(77,87,o),
(158,-12,o),
(246,-12,qs),
(303,-12,o),
(390,42,o),
(427,85,q),
(431,85,l),
(438,0,l),
(399,-24,o),
(343,-89,o),
(343,-132,qs),
(343,-180,o),
(402,-225,o),
(446,-225,qs),
(475,-225,o)
);
}
);
userData = {
assembly = "SVTCA[0]	/* SetFreedomAndProjectionVectorToAxis */
PUSHW[ ]	/* 1 value pushed */
0 
RCVT[ ]	/* ReadCVT */
IF[ ]	/* If */
PUSHW[ ]	/* 1 value pushed */
15 
MDAP[1]	/* MoveDirectAbsPt */
ELSE[ ]	/* Else */
PUSHW[ ]	/* 2 values pushed */
15 7 
MIAP[0]	/* MoveIndirectAbsPt */
EIF[ ]	/* EndIf */
PUSHW[ ]	/* 1 value pushed */
0 
RCVT[ ]	/* ReadCVT */
IF[ ]	/* If */
PUSHW[ ]	/* 1 value pushed */
11 
MDAP[1]	/* MoveDirectAbsPt */
ELSE[ ]	/* Else */
PUSHW[ ]	/* 2 values pushed */
11 3 
MIAP[0]	/* MoveIndirectAbsPt */
EIF[ ]	/* EndIf */
PUSHW[ ]	/* 4 values pushed */
32 1 0 4 
CALL[ ]	/* CallFunction */
PUSHW[ ]	/* 1 value pushed */
11 
SRP0[ ]	/* SetRefPoint0 */
PUSHW[ ]	/* 1 value pushed */
6 
MDRP[10000]	/* MoveDirectRelPt */
PUSHW[ ]	/* 1 value pushed */
6 
MDAP[1]	/* MoveDirectAbsPt */
PUSHW[ ]	/* 3 values pushed */
8 15 11 
SRP1[ ]	/* SetRefPoint1 */
SRP2[ ]	/* SetRefPoint2 */
IP[ ]	/* InterpolatePts */
PUSHW[ ]	/* 1 value pushed */
11 
SRP0[ ]	/* SetRefPoint0 */
PUSHW[ ]	/* 2 values pushed */
20 1 
MIRP[10100]	/* MoveIndirectRelPt */
PUSHW[ ]	/* 1 value pushed */
8 
SRP0[ ]	/* SetRefPoint0 */
PUSHW[ ]	/* 2 values pushed */
23 1 
MIRP[10100]	/* MoveIndirectRelPt */
PUSHW[ ]	/* 1 value pushed */
15 
SRP0[ ]	/* SetRefPoint0 */
PUSHW[ ]	/* 1 value pushed */
25 
MDRP[10000]	/* MoveDirectRelPt */
PUSHW[ ]	/* 1 value pushed */
6 
SRP0[ ]	/* SetRefPoint0 */
PUSHW[ ]	/* 1 value pushed */
26 
MDRP[10000]	/* MoveDirectRelPt */
IUP[0]	/* InterpolateUntPts */
IUP[1]	/* InterpolateUntPts */";
};
width = 600;
}
);
note = uogonek;
unicode = 371;
},
{
glyphname = uhorn;
layers = (
{
layerId = m01;
shapes = (
{
closed = 1;
nodes = (
(390,42,o),
(427,85,q),
(431,85,l),
(438,0,l),
(505,0,l),
(505,457,l),
(523,464,o),
(556,485,o),
(582,516,o),
(598,559,o),
(598,588,qs),
(598,611,o),
(586,653,o),
(575,670,q),
(511,640,l),
(519,628,o),
(525,597,o),
(525,582,qs),
(525,557,o),
(512,523,o),
(488,501,o),
(457,489,o),
(439,486,q),
(423,486,l),
(423,149,l),
(382,102,o),
(314,59,o),
(272,59,qs),
(211,59,o),
(160,126,o),
(160,195,qs),
(160,486,l),
(77,486,l),
(77,184,ls),
(77,87,o),
(158,-12,o),
(246,-12,qs),
(303,-12,o)
);
}
);
userData = {
assembly = "SVTCA[0]	/* SetFreedomAndProjectionVectorToAxis */
PUSHW[ ]	/* 1 value pushed */
0 
RCVT[ ]	/* ReadCVT */
IF[ ]	/* If */
PUSHW[ ]	/* 1 value pushed */
4 
MDAP[1]	/* MoveDirectAbsPt */
ELSE[ ]	/* Else */
PUSHW[ ]	/* 2 values pushed */
4 7 
MIAP[0]	/* MoveIndirectAbsPt */
EIF[ ]	/* EndIf */
PUSHW[ ]	/* 1 value pushed */
0 
RCVT[ ]	/* ReadCVT */
IF[ ]	/* If */
PUSHW[ ]	/* 1 value pushed */
0 
MDAP[1]	/* MoveDirectAbsPt */
ELSE[ ]	/* Else */
PUSHW[ ]	/* 2 values pushed */
0 3 
MIAP[0]	/* MoveIndirectAbsPt */
EIF[ ]	/* EndIf */
PUSHW[ ]	/* 2 values pushed */
9 1 
MIRP[10100]	/* MoveIndirectRelPt */
PUSHW[ ]	/* 1 value pushed */
4 
SRP0[ ]	/* SetRefPoint0 */
PUSHW[ ]	/* 1 value pushed */
13 
MDRP[10000]	/* MoveDirectRelPt */
PUSHW[ ]	/* 3 values pushed */
34 0 13 
SRP1[ ]	/* SetRefPoint1 */
SRP2[ ]	/* SetRefPoint2 */
IP[ ]	/* InterpolatePts */
PUSHW[ ]	/* 1 value pushed */
34 
SRP0[ ]	/* SetRefPoint0 */
PUSHW[ ]	/* 2 values pushed */
12 1 
MIRP[10100]	/* MoveIndirectRelPt */
PUSHW[ ]	/* 1 value pushed */
13 
SRP0[ ]	/* SetRefPoint0 */
PUSHW[ ]	/* 1 value pushed */
23 
MDRP[11100]	/* MoveDirectRelPt */
PUSHW[ ]	/* 1 value pushed */
13 
SRP0[ ]	/* SetRefPoint0 */
PUSHW[ ]	/* 1 value pushed */
31 
MDRP[11100]	/* MoveDirectRelPt */
PUSHW[ ]	/* 1 value pushed */
0 
SRP0[ ]	/* SetRefPoint0 */
PUSHW[ ]	/* 1 value pushed */
33 
MDRP[10000]	/* MoveDirectRelPt */
PUSHW[ ]	/* 1 value pushed */
33 
MDAP[1]	/* MoveDirectAbsPt */
IUP[0]	/* InterpolateUntPts */
IUP[1]	/* InterpolateUntPts */";
};
width = 600;
}
);
note = uhorn;
unicode = 432;
},
{
glyphname = eth;
layers = (
{
layerId = m01;
shapes = (
{
closed = 1;
nodes = (
(441,27,o),
(503,98,o),
(536,197,o),
(536,257,qs),
(536,376,o),
(459,544,o),
(396,605,q),
(514,666,l),
(484,716,l),
(347,646,l),
(314,671,o),
(241,712,o),
(203,730,q),
(165,678,l),
(197,662,o),
(254,630,o),
(280,612,q),
(150,546,l),
(180,494,l),
(332,572,l),
(376,533,o),
(433,433,o),
(447,367,q),
(419,405,o),
(335,447,o),
(288,447,qs),
(238,447,o),
(155,415,o),
(94,356,o),
(60,273,o),
(60,222,qs),
(60,168,o),
(99,81,o),
(165,20,o),
(251,-12,o),
(298,-12,qs),
(353,-12,o)
);
},
{
closed = 1;
nodes = (
(207,80,o),
(163,123,o),
(137,184,o),
(137,222,qs),
(137,256,o),
(158,315,o),
(199,359,o),
(260,383,o),
(300,383,qs),
(339,383,o),
(421,345,o),
(456,298,q),
(457,287,o),
(457,265,o),
(457,254,qs),
(457,210,o),
(438,138,o),
(399,85,o),
(340,56,o),
(300,56,qs),
(267,56,o)
);
}
);
userData = {
assembly = "SVTCA[0]	/* SetFreedomAndProjectionVectorToAxis */
PUSHW[ ]	/* 1 value pushed */
0 
RCVT[ ]	/* ReadCVT */
IF[ ]	/* If */
PUSHW[ ]	/* 1 value pushed */
23 
MDAP[1]	/* MoveDirectAbsPt */
ELSE[ ]	/* Else */
PUSHW[ ]	/* 2 values pushed */
23 15 
MIAP[0]	/* MoveIndirectAbsPt */
EIF[ ]	/* EndIf */
PUSHW[ ]	/* 1 value pushed */
0 
RCVT[ ]	/* ReadCVT */
IF[ ]	/* If */
PUSHW[ ]	/* 1 value pushed */
0 
MDAP[1]	/* MoveDirectAbsPt */
ELSE[ ]	/* Else */
PUSHW[ ]	/* 2 values pushed */
0 3 
MIAP[0]	/* MoveIndirectAbsPt */
EIF[ ]	/* EndIf */
PUSHW[ ]	/* 4 values pushed */
10 1 48 4 
CALL[ ]	/* CallFunction */
PUSHW[ ]	/* 3 values pushed */
13 23 0 
SRP1[ ]	/* SetRefPoint1 */
SRP2[ ]	/* SetRefPoint2 */
IP[ ]	/* InterpolatePts */
PUSHW[ ]	/* 1 value pushed */
0 
SRP0[ ]	/* SetRefPoint0 */
PUSHW[ ]	/* 2 values pushed */
37 1 
MIRP[10100]	/* MoveIndirectRelPt */
PUSHW[ ]	/* 1 value pushed */
13 
SRP0[ ]	/* SetRefPoint0 */
PUSHW[ ]	/* 2 values pushed */
45 1 
MIRP[10100]	/* MoveIndirectRelPt */
IUP[0]	/* InterpolateUntPts */
IUP[1]	/* InterpolateUntPts */";
};
width = 600;
}
);
note = eth;
unicode = 240;
},
{
glyphname = thorn;
layers = (
{
layerId = m01;
shapes = (
{
closed = 1;
nodes = (
(175,-41,l),
(172,51,l),
(175,51,l),
(207,22,o),
(283,-12,o),
(319,-12,qs),
(362,-12,o),
(442,23,o),
(503,91,o),
(540,188,o),
(540,250,qs),
(540,307,o),
(513,398,o),
(462,463,o),
(386,498,o),
(337,498,qs),
(294,498,o),
(209,458,o),
(175,424,q),
(172,424,l),
(175,511,l),
(175,712,l),
(93,712,l),
(93,-205,l),
(175,-205,l)
);
},
{
closed = 1;
nodes = (
(210,83,o),
(175,114,q),
(175,356,l),
(213,394,o),
(285,429,o),
(317,429,qs),
(390,429,o),
(455,330,o),
(455,250,qs),
(455,205,o),
(432,133,o),
(392,84,o),
(337,57,o),
(305,57,qs),
(279,57,o)
);
}
);
userData = {
assembly = "SVTCA[0]	/* SetFreedomAndProjectionVectorToAxis */
PUSHW[ ]	/* 1 value pushed */
0 
RCVT[ ]	/* ReadCVT */
IF[ ]	/* If */
PUSHW[ ]	/* 1 value pushed */
1 
MDAP[1]	/* MoveDirectAbsPt */
ELSE[ ]	/* Else */
PUSHW[ ]	/* 2 values pushed */
1 15 
MIAP[0]	/* MoveIndirectAbsPt */
EIF[ ]	/* EndIf */
PUSHW[ ]	/* 1 value pushed */
0 
RCVT[ ]	/* ReadCVT */
IF[ ]	/* If */
PUSHW[ ]	/* 1 value pushed */
8 
MDAP[1]	/* MoveDirectAbsPt */
ELSE[ ]	/* Else */
PUSHW[ ]	/* 2 values pushed */
8 7 
MIAP[0]	/* MoveIndirectAbsPt */
EIF[ ]	/* EndIf */
PUSHW[ ]	/* 1 value pushed */
0 
RCVT[ ]	/* ReadCVT */
IF[ ]	/* If */
PUSHW[ ]	/* 1 value pushed */
0 
MDAP[1]	/* MoveDirectAbsPt */
ELSE[ ]	/* Else */
PUSHW[ ]	/* 2 values pushed */
0 5 
MIAP[0]	/* MoveIndirectAbsPt */
EIF[ ]	/* EndIf */
PUSHW[ ]	/* 1 value pushed */
0 
RCVT[ ]	/* ReadCVT */
IF[ ]	/* If */
PUSHW[ ]	/* 1 value pushed */
18 
MDAP[1]	/* MoveDirectAbsPt */
ELSE[ ]	/* Else */
PUSHW[ ]	/* 2 values pushed */
18 3 
MIAP[0]	/* MoveIndirectAbsPt */
EIF[ ]	/* EndIf */
PUSHW[ ]	/* 3 values pushed */
4 8 18 
SRP1[ ]	/* SetRefPoint1 */
SRP2[ ]	/* SetRefPoint2 */
IP[ ]	/* InterpolatePts */
PUSHW[ ]	/* 3 values pushed */
21 18 8 
SRP1[ ]	/* SetRefPoint1 */
SRP2[ ]	/* SetRefPoint2 */
IP[ ]	/* InterpolatePts */
PUSHW[ ]	/* 2 values pushed */
25 1 
MIRP[10100]	/* MoveIndirectRelPt */
PUSHW[ ]	/* 1 value pushed */
8 
SRP0[ ]	/* SetRefPoint0 */
PUSHW[ ]	/* 2 values pushed */
33 1 
MIRP[10100]	/* MoveIndirectRelPt */
PUSHW[ ]	/* 1 value pushed */
4 
SRP0[ ]	/* SetRefPoint0 */
PUSHW[ ]	/* 2 values pushed */
36 1 
MIRP[10100]	/* MoveIndirectRelPt */
PUSHW[ ]	/* 1 value pushed */
21 
SRP0[ ]	/* SetRefPoint0 */
PUSHW[ ]	/* 2 values pushed */
37 1 
MIRP[10100]	/* MoveIndirectRelPt */
IUP[0]	/* InterpolateUntPts */
IUP[1]	/* InterpolateUntPts */";
};
width = 600;
}
);
note = thorn;
unicode = 254;
},
{
glyphname = eng;
layers = (
{
layerId = m01;
shapes = (
{
closed = 1;
nodes = (
(523,-92,o),
(523,-14,qs),
(523,302,ls),
(523,399,o),
(442,498,o),
(355,498,qs),
(298,498,o),
(210,444,o),
(172,403,q),
(168,403,l),
(161,486,l),
(93,486,l),
(93,0,l),
(175,0,l),
(175,339,l),
(196,361,o),
(234,394,o),
(270,416,o),
(307,427,o),
(329,427,qs),
(389,427,o),
(441,360,o),
(441,291,qs),
(441,-14,ls),
(441,-62,o),
(416,-116,o),
(378,-116,qs),
(364,-116,o),
(338,-110,o),
(327,-106,q),
(311,-169,l),
(325,-174,o),
(364,-183,o),
(387,-183,qs),
(460,-183,o)
);
}
);
userData = {
assembly = "SVTCA[0]	/* SetFreedomAndProjectionVectorToAxis */
PUSHW[ ]	/* 1 value pushed */
0 
RCVT[ ]	/* ReadCVT */
IF[ ]	/* If */
PUSHW[ ]	/* 1 value pushed */
28 
MDAP[1]	/* MoveDirectAbsPt */
ELSE[ ]	/* Else */
PUSHW[ ]	/* 2 values pushed */
28 7 
MIAP[0]	/* MoveIndirectAbsPt */
EIF[ ]	/* EndIf */
PUSHW[ ]	/* 1 value pushed */
0 
RCVT[ ]	/* ReadCVT */
IF[ ]	/* If */
PUSHW[ ]	/* 1 value pushed */
21 
MDAP[1]	/* MoveDirectAbsPt */
ELSE[ ]	/* Else */
PUSHW[ ]	/* 2 values pushed */
21 3 
MIAP[0]	/* MoveIndirectAbsPt */
EIF[ ]	/* EndIf */
PUSHW[ ]	/* 1 value pushed */
0 
RCVT[ ]	/* ReadCVT */
IF[ ]	/* If */
PUSHW[ ]	/* 1 value pushed */
0 
MDAP[1]	/* MoveDirectAbsPt */
ELSE[ ]	/* Else */
PUSHW[ ]	/* 2 values pushed */
0 5 
MIAP[0]	/* MoveIndirectAbsPt */
EIF[ ]	/* EndIf */
PUSHW[ ]	/* 2 values pushed */
7 1 
MIRP[10100]	/* MoveIndirectRelPt */
PUSHW[ ]	/* 1 value pushed */
28 
SRP0[ ]	/* SetRefPoint0 */
PUSHW[ ]	/* 2 values pushed */
14 1 
MIRP[10100]	/* MoveIndirectRelPt */
PUSHW[ ]	/* 3 values pushed */
24 28 21 
SRP1[ ]	/* SetRefPoint1 */
SRP2[ ]	/* SetRefPoint2 */
IP[ ]	/* InterpolatePts */
PUSHW[ ]	/* 1 value pushed */
24 
SRP0[ ]	/* SetRefPoint0 */
PUSHW[ ]	/* 2 values pushed */
19 1 
MIRP[10100]	/* MoveIndirectRelPt */
PUSHW[ ]	/* 1 value pushed */
28 
SRP0[ ]	/* SetRefPoint0 */
PUSHW[ ]	/* 1 value pushed */
22 
MDRP[10000]	/* MoveDirectRelPt */
PUSHW[ ]	/* 1 value pushed */
22 
MDAP[1]	/* MoveDirectAbsPt */
IUP[0]	/* InterpolateUntPts */
IUP[1]	/* InterpolateUntPts */";
};
width = 600;
}
);
note = eng;
unicode = 331;
},
{
glyphname = uni0237;
layers = (
{
layerId = m01;
shapes = (
{
closed = 1;
nodes = (
(331,-187,o),
(378,-132,o),
(398,-57,o),
(398,-12,qs),
(398,486,l),
(90,486,l),
(90,419,l),
(316,419,l),
(316,-18,ls),
(316,-49,o),
(305,-98,o),
(277,-132,o),
(229,-150,o),
(193,-150,qs),
(165,-150,o),
(108,-136,o),
(82,-123,q),
(55,-184,l),
(84,-198,o),
(156,-217,o),
(194,-217,qs),
(253,-217,o)
);
}
);
userData = {
assembly = "SVTCA[0]	/* SetFreedomAndProjectionVectorToAxis */
PUSHW[ ]	/* 1 value pushed */
0 
RCVT[ ]	/* ReadCVT */
IF[ ]	/* If */
PUSHW[ ]	/* 1 value pushed */
15 
MDAP[1]	/* MoveDirectAbsPt */
ELSE[ ]	/* Else */
PUSHW[ ]	/* 2 values pushed */
15 7 
MIAP[0]	/* MoveIndirectAbsPt */
EIF[ ]	/* EndIf */
PUSHW[ ]	/* 1 value pushed */
0 
RCVT[ ]	/* ReadCVT */
IF[ ]	/* If */
PUSHW[ ]	/* 1 value pushed */
0 
MDAP[1]	/* MoveDirectAbsPt */
ELSE[ ]	/* Else */
PUSHW[ ]	/* 2 values pushed */
0 5 
MIAP[0]	/* MoveIndirectAbsPt */
EIF[ ]	/* EndIf */
PUSHW[ ]	/* 2 values pushed */
7 1 
MIRP[10100]	/* MoveIndirectRelPt */
PUSHW[ ]	/* 1 value pushed */
15 
SRP0[ ]	/* SetRefPoint0 */
PUSHW[ ]	/* 2 values pushed */
13 1 
MIRP[10100]	/* MoveIndirectRelPt */
IUP[0]	/* InterpolateUntPts */
IUP[1]	/* InterpolateUntPts */";
};
width = 600;
}
);
note = uni0237;
unicode = 567;
},
{
glyphname = ij;
layers = (
{
layerId = m01;
shapes = (
{
closed = 1;
nodes = (
(194,486,l),
(112,486,l),
(112,0,l),
(194,0,l)
);
},
{
closed = 1;
nodes = (
(214,618,o),
(214,644,qs),
(214,670,o),
(180,702,o),
(154,702,qs),
(128,702,o),
(93,670,o),
(93,644,qs),
(93,618,o),
(128,586,o),
(154,586,qs),
(180,586,o)
);
},
{
closed = 1;
nodes = (
(504,-129,o),
(504,-55,qs),
(504,486,l),
(422,486,l),
(422,-55,ls),
(422,-100,o),
(399,-150,o),
(362,-150,qs),
(349,-150,o),
(326,-145,o),
(316,-142,q),
(300,-204,l),
(313,-209,o),
(348,-217,o),
(371,-217,qs),
(444,-217,o)
);
},
{
closed = 1;
nodes = (
(524,618,o),
(524,644,qs),
(524,670,o),
(490,702,o),
(464,702,qs),
(438,702,o),
(403,670,o),
(403,644,qs),
(403,618,o),
(438,586,o),
(464,586,qs),
(490,586,o)
);
}
);
userData = {
assembly = "SVTCA[0]	/* SetFreedomAndProjectionVectorToAxis */
PUSHW[ ]	/* 1 value pushed */
0 
RCVT[ ]	/* ReadCVT */
IF[ ]	/* If */
PUSHW[ ]	/* 1 value pushed */
1 
MDAP[1]	/* MoveDirectAbsPt */
ELSE[ ]	/* Else */
PUSHW[ ]	/* 2 values pushed */
1 7 
MIAP[0]	/* MoveIndirectAbsPt */
EIF[ ]	/* EndIf */
PUSHW[ ]	/* 1 value pushed */
0 
RCVT[ ]	/* ReadCVT */
IF[ ]	/* If */
PUSHW[ ]	/* 1 value pushed */
0 
MDAP[1]	/* MoveDirectAbsPt */
ELSE[ ]	/* Else */
PUSHW[ ]	/* 2 values pushed */
0 3 
MIAP[0]	/* MoveIndirectAbsPt */
EIF[ ]	/* EndIf */
PUSHW[ ]	/* 1 value pushed */
0 
RCVT[ ]	/* ReadCVT */
IF[ ]	/* If */
PUSHW[ ]	/* 1 value pushed */
16 
MDAP[1]	/* MoveDirectAbsPt */
ELSE[ ]	/* Else */
PUSHW[ ]	/* 2 values pushed */
16 5 
MIAP[0]	/* MoveIndirectAbsPt */
EIF[ ]	/* EndIf */
PUSHW[ ]	/* 3 values pushed */
10 4 3 
CALL[ ]	/* CallFunction */
PUSHW[ ]	/* 1 value pushed */
16 
SRP0[ ]	/* SetRefPoint0 */
PUSHW[ ]	/* 2 values pushed */
23 1 
MIRP[10100]	/* MoveIndirectRelPt */
PUSHW[ ]	/* 1 value pushed */
1 
SRP0[ ]	/* SetRefPoint0 */
PUSHW[ ]	/* 1 value pushed */
27 
MDRP[10000]	/* MoveDirectRelPt */
PUSHW[ ]	/* 1 value pushed */
4 
SRP0[ ]	/* SetRefPoint0 */
PUSHW[ ]	/* 1 value pushed */
32 
MDRP[10000]	/* MoveDirectRelPt */
PUSHW[ ]	/* 1 value pushed */
10 
SRP0[ ]	/* SetRefPoint0 */
PUSHW[ ]	/* 1 value pushed */
38 
MDRP[10000]	/* MoveDirectRelPt */
IUP[0]	/* InterpolateUntPts */
IUP[1]	/* InterpolateUntPts */";
};
width = 600;
}
);
note = ij;
unicode = 307;
},
{
glyphname = uni006C00B7006C;
layers = (
{
layerId = m01;
shapes = (
{
closed = 1;
nodes = (
(289,1,o),
(309,9,q),
(288,71,l),
(273,64,o),
(251,56,o),
(240,56,qs),
(210,56,o),
(174,103,o),
(174,157,qs),
(174,712,l),
(-8,712,l),
(-8,645,l),
(99,645,l),
(99,163,ls),
(99,76,o),
(166,-12,o),
(230,-12,qs),
(254,-12,o)
);
},
{
closed = 1;
nodes = (
(374,317,o),
(374,356,qs),
(374,395,o),
(327,438,o),
(294,438,qs),
(261,438,o),
(216,395,o),
(216,356,qs),
(216,317,o),
(261,272,o),
(294,272,qs),
(327,272,o)
);
},
{
closed = 1;
nodes = (
(600,1,o),
(620,9,q),
(599,71,l),
(584,64,o),
(562,56,o),
(551,56,qs),
(521,56,o),
(485,103,o),
(485,157,qs),
(485,712,l),
(302,712,l),
(302,645,l),
(410,645,l),
(410,163,ls),
(410,76,o),
(477,-12,o),
(540,-12,qs),
(565,-12,o)
);
}
);
userData = {
assembly = "SVTCA[0]	/* SetFreedomAndProjectionVectorToAxis */
PUSHW[ ]	/* 1 value pushed */
0 
RCVT[ ]	/* ReadCVT */
IF[ ]	/* If */
PUSHW[ ]	/* 1 value pushed */
6 
MDAP[1]	/* MoveDirectAbsPt */
ELSE[ ]	/* Else */
PUSHW[ ]	/* 2 values pushed */
6 15 
MIAP[0]	/* MoveIndirectAbsPt */
EIF[ ]	/* EndIf */
PUSHW[ ]	/* 1 value pushed */
0 
RCVT[ ]	/* ReadCVT */
IF[ ]	/* If */
PUSHW[ ]	/* 1 value pushed */
0 
MDAP[1]	/* MoveDirectAbsPt */
ELSE[ ]	/* Else */
PUSHW[ ]	/* 2 values pushed */
0 3 
MIAP[0]	/* MoveIndirectAbsPt */
EIF[ ]	/* EndIf */
PUSHW[ ]	/* 3 values pushed */
24 18 3 
CALL[ ]	/* CallFunction */
PUSHW[ ]	/* 1 value pushed */
6 
SRP0[ ]	/* SetRefPoint0 */
PUSHW[ ]	/* 2 values pushed */
4 1 
MIRP[10100]	/* MoveIndirectRelPt */
PUSHW[ ]	/* 1 value pushed */
0 
SRP0[ ]	/* SetRefPoint0 */
PUSHW[ ]	/* 2 values pushed */
11 1 
MIRP[10100]	/* MoveIndirectRelPt */
PUSHW[ ]	/* 1 value pushed */
0 
SRP0[ ]	/* SetRefPoint0 */
PUSHW[ ]	/* 1 value pushed */
30 
MDRP[10000]	/* MoveDirectRelPt */
PUSHW[ ]	/* 1 value pushed */
4 
SRP0[ ]	/* SetRefPoint0 */
PUSHW[ ]	/* 1 value pushed */
34 
MDRP[10000]	/* MoveDirectRelPt */
PUSHW[ ]	/* 1 value pushed */
6 
SRP0[ ]	/* SetRefPoint0 */
PUSHW[ ]	/* 1 value pushed */
36 
MDRP[10000]	/* MoveDirectRelPt */
PUSHW[ ]	/* 1 value pushed */
11 
SRP0[ ]	/* SetRefPoint0 */
PUSHW[ ]	/* 1 value pushed */
41 
MDRP[10000]	/* MoveDirectRelPt */
IUP[0]	/* InterpolateUntPts */
IUP[1]	/* InterpolateUntPts */";
};
width = 600;
}
);
note = uni006C00B7006C;
},
{
glyphname = uni01330301;
layers = (
{
layerId = m01;
shapes = (
{
closed = 1;
nodes = (
(194,486,l),
(112,486,l),
(112,0,l),
(194,0,l)
);
},
{
closed = 1;
nodes = (
(504,-129,o),
(504,-55,qs),
(504,486,l),
(422,486,l),
(422,-55,ls),
(422,-100,o),
(399,-150,o),
(362,-150,qs),
(349,-150,o),
(326,-145,o),
(316,-142,q),
(300,-204,l),
(313,-209,o),
(348,-217,o),
(371,-217,qs),
(444,-217,o)
);
},
{
closed = 1;
nodes = (
(222,777,l),
(80,609,l),
(123,568,l),
(280,721,l)
);
},
{
closed = 1;
nodes = (
(532,777,l),
(390,609,l),
(433,568,l),
(590,721,l)
);
}
);
userData = {
assembly = "SVTCA[0]	/* SetFreedomAndProjectionVectorToAxis */
PUSHW[ ]	/* 1 value pushed */
20 
MDAP[1]	/* MoveDirectAbsPt */
PUSHW[ ]	/* 1 value pushed */
0 
RCVT[ ]	/* ReadCVT */
IF[ ]	/* If */
PUSHW[ ]	/* 1 value pushed */
1 
MDAP[1]	/* MoveDirectAbsPt */
ELSE[ ]	/* Else */
PUSHW[ ]	/* 2 values pushed */
1 7 
MIAP[0]	/* MoveIndirectAbsPt */
EIF[ ]	/* EndIf */
PUSHW[ ]	/* 1 value pushed */
0 
RCVT[ ]	/* ReadCVT */
IF[ ]	/* If */
PUSHW[ ]	/* 1 value pushed */
0 
MDAP[1]	/* MoveDirectAbsPt */
ELSE[ ]	/* Else */
PUSHW[ ]	/* 2 values pushed */
0 3 
MIAP[0]	/* MoveIndirectAbsPt */
EIF[ ]	/* EndIf */
PUSHW[ ]	/* 1 value pushed */
0 
RCVT[ ]	/* ReadCVT */
IF[ ]	/* If */
PUSHW[ ]	/* 1 value pushed */
4 
MDAP[1]	/* MoveDirectAbsPt */
ELSE[ ]	/* Else */
PUSHW[ ]	/* 2 values pushed */
4 5 
MIAP[0]	/* MoveIndirectAbsPt */
EIF[ ]	/* EndIf */
PUSHW[ ]	/* 2 values pushed */
11 1 
MIRP[10100]	/* MoveIndirectRelPt */
PUSHW[ ]	/* 1 value pushed */
1 
SRP0[ ]	/* SetRefPoint0 */
PUSHW[ ]	/* 1 value pushed */
15 
MDRP[10000]	/* MoveDirectRelPt */
PUSHW[ ]	/* 1 value pushed */
20 
SRP0[ ]	/* SetRefPoint0 */
PUSHW[ ]	/* 1 value pushed */
22 
MDRP[11100]	/* MoveDirectRelPt */
PUSHW[ ]	/* 1 value pushed */
20 
SRP0[ ]	/* SetRefPoint0 */
PUSHW[ ]	/* 1 value pushed */
24 
MDRP[10000]	/* MoveDirectRelPt */
PUSHW[ ]	/* 1 value pushed */
22 
SRP0[ ]	/* SetRefPoint0 */
PUSHW[ ]	/* 1 value pushed */
26 
MDRP[10000]	/* MoveDirectRelPt */
IUP[0]	/* InterpolateUntPts */
IUP[1]	/* InterpolateUntPts */";
};
width = 600;
}
);
note = uni01330301;
},
{
glyphname = uni0250;
layers = (
{
layerId = m01;
shapes = (
{
closed = 1;
nodes = (
(386,1,o),
(441,21,o),
(490,46,o),
(508,58,q),
(476,114,l),
(442,93,o),
(353,56,o),
(305,56,qs),
(270,56,o),
(222,76,o),
(192,109,o),
(178,154,o),
(177,179,q),
(271,186,o),
(404,214,o),
(489,258,o),
(529,319,o),
(529,360,qs),
(529,393,o),
(503,444,o),
(458,480,o),
(397,498,o),
(363,498,qs),
(312,498,o),
(212,452,o),
(172,420,q),
(169,420,l),
(162,486,l),
(94,486,l),
(94,188,ls),
(94,97,o),
(192,-12,o),
(292,-12,qs),
(324,-12,o)
);
},
{
closed = 1;
nodes = (
(219,395,o),
(300,432,o),
(342,432,qs),
(363,432,o),
(402,423,o),
(431,404,o),
(449,375,o),
(449,354,qs),
(449,330,o),
(422,291,o),
(359,260,o),
(255,238,o),
(177,232,q),
(177,360,l)
);
}
);
userData = {
assembly = "SVTCA[0]	/* SetFreedomAndProjectionVectorToAxis */
PUSHW[ ]	/* 1 value pushed */
0 
RCVT[ ]	/* ReadCVT */
IF[ ]	/* If */
PUSHW[ ]	/* 1 value pushed */
10 
MDAP[1]	/* MoveDirectAbsPt */
ELSE[ ]	/* Else */
PUSHW[ ]	/* 2 values pushed */
10 7 
MIAP[0]	/* MoveIndirectAbsPt */
EIF[ ]	/* EndIf */
PUSHW[ ]	/* 1 value pushed */
0 
RCVT[ ]	/* ReadCVT */
IF[ ]	/* If */
PUSHW[ ]	/* 1 value pushed */
0 
MDAP[1]	/* MoveDirectAbsPt */
ELSE[ ]	/* Else */
PUSHW[ ]	/* 2 values pushed */
0 3 
MIAP[0]	/* MoveIndirectAbsPt */
EIF[ ]	/* EndIf */
PUSHW[ ]	/* 1 value pushed */
10 
SRP0[ ]	/* SetRefPoint0 */
PUSHW[ ]	/* 1 value pushed */
5 
MDRP[10000]	/* MoveDirectRelPt */
PUSHW[ ]	/* 1 value pushed */
5 
MDAP[1]	/* MoveDirectAbsPt */
PUSHW[ ]	/* 3 values pushed */
6 10 0 
SRP1[ ]	/* SetRefPoint1 */
SRP2[ ]	/* SetRefPoint2 */
IP[ ]	/* InterpolatePts */
PUSHW[ ]	/* 3 values pushed */
20 10 0 
SRP1[ ]	/* SetRefPoint1 */
SRP2[ ]	/* SetRefPoint2 */
IP[ ]	/* InterpolatePts */
PUSHW[ ]	/* 1 value pushed */
20 
MDAP[1]	/* MoveDirectAbsPt */
PUSHW[ ]	/* 1 value pushed */
0 
SRP0[ ]	/* SetRefPoint0 */
PUSHW[ ]	/* 2 values pushed */
25 1 
MIRP[10100]	/* MoveIndirectRelPt */
PUSHW[ ]	/* 1 value pushed */
20 
SRP0[ ]	/* SetRefPoint0 */
PUSHW[ ]	/* 2 values pushed */
34 1 
MIRP[10100]	/* MoveIndirectRelPt */
PUSHW[ ]	/* 1 value pushed */
10 
SRP0[ ]	/* SetRefPoint0 */
PUSHW[ ]	/* 2 values pushed */
44 1 
MIRP[10100]	/* MoveIndirectRelPt */
PUSHW[ ]	/* 1 value pushed */
6 
SRP0[ ]	/* SetRefPoint0 */
PUSHW[ ]	/* 2 values pushed */
47 1 
MIRP[10100]	/* MoveIndirectRelPt */
IUP[0]	/* InterpolateUntPts */
IUP[1]	/* InterpolateUntPts */";
};
width = 600;
}
);
note = uni0250;
unicode = 592;
},
{
glyphname = uni0252;
layers = (
{
layerId = m01;
shapes = (
{
closed = 1;
nodes = (
(443,23,o),
(504,91,o),
(540,189,o),
(540,251,qs),
(540,307,o),
(514,398,o),
(463,463,o),
(388,498,o),
(339,498,qs),
(290,498,o),
(200,453,o),
(171,422,q),
(168,422,l),
(161,486,l),
(93,486,l),
(93,0,l),
(159,0,l),
(166,54,l),
(169,54,l),
(204,23,o),
(284,-12,o),
(320,-12,qs),
(363,-12,o)
);
},
{
closed = 1;
nodes = (
(210,82,o),
(175,114,q),
(175,356,l),
(207,392,o),
(281,429,o),
(317,429,qs),
(390,429,o),
(455,330,o),
(455,247,qs),
(455,203,o),
(432,133,o),
(392,83,o),
(338,57,o),
(306,57,qs),
(279,57,o)
);
}
);
userData = {
assembly = "SVTCA[0]	/* SetFreedomAndProjectionVectorToAxis */
PUSHW[ ]	/* 1 value pushed */
0 
RCVT[ ]	/* ReadCVT */
IF[ ]	/* If */
PUSHW[ ]	/* 1 value pushed */
13 
MDAP[1]	/* MoveDirectAbsPt */
ELSE[ ]	/* Else */
PUSHW[ ]	/* 2 values pushed */
13 7 
MIAP[0]	/* MoveIndirectAbsPt */
EIF[ ]	/* EndIf */
PUSHW[ ]	/* 1 value pushed */
0 
RCVT[ ]	/* ReadCVT */
IF[ ]	/* If */
PUSHW[ ]	/* 1 value pushed */
0 
MDAP[1]	/* MoveDirectAbsPt */
ELSE[ ]	/* Else */
PUSHW[ ]	/* 2 values pushed */
0 3 
MIAP[0]	/* MoveIndirectAbsPt */
EIF[ ]	/* EndIf */
PUSHW[ ]	/* 3 values pushed */
4 0 13 
SRP1[ ]	/* SetRefPoint1 */
SRP2[ ]	/* SetRefPoint2 */
IP[ ]	/* InterpolatePts */
PUSHW[ ]	/* 1 value pushed */
5 
MDRP[10000]	/* MoveDirectRelPt */
PUSHW[ ]	/* 1 value pushed */
5 
MDAP[1]	/* MoveDirectAbsPt */
PUSHW[ ]	/* 1 value pushed */
13 
SRP0[ ]	/* SetRefPoint0 */
PUSHW[ ]	/* 1 value pushed */
8 
MDRP[10000]	/* MoveDirectRelPt */
PUSHW[ ]	/* 1 value pushed */
8 
MDAP[1]	/* MoveDirectAbsPt */
PUSHW[ ]	/* 3 values pushed */
9 13 0 
SRP1[ ]	/* SetRefPoint1 */
SRP2[ ]	/* SetRefPoint2 */
IP[ ]	/* InterpolatePts */
PUSHW[ ]	/* 1 value pushed */
0 
SRP0[ ]	/* SetRefPoint0 */
PUSHW[ ]	/* 2 values pushed */
23 1 
MIRP[10100]	/* MoveIndirectRelPt */
PUSHW[ ]	/* 1 value pushed */
13 
SRP0[ ]	/* SetRefPoint0 */
PUSHW[ ]	/* 2 values pushed */
31 1 
MIRP[10100]	/* MoveIndirectRelPt */
PUSHW[ ]	/* 1 value pushed */
9 
SRP0[ ]	/* SetRefPoint0 */
PUSHW[ ]	/* 2 values pushed */
34 1 
MIRP[10100]	/* MoveIndirectRelPt */
PUSHW[ ]	/* 1 value pushed */
4 
SRP0[ ]	/* SetRefPoint0 */
PUSHW[ ]	/* 2 values pushed */
35 1 
MIRP[10100]	/* MoveIndirectRelPt */
IUP[0]	/* InterpolateUntPts */
IUP[1]	/* InterpolateUntPts */";
};
width = 600;
}
);
note = uni0252;
unicode = 594;
},
